<mxfile host="65bd71144e">
    <diagram id="XjFYchXofXAEBf-wU8jG" name="Page-1">
        <mxGraphModel dx="2693" dy="504" grid="1" gridSize="10" guides="1" tooltips="1" connect="1" arrows="1" fold="1" page="1" pageScale="1" pageWidth="1100" pageHeight="850" background="#ffffff" math="0" shadow="0">
            <root>
                <mxCell id="0"/>
                <mxCell id="1" parent="0"/>
                <mxCell id="42" value="" style="rounded=0;whiteSpace=wrap;html=1;fillColor=none;" parent="1" vertex="1">
                    <mxGeometry x="-10" width="940" height="320" as="geometry"/>
                </mxCell>
                <mxCell id="25" value="" style="rounded=1;whiteSpace=wrap;html=1;fillColor=none;strokeColor=#000000;arcSize=6;" parent="1" vertex="1">
                    <mxGeometry x="560" y="10" width="357.25" height="296" as="geometry"/>
                </mxCell>
                <mxCell id="24" value="" style="rounded=1;whiteSpace=wrap;html=1;fillColor=none;strokeColor=#000000;arcSize=6;" parent="1" vertex="1">
                    <mxGeometry x="190" y="10" width="357.25" height="296" as="geometry"/>
                </mxCell>
                <mxCell id="4" value="" style="shape=image;verticalLabelPosition=bottom;labelBackgroundColor=default;verticalAlign=top;aspect=fixed;imageAspect=0;image=data:image/png,iVBORw0KGgoAAAANSUhEUgAAAdoAAAFTCAIAAAAROVroAAAAAXNSR0IArs4c6QAAIABJREFUeAHsvXePJEeWJ/hMunuIjEhVWTKLJciiag67yW6O6O2dmR2Bw+1iDwMc7t/DfoC773Q43J+HAxYndnbutmemZ3Z6mt1sRTZVsXRlVaUM6cLU4T3ziIwSVM1KVjbHA4lIDxfmZs/cf/bsZ08w7z00n0YCjQQaCTQSeNYS4M+6As39Gwk0Emgk0EgAJdDAcfMcNBJoJNBI4FhIoIHjY9ENTSUaCTQSaCTQwHHzDDQSaCTQSOBYSKCB42PRDU0lGgk0Emgk0MBx8ww0Emgk0EjgWEiggeNj0Q1NJRoJNBJoJNDAcfMMNBJoJNBI4FhIoIHjY9ENTSUaCTQSaCTQwHHzDDQSaCTQSOBYSKCB42PRDU0lGgk0Emgk0MBx8ww0Emgk0EjgWEiggeNj0Q1NJRoJNBJoJNDAcfMMNBJoJNBI4FhIoIHjY9ENTSUaCTQSaCTQwHHzDDQSaCTQSOBYSKCB42PRDU0lGgk0Emgk0MBx8ww0Emgk0EjgWEiggeNj0Q1NJRoJNBJoJNDAcfMMNBJoJNBI4FhIoIHjY9ENTSUaCTQSaCTQwHHzDDQSaCTQSOBYSKCB42PRDU0lGgk0Emgk0MBx8ww0Emgk0EjgWEiggeNj0Q1NJRoJNBJoJNDAcfMMNBJoJNBI4FhIoIHjY9ENTSUaCTQSaCTQwHHzDDQSaCTQSOBYSKCB42PRDU0lGgk0Emgk0MBx8ww0Emgk0EjgWEhAHotaNJU4NhJgVJMwq0+AAHHXbM/ifxYCHgwBgMXTAjC8lsVrGMwKotPwrAAQ4rmzQ7HAx2/CgE5evN9j24dXxdKw5MNyD7fqCw9PPyzps9qHbavPxDZS/RnW/wkfPF4LYX50Jh88Ej+P3+2wwgFL9vQ7ns4CypE9cj8Wq0Lf9cUstjteFWs8uyhQfT1dRN0E4vE6zCvcbDxbCTRw/Gzlf7zuju9zfM3pzSZoWHj5sbIRdepqCxbAOfzBOIERY8A9gMdScOJFBeI3C8ADYo3jWATuYXTGDKmqCsvhDJEFv/EMPMfRLWugqZGGbkhoHffHu+DtGBYxx9BFdPSBPnX7IGCzGAtMCWqLr1v02L/ZoBDFwLEZPt71oVPrisQKzo9wCNwRpuLdODYbb8xCCNTCengiodaXVsw7AI51A+GZACEQUUlMeErw4APzgeQNwDwKPIAPYIEFzjneJ5CQqUQmwAk8ZiFYAAGQAjRv/byLjtdG0zHHqz+OR23ovT+sCkIRvdtRtY3beJhQgtQvAkJCB/C4n+Ap4sEMixEqAzjvA+p7qEQTUNUqZaLFYbk17GNBYk6n1Teb4XcN9nXN4g3rKocAIXjvfQBPMAzAlFKMM8TqGkzxH1aCqjvbedjmT9mqL54fpSZSVRAz8ehsD53CgNNsAX/gRmx1hHbE4ngywS3OQ4AFQWMKjUlcCM4jFnuqNlWZMwFcEAB7D1D6kjEuQUoh5Kw4BziMxc9MF6ZjsScfbcTs1Ob/s5YA89inzaeRQC2BGhoIViIU0IEIHPhKP/wuc+uiOrsgQAJDwRGI4mx9hlKIwN4bhO5YDG2RUhufQ0T2+KlBCbw3UwaOlGa6M2rPD1dh4c7AuA8ykJLNUPeFqGcDgLPxOUcdGUEzfjMQiiMM1kXW/yKsPdrW+BuxHrdmMFfDbRTNbNyaCxOEtzzyM6jv4n0DQ+2YVGUsBqWELAVKDViYmpwJJpiUXLHAwXNvPSnTdfNR+WXeB09qcuASFWIJAjzH2QeNLngjRTuophI86tyBQJ3JgFOZ5nMcJdDA8XHslWdYJ1LZCLAeBb0aoxZ3O5B5QATgDKfBOIH2NH8mrZb4yqh8zrXQQKAQ4ThyCVFfZSAkwV0EnbkAAtgpgMUbPALE1saTIkkaKxdAWUiBIQEREZZYVcT+WG1iCwgTI3XBHHDLmK8pb7yI+IioxtbXEWDizRDGlMczZreLuEw/4zg2H82ocnjf4DkJglobsRwrQLQMDnqExThuEWgHkiBOJOgPhYo6fgBHYwBCL5WMAsUmOA9GAKjAOWIxx85AVoSBwNHIEfByqnOti4tP4b6jNJvvZyqBhqx4puI/fjd/hBiNuh8RqDMNcrHODCwDOycjA64TcT9fLSIaGQihWdyOmBaLCJEjrb8ZInmEbVdPxfFXIhMG9Sz8EAQBQOpFVXR2CFXj2TZpih6CQwgj0iMQqjPBiaFGLGU+5EiqIo2BZ9WYiDWJ0DwbLWatJpX/EBMJJBGOUfeOFAxtHNaBlGLaF2kZPEKFHq6SRiTGCiA6R9IGh7YKCeHgOPMMLJWIWEysPGnaDEB6sCI473yK1A8xx7EpSHEz4Un3j5Kare49QqjMWtb8f/YSaOD42ffB8akBTZgjkhBkxAl5DQRRLaN3ebZJABLBBRvBCZdRNcX3v8YAQjbSPuNVcaUJt2tkcwjgvPDOA5K7h3CFRK/IsTA5w3VEvbi4Nyt9QVElOeKa4UxbF4TCgjTKitByEVwJfbnCtTKiKxCRBa0v4lnzcQhLrUVSDzb4k9oSS4sVXlSZI9OL1xHAxtNrCK7549q6JHY9ihlHI5peEKniODNcVJxZai9ywcRD4PlURTGfjuDSHEiJkhE+dmCgIeiQqam7a1bteNPm+xhKoIHjY9gpz65KNNeOVGddiYhEtWJVv9fz6S4LoMn4QQIo+osohkgbPOE0LmZ5zh1jBKNMgAoMrS8C4J75n+fCIitR/znSNy3Afg6GpurWoRGH9d445yHs7O/NzcJmwIewnbiggSsptFKpllpJLYXkrJWhfswZKIGgG3E3AViCdgIOVc7AOaN5PkPLg7jiiLrlDIvrjSiDuDPOGmpwxuNxN5LFJL76Uiw2sg/I7CAdRGMGnY/GbHGwCoi5jCsEVgNQAkzobxSg8KgdowQInkUgaXOQaDPhEwl9xXsM2pwlgXFng3cyUYfjSNTe4+jx7B6u5s6fK4EGjj9XRP/STiBdEfFkxk7U7OzC2zyDZZwtg5f4jXwt7saz4qoU8hKBgxGIswaRlzk8hnCD0EN/nvDXAQwBcgOj3A7Gk/3h6GA0mk7zqYE8pCYI65yxtrLGWGs94g2TaAAWrXTnS44yhLb3yiPjIjgTLAgO0e5LCZ4okaW6224vdVrtditL0zbn31rvJExy4ilQm6Y/fCsYE8QR1xZlc3yNbZ9JYPHhQFiNK3w1DNMMgaSIVmu1NQk2HqVAhElgHNliGtKi4p8HqBhMHOwXYWs4vLW3f/dgMMjL0nnrgqksWC88aC5SqYQA3Va9buvc8vL51eUzXb0sIZNSSBm7I5LQOPYs9N5inZvtYyWBZinvWHXHM65MYMHhulFU5dABAdeDUItj4OK6POKQR6yihS08iJYPBMNoBkCKs4jgXIUwDVAJFvnlueZro+rnYG8w3dk/2B0MR3lx5/625cIzjtwF4550Rse0hZYDHRU9rEu0HYhATFVDRJ7VUXqfOCPRhCAadcTlrcCCD86QxTBuz2FcO7ahu32dIUa3sl47W+svnVxlqwryAjoaWhw1ZUeDiSTN2jngAjhHqHVIcnvio0M+naRpwjXqpIi4VUmGdlxk7bgD5Yq2E3Qcv7kztgyBaeUFVDREGYB7AW7smA9v3Lj+4MFOkRdcGKkNF56jRQQLDI2R0SQZBCrZYWyLRPEOQBfcquLPrfVfvnDm/Go3oS7REBLsDB+KKgWB1ZvhcrQtodo0X8dFAg0cH5eeOA71mMExOhngqlDEv/h9iCO4yu/IhYyB5X4ohMM5dtQsg3AgLIhBXoU0YRwn3RUpv9sl7E/zj27dzo2b5NPJtJgUZWmc8cExLtOWY9whENNfHAuChJAELBk/cyxe3EB1m+CYVtKCCCGu5UXoJks7Qmzv0BAM3QjncAy40jXxKdMSLSostybhYSmRHc2vnD+70k5P9LrLbZ5KUAz/NICrcFVwrjJzCJKD4oyDD956ayB4rG5cT2MSeErjGZHpCMeR4ODVNNfdrGJwUEBIESR3Snj7wxtXDybbpdmfTMbOVkpDmlmlHZdTYwPjyKjQSiktmVJjEslZUKaSxSQppz0RNpbS1bZ+4bnT59ZXVtCOr2wztgQ6gZCPJ1m7PdPdj8MT19ThIQk0cPyQOP6F/yA4RqSlFfoFOI5rdgRCqCgT4RAXrDRqxzYAJ8cvbkBaUKRNQgHwwMO9A7O1P9ja298ZDPbznLc7uXVlVVXW+sCYVEIlXKnSOsTiBdU4AKqByntB+FEzszNFGBmP2TYep9HCgzBMBYbGCYdKM6JWZC0iHNfXYV8HZJs5khU+mNIXU26LlPuUOTsZLmmx3NarHVSZT62vnj6xdkIgaZvRimWkg5HTQWMSnwoOruLBaVw6jEtqLpSO6SWsXKw98kBEAjEcz4wEw1BKBwDXt6vfXLt+dXv32qQccxmEgCRlacsrXQQorPOcLAnJZlh4HHIYjUNOS8aCslaWhSxzVU21L1NmVtry21cuvXrxXJ8xVJxBZQDBlFriVOORD9pox7o9cqD5+fVKoIHjr1fex/tuEY5hBsfEVBCsRbQLRAGTNWukOwHAFiMhmZBpABkXoIa0APWbm9s74/zO7sH2wWhYGgscpApKTXwIUqDDmZToTYbkKQ+M5aUJaF2A22jxhvDKhPepryS6DeMn4uh8o+a0Z4fQ14PJgmeOyZldRORZAgtBCB4BGgueQY9jIvdYMcWZhMBcJYPVzGnmfD5hJodyEqpcsdBpJctL3dWsfeXEmeUkW17qLLWhDZAAqsxqBtACrEIPDFLfvfPWc9GufZZJLSZOgnmk1GHkoeCIxb++Nfrxr9+9dzAM3d6B1IVQTCoQKghdOj+tbGGszjJSrYnEQecRbL1nUIJnHBLGM2BJ8NIZZnJWTX0xXE75lTMn3rj83IWlTse7jvd9qWQI9VyD5BZ9tUkkjdJMEnmmXw0cP1PxH7ObI7FKPETUjmdwTL4ERNqWHqoAXqB/QVSBBWnKBmAMsJ37G9s7n2zdvzcYPRhOSuAGROBK6EyqhHPpOd8ZD5mSSikhFTDunDfWOeelSsi6rAbSqEaK4FQoBQZbWPhEamJhRwQSVNuZrFjqWL1AHZGX9GYymzi8pIYex/jQWhBCCmSDWXAcnegcD7adaMWCBMe8MUVelbktS1HZZaaWk2y139tYXj652j+10t1oQY9AWRNfE3wFZaEYZFoprq1Foh0X1mI90JQYF+tyjhs3K/iH9z755c27w8AqqYbOQ7tT4ayAzPCY9J4hNeSBo5tM/MSlQGyCZz4IdAgXQSgmJAh8n23lTbnSzXZufaLK0RuXNr//0vOXVzsrHOvZRk8W4tbJ/XFWJll7zH80G89IAg0cPyPBH8vbfhYcc6QkDGmYZmYOUQLkAPcLuL41vfHg3t3B/oPJZLfIR9atnDptUNUl219cTGK2cta51vKSA4on4SnSEBp+4UwZA0zESX30liAdGHleVhHgR/38U6Q2s6ileDoqRi/CUwkBI3FBK4+PXu45WIGuyGh4QLdn6OyGnEY+nUjBEykU2SnQCUG6UO4caORPvAZYStRGr3Oq311tJZfPrK8ksEKaMtEBgQWLlAIOBFwwCpdBxiRVgIJ8Zz44KH780bXf3Nt+4KBK20YnhosghEVIDei9ghSLEEwILhzKBz2paY2SonKghuy5QO888DwEyTny7Eg2eZcqoVwJkz052n+uk7z1/MU3L5/aVNAOkHh0Oo+fuUQasmIuime40cDxMxT+sbv1Z8AxWqQxMByJYwMwCrA3Gu1Mws+vj+4Oqjt7O3v5xKRKLy/plR5vtbYHB8Z7azwPTHORcKWZZIyZYJ13qA87B2grwDhHg9/ga8+IGc+AwnGMVQK/o6Tqf/QDt2sd9xCpefDSe2SOo8vb4QUYWONJV3jncgJJYAibtH5JThkqSa21ZWWsswEYF/ThvN/uBGNsMXXTCZR54k2H+S4Pl06ubyy1nltfObvWX5HIYHgI3hiNmjfaoUSKwNDCZg5we1L+l3d++c7Nu9XSsllauV+aXKhufzmUBXLlLgQTmEUjOBnQlIPgMi5EeqLAA0W7sCwUxPxqj9OCxLEkyBSEHAz2T632l7jNt26GB3cv9Nrff+WlN59bvdiCzDVwfOxevfoJb0IIHdOeeTrVqpet5r4GOGkmFKtdiWd3mZOsDufQs6U8NFyrw80gO8GQkRg6uDeurt2/9/GtWzd3xhO5lrPMCg6p8qkqWBhUxbgqO70lT6ww90x6YNb70jhrZSIo+ARF0ay10nrpKyLsYSSLAJazXDJLqmmkKOZgjT8PzcbqbR68ClaQoVuc0pOGjAbBDA3FsLV0EZkIo/WIT4QP6FniHNlboxUwuWhX1nAhldJKJ1yi4x6aPFuX53miZUtLzYG5MlQ5rwpuSlaVLQ4raXJubfny6ZPnT25stFiLxJuAT8GRiRkvgA8BBgD/6395+4F194t8zzqbdXhvpWBJUVbClAljSigJojYxcSCAebSqi5wxae8Y5CIw5jhUFKIoMV5WXhhQjicgVZLo6fAgA3uipdNyEgZ762ny4kb/v//ec0sUZDNBQZAVONFQ5EmOkeIOPV8iPz17Qpr/X4MEGu34axDyM7sFvmjoZ4teYB64o2ASZAkAkqGWaysEIYVhIdBo2AJM3VgJgepY5TVo3ASoDCLK1gjevTt6997W9eFw19lCCqt16cGhCQZDvzuEB+ZpRU5wjGFD4XgxcgL6iXiGJ0owrjIGfeskF0pprRPORT4tGON4FWPeBeectdYEy1rScY8Bd2iyThs0xkQdkSKizRf5GFDEX5J3RFX0AESs5qiIC8E42kvjTo9aOgSvMYglkiUxsBB43MkgZGnikdRGDzfOmOBcUQzLaV4SpKMhSWAOQw9DCIyXle21l1ImzGBo9/df2jyXBf9Xf/LySQBf7F1IlR3uy9ZyKbvXAf6XH936+f5wrLkTpeeWIi9pg0SCFMEgRUOxR6nJce3u8BFCpbieGKAc6OQYxwLRm+AUuwO5l4AhhYT3MjiB/LLPXPGd8+v/w2vnegG6E9tJAYohdNICdfaEgUgDqGg3A0SEo/AOpxiHlWi2jkYC8/WBoym+KfXZSwBfJ/L4QqfkGFkCAuRjl6VCpni0zG0VrGqnQgJzTAmNMSo1m3qoHOQBpgDv/Ore1qS4cTDaKsoRE2XSKoWoAL0TZuHIokUEqaJI384CbGJ8Y9JeSSvOqyLwwHGZC5Ve7/wkH3nngw+ccckFxu0VKlWCcwk8FNXEo28KwiXxGxhdEhETY1RGA4OISjToMFBJRi4k2GRCSk7xlVlRWkCbXaQjEPaRP8HYwpUpyboAQ6zhaKCQW2DABqOh4ExLJXWCOyAY742pkGkmd444AlnOLWeWCSezSeX6SeKZzjr9a/f3Xji9sV+gue9mujQe3e50OlCZPMDfvHPn6n4+UEsTjMDMBBTSY6QfHAJxuhB5bDKNi0j4KB7Of0ekFoe/kcwgb8cZjUPLfVARg4/DqmBX8+rHB+EHfbakJHhcxpyMD0SnH80Wa6SvL4/WeXMO/tk/yt/4GjRw/E3uYtSVgsCgZqinIkIhrpCTctYRhFg4Y086MuGyArDO9VTbWdg3xqTKcrjP4cc3b/3ko09GIPZKOyp9EEma9bXO0GejMrXJKqOJbw0MqL9xoXDdH50jvPOOx2wVAQ5MzrRIpU610EJoDKrmmbNaiGAN0rLl1JVIDAA6dHjhnGYgBFdCaoVgqRIkY01Zohn0jHogBRmJCOcKbC/eNDgXXAgWoZ5t9Jct+hk7Y9C/EOlgLpzgoZuWtLToKKowKb0cOGedxAZA3d87jJrMhVCJAsm9Q3c41Pit5xaNMBhOCJROTT7kyrY0W1Uq37r/wsnnuwDaOrQuEwlw7dP0o7s771z9eJSsed2iaEdMBI4FUmzmaMp2dE+kB3iwf/DPv/zVK2+9tqIBlwJkMhnt9Ts8OrbUzFREYOwYShVwdBVqSn5YAg0cPyyPb9avmgnFGLqzdS/UWz3asyE9YX1ZciVBJdGDOTeWc8E1gFTXR+btu9d/sX3vRpnvMWbTdp6k3nDFEs4TDpI5z50ADGcepVZzsxTtIlhrY6YkjKygUPEjO9lwcvWE8dZUZTEdTsqCOUPebmFcFZqFTIiOkq1UZolOpEy5WMk6mgmtVZIkrTRJdaKVkAK6LSzw8G+mDxqy1LMOjIXKoBWdRWiGG7duVdZXlc2LMi/Lsqqc8znzu9PKSFKZhRQ6ESrlKmFKlS6YwENgiOm4osaBCRu45kh0BORkog8hDnVIDlhIdGKLvK14WhUbK+3Xn1tfU9AB4cC1Wiv75aTQ4UcffDDVEjqZh4DMDf5xTFsVHf3miu7RPIeBsakL1x9s//r6gxMXTywpzrzKsi4HZJNq9+kY5wJ5nzipwTGv+Xw9Emjg+OuR8zO7C634EBhTCBsePA+OgS2HwyTRHOlDGNuiQA+1RKTJXgX7+/DB3t7P7lx/Z+fuLV/Z9RV14sR+UQEo5WSoeJUHXlWp5SoIyxVOrynHBU3iPY/gby3GQOdMcU7Rc9D8igU/3t5HGy7nhDNJcC0leqnuarmU9TpKLGfpSqfV77SWWlkmZUp2svO49DHCfdTjzCIWkzYXoUyQ0u8kWAzUhuqrw7QZ8IOTl6NNSBmgqDAkRVmWE7A/vfnROLiiMpOympT5ZDwpPCuDcDIBlem0k+jMcVm5UBhXInQnOOVg0jNm0Z8bQ18ygOl4crLbLvd2IRPV4P4rL186p0AE02FqfzBJe92hMG9/cu1nW1vT5Ys52gdjMdIzFdPeofHFkeOeY0y328ZXP/nw48sry2vrSnve6a7kVS7RUZzW8aIcuYvRSyj68hGPEs/s5Th2N27g+Nh1yVOsEAYSixk6aBZKccTQ2YHxoDKJcc+Ct0J5YiqGECYOrt7ce/eTW+/euTmQIE6dWF/u7gS/s5sHoZRQGrR2IK2TlqUgpU6GqGjTyhGRudG+i4HLEhG8DbYEa7wzAb8teC+rfKndWuv3V3vrq73uarezvpT1E+iT83GL3NvmkdXiBqrVM+0eVx7xh1+WNccaoSJqdpHsnFOeuEFFBDLOi1NwZJoTBGvjkpIlL594fQwwsGZnMHpwMHxwMN6bFGMTDnJTmHKal0Xglkmp055OhdTOVpSxA+3MYsB4CrgEgqlMZ7iYVhYtDs+fPZmBB1MkWnVbSzmAl53/+snNUbuzC74EF5gQHiTGA8K+IR/oI0c9XFtVmnWXrt+4+d6drbO9zVXO2sB8FdB3miLWEwEUAie2ntp25NV6ik/873hRDRz/jnfgZ1YfQSo6ReBaGqDjBcPsxGhpkaaF8yNjLVclg3sOPriz9eG9nX/+6JbTbbWxoVutPMBop2RMnk761dQoJjSgNqe8VBx0QANZ0rVjgAjHQ/0nwLZRQS19lXOiI7JUZWmnJcRL515bztJ+t9VOIeFon9siIK4q0MwnEDQLMrLGZO7AlcIcHogL9M1w8YusBuxMmYxzaWohA1NVGG8NT0HGl5yw0bY5IWtiKgMP4jWkR5cAa4iVyq2uFKsr0bGlBHjv6t5BXt4/GG0PxuPS2NJxbyDJDowzXDiGdhUGmGGCQuazTtbyZFzhD+5d2jx/anWVQZUJwSxkCm57+NXBwV3LJ+3uyHOuODMeoy5hPCBB42JU+j+zO7/yQQ9sWFYySVin++7de5fW1zqnWjpAlrTRhgIHOpRN4IEy68WA+F/5rk0BX1gCDRx/YVH9Lp44VxcpfRrSnpTe3TMxqUrQLSfEPsBHe8Wvb97+9c1b1wej1vmLY4eaXyoS7kXK0BA5CcpVnKGNgpMYXhKtC6auLErDWpgCmgHaUYlgpbcqOBksm+bCmwRcN9Uby/1zpzbOnDp5ohVDQWKQh/mqkQxoY6U0BoCn1UU0nECzO0JdjLhec5cLWlptzTHTmWdnABrtUYhLoj1x2AkWvxxwnWCBmMYINWz0PUHvEwjTKW5JBVJ48tEoAcoAG5cQmifm1P4obO3u3dq6d+/+9oPd6XJvNZfSMm44r4KsuDJBecyAKsaDwZmWrkpz9vRZxNvKdJW2UwNSDQ389T/9vGj3t0a5a3USyYVFawoaL6NmH0NqzGzYjuZhC4wNp3ki292VtZt371zfG7x0prW7b0/3JImQ9H6ORn9xOrIg8aOpUFPqwxJo4PhheXzTfpFLA3pMRK8IjP5QgcBQEjopAW5V8MOfv/+TqzcPQMrl1fbFzW1bWYnRJZxhiQVtlXJcGpBMCYmAaZkvQmXAutRzHrotZvK8KqbCu5bkGQvcFKycXjy5cWp56fzG+qmVXk/VcXYydECgQBC1e0ZkOWIMY8LW2miN0tsjClOouLnLSo3LdPHco/qhLos6ch1sZ3YeuV1ToIaAJhIRZNDWmHnIkgSRiCFSA+OaQUYhOF10BFewucJeXVktLq5Oi2rfuP/nZ7/aMdWwKHLDrM4qmRbBV56nWUe2Wvn+Tlelp0+uYTx73akw3iYWbxV8fG8/PH+i0lylrTir4HRjNNOmIPRz6+mHGvSUf7BOt6db2f2trbWs/fGD3X13ai2T1oKMYqE8LSRmRq7j80HzKdejKe6JEmjg+Ili+cbspGwbDs1LgfGBKQfW8KzLgO8A/OS9a+98fHMIiT59MQG5W5nx2LBMIwmAsIgueYjiBE8GnGPeMp/7Ig+FV0G1dS/T969+cHqpd6KXmUlVDnY7Wfr6S8+/dmlTVnY5kcsCw1FiQlBvmbMKXCpiGhBSCeMqFn5TOo6YAnlmqIF9QClGA/M1L/GIthat6+YERN1pceCJP+IF+B3n4Yv9ipNzyjtX69h4D6QNZAzljGueSPTQQh3rCSgzs5Ty//Cn37vt4P1Prn106+69wXA4HQeecJawsszStLPUXZOddorxPSobMqmYDiXA9fuFT7qWt9Bkj8lgjECfc4zGFpiw6EEDJGbI74l3AAAgAElEQVSU+2Iln/J2AFvZSjumE8fFdl7dGUCvTT2Ed0IJ0ACO/c6Q9Ilhm59yLZriPk0CDRx/mmS+EfsRiBwkmB7uwFRWtaXiewAfPtj94Ob9D29v39qfQDeVTky4KqRUnCtTihg+gty/KhEqnMh6qUXlSwsl1yASBcwcTHcP7g6+u3mquvegGNx77tSpN7/3g8srXQVQDMYXex1dB58MzBlmKwQahLoCMEhZBHq0laAERYKjuRdy23M0ijorIQLO6mdQPEdY2sCv2ZG6xx4HXrJOfuQsOpm8Y2peIyrns2+0hSZLBwRoujRkPAhQAyjPiuTU8xfeev7Cg2l1dWvnvZv3bu8MjSmhGAUhl06sJBSoHt1cGIBmOcCvr15Hl7yQCmAJ084WAu2Vg+MqgLCExIziAEWfmiN6+NB2wnlbVIlOPbcPdndvbo+v9DqOVlCpneSeiKMxo5wntM5wRLVpin1MAg0cPyaSb9IOyhkXBC9AOZVMALYAfvbJrV9/cuf6vb3W6qmlzVO7U7M7nIolpVoZWJsUoHzwqK8FR2629O0hRf9khXBZelM4M9U2b0GpR7t/8PLlV55/oQ9gQwiTaa/d2ux1vDUSgkBCwCIbiWqnoGx5zFEmz9qdl7y3yRuNLCZmamwkvQUGSEOdeYFSncEj7XxSX80Th8aDT4Lh2WVIIyAA1+fE0M7Ro4TjgIEMqqPsIeSJh87TPDeJ9FLpHoiVlt64dPrymVMHhf/45r07t++N9g46rJfEEPXkdA6UCeX61n21dMZhoiqpLfM+IL0OweKqIG5hNmhyNaQId7P6Pe3/PEAKAowLSjqhRs7fPRg40TEWl1XjUBSJLY4pqGitE6dH8yHyaVeoKe9hCTRw/LA8vlm/HONGpge2CpJNAX41Lv7vf/zJzf1x7+Sm7euxatsgjYS0pZNOOrXl+GC/IxLp0UKCnIDJY4ScIYrppJ2JhJlquGfH+2vt5IULm6+cOv16dz1xlhnTVarDmGq3JIApi66SZC/MQUhMAY2gF4ALDxmpr4iqtCvCKwWexz2zWJmzjkCd8XD+vojLszNm/yNmELLV8Do7gv+fSILWlgSo/8aSKRoPVSOWRrE+nPcE2ph9VK5k3QAMIwrbknO+LJNeymwqrvTPfLK+fP/uvc2N9SUKSx8q44UzUuwW5iDP1WrblSAtT3QQqBhbz8AKbzA/Idogq+AoA18MdrxY96e2zQO0hTIOfWMs5nRK9qYFBpmLox96B3mH6ww056gb/dTu3hT0uRJo4PhzRfQ7fIIDVgA4qW9aePvqjV/c2rpvhOlt3C1B99b3BhPny85SV2oxHu0XVd5S6MxMTmjRqhbzYwqMqOB8MWWjMmFms51cuvzi82c2zq2ubgBfAtBCYghImtRzjG8Jba1p8ZBEF9eEAOMCoe8Dz2rCdsYyzIAP/xMcxw3ER452w4twjAXWYDHbWvhfa7mHYFwn4MBTYtyJR/qSofb9UD7RWCm6jtyWQXmMl4ExhckUQzgbhGAtrjItPXgDfuy9cbCiVOtU6/LqxVWNcK4Q4Csh9Q7YnckQlMZA8RXPmFZVIVlwwVeYng+/AyWJAkyAHUg4hy14pMJf8SdWzAct9cBWVQhZ1sI1yRjEjyFbjJFBSMJYjWhd8XUY4H3FZn1zLm/g+JvTl4+3xALcs7Ad4J8/+OSHv/j1QGYbL7wSeHLz+p2uBKfTVAqpRJmPiuGe0qzf609yQzCIhAILkLigMT2z3cj6LVuebelXz558/cJynxTAYlIGgCxLYn44RFPj0VpC8GAtLksJhukq0FGYOArGtUf3hznjewg8uBWhYPF7htn1eYhXpMnOPHlnbY6YPit29ivqefU5sdjZBfgf7flUvTvqx4c6tKeM0QTwwmGYCmK7MWoRcxact8FXjHsheV/oLhcHVd7R2ZJGG5IyH6WtBFN5QMlA7o4PdNYa55WGbqITbfPgSoGR03AWYikjNBmPUKylQ4ksVvXpbHMIvjDdfm9oq8rYbpoODvbHObA25oCRyMwgd1yPcDHKyWIqp6dTi6aUT5VAA8efKpqv5wA++/ENnGHI4vt4uF0fRVdjhEkKW0MxameuDlGXodKcQErUUM669x8c/MMH1z64/8D21njWeffuViWS/qmTxbTq9XrSucnwAGx1or8quJ+O8yAlZV8C6b1yPnUus65tzGtnNq6cWH/5lFzlkGDRXkLopAkmvkenN/JEBvQ1I3MIYEqjtkXB3Oi9Zg5XBIkbJiZ53u5azujrQcox/p5BZ2x/bUHxyBVRIrWEDgX15G5b4EBmcj4Ue9zzUHnkLjw7k5y6kUJmAoQCiSE4kBj3vsQQyC73jK1qzNBc2iqROi+mrKWBFic5yHxSiISPy6FPUt3KYBh8GSRFvwjAHUrJEUMRDVnqej25HY/t/byGP3pBVRZarmCMjeBA6kk1zQ3ZT6DIMTwqPUezln/Z0h+9W/P7y0mggeMvJ6+neza+AnPLpqifxRvMXOkOb1dDhgeTY0QgJZxQJUgKBcQyRAJKakFr5KaDAc4/KbY/2hn/v/98bSK6Zml9ovhI8tBrMS4GZjQdjVIBqUpTkYDjwmhMsjYtk67SmmUcwmRkD3aXJP/uC5e/98Jz51M0WcsAEk+xkls0ma2J34C06mGgx9nLjPo1JiWivG9CYwhJ+hnX5g7bNmtzDUTzxbrZGYegcLi1MIg9tNI0FyddvHg+oflh1Wbgjgrx/LQF1D5UlIGqXlcGzfDiqMGAC62EUnjLWIcgJf5aXV6nST9GzdTAM5eMirtiNSnV5ObB/jnVlmVXGivJgA8DeTCLQedQAUcLZDTm+GKfL3ziYXGrqytb9+9VmZCZdNx2u4lFGoWhzyEYwWNScCJw0D5xQTaHZTRbRyWBBo6PSrJfqFwCj0WIiGzno6/Z4hnOox2viEkbyMEsxoyQaCUQjC84nwDccuYfb9z+rx9eL5NTJUsrwQ3qmBT5BsEjrJ06OXiwl1f7a0vLSSubDEacsVOr6ywUg+2t4XR4dmXptVdffPHMxuZSsiKgE7Mmk60aNm3OFszMET6tvTGS+sJRNGRYbNDCoTkyPiqAh8955NdDhT304/DEWYGz//WRR37i3k8pYFbU4hXRqy5aZizuj6uUFJAHPbo1EtC2hGmlUqe9Q8sSybzk3iI9gPErHMW/wNBwKILPqcKsKl/+P1qSIO2CyVTRwzI4D5gACnAsRd6Ysr/MRpzYpIcb9uXv2VzxJSTQwPGXENbRnbr45D/h+Y8gjW+qsOgdJzHUAc78MXMExEwfaFXcDl2+X8Lb1x78dOv2e/vbd43mPWWBCwRi3i0ZC5TxByerZTfJjDRDM06lSPoSjB0ebMnB3rrk586efuXi5pWz/Q2JQBwtiGW0T5jXtVGdvsADgdMXlUDgxliMoyy4d+SCTLHjYxC1GIf6CxT21U9hxocglBDSB+MtRjGpuSEMwk++P5RkFTt5/tR99ds2JXwxCTRw/MXkdERnLSDaHOU+61aMWZV5hecacN4bjGbJwAAvpbOiPQb4+fbe//ebj369s2/6y0ubp7emEwgsM1x7nhj0fvaMGc62h4P2el939TQfVdUkEUIGA9O9K732q2fPfOvFzTNtpIW9xSX2VHIFnowc6C2NhsNRiYv1/qxK/4s+5gF0kkkhvcFg7lKgVyInN7xAGafQJbEmOygb6VFKKzBW4uxKCqF8VbHgMfwpZshDB5xZOhLE5bpXm849yu54vOwGjh+Xyde65wkPPM2BEagX1RPa9gyMIJsHTGuENguYYQg8JqRIW+9Pdn/80e1f3RvettKfuOBb/UFISm7Iv0BIxxNLwSgY8xK6S0s7o33mWH8p5WAmD+5sdpfeeu3KX7xwbiVAIkEFDPSjJSh0lrUUeiiOHugXgK60VJGYj+NrFdnvzs2i03G73Ul1BpZiJAVKFiUwYWpUijmRT2jtdkhhH1ULye2FB4GJrxjOsEIqZaLxdmixQt7q5Bs9g+OjqkhT7pMl0MDxk+Xyde6dIzJuzF3E4jrKI4hMO2utNHAtswDOQBhBuAf5P92+9aMbN+8Wki1vQmejdHo4mLIEOUpMZkkvm2fccvQ+4KlUQho3Lg6Gy666tNZ767mL379w+jxFvHQV6kvoC41EpkP72ui0gQ4TFG0ea4IVwTnukXGdX2cvHNG9AkCnnXbTthhNMHkrJivxTArMXE3aMaqmZEVHmHi0mIzJqyhVoPDAjEskW0rSTGMH1lkEcVUPo1Xgozh/Lo9INE2xj0mggePHRPI17ogP/OGkfwGLYy0e1ZEBOWO0BMV0v4yBqgC2obg62Pv7j67emJgHabdsdQ3PzNR4L1KuhSkUhTn3DAqMPoExKErpTTBZS3ad6jn32omNPzr/3Ku99hpAsVt0WqnSFFbGWURhbxHz9TwpB1o+oA5F7GeDxZ/7vLRb0E0yPZyicS9G+PRMaufRKw/zAxB7yyma/dxY8XPL/O1OQN934IIJ7qywrq1ET6tMIvBivle0Esd6xLhJ8dlbDOj02920ueqLS6CB4y8uq6M5cwGCn6iO1IhMN2cACfpVYE5oG3geYMzg4/3qna3RT24f7Mu0zPo8Ww6+FXImnUsZZ0j+YsGWB8MphIQInttuIvfv3+4n7M9ef/WPT65uACwZ6AJ0l1NEWBtsVWDQRa0wekFVITzXLyguvzMKuj57Vxv1+FOfDQbQYtBRKg3MeWTuMaq+oP+RHaiDDJO13NGTBIFi83PntLUtzzqSZ6QHY6KQOk4F6s8xBTV2+Ke2rDnw9CXQwPHTl+mXKnHBvPVRRRNnjfSxDj9KYaZJaQvwkoPkkk8YfDKEv3t/62/e+0BubhYqKbgGDFLj0sCy4EXlRMInlRVZhrZx6FFWldNRWzJ75+DPrlz6w+fPnU9g1UOfQRsjzTsQ2nNgmkmVUYUo1GLWoYpEozaqFSEwVvDzDN2+lDS+YSczgGLiWx2ehnC63796MEjSntKydCUl3Ku1Y4zCTDQUekkfpQgCgNTK5cX0YG+znfLp4Pe++4qguRaZ7Qi0ecYaYBcHNIDDnw0iH2WfPFT2Iho8dKD58TVJIDqg0ffic2+tNcYgDHsK8iU42keFAEpMR4OpsVbA1T34P370zts391ZffHMklqd8ybJWCEqEoL1JXa59UVaTpJPuDHam1dj5qS8HZ7tpe7j/7155+c/OnXszgcsApzi0MUKEB8UsR+s5/OOAIW3QiwOTKOMfxpCg1zXWObrYfU1i+p28DQNY7WBE9zdefKHa3+0KLp2VAib52FNuFU523OiSh0w8o6AVi0/B0291nk8TxXtassnwRKpWEtGahTtG3yNcHq6Nj8kBdDHi6dOvTFPiIxJotONHBPK1/nz0zSNNNOpHEgOiYegahsFvKBsSBGsNmKq1snYQ2M9uHvzww1sfDYtx1g+QlVxjfB7vlbfaGe2NhMozz9vZ9e07m+fOmOnYHOysct7dHf2733/rW2vZ+QzamDwPMEiOwgxpJWXlqVf8I0OMVlloiTXPyFHrb0eqxX2tnXCEN0O0ZcBLuLTENrJ0MB53V7q5K32wgckY4BgtFXGGge4y6KFxlIJlEJwt06zTT7g4GF48f2E1YRp14FlaPMRiUtRFHPzryFBHKKOm6AUJNNrxgjCe1ebiGzibG5JVPuOc+xBw+Ye8bp2QhWqNgL27PfrrX/765/cfiFOnkpOntg6GFLySaQeJ9TI4BtZza4UdTAcXLm7ubt3pMX+hnZ4O5j/86Q/+6HR2SUIHU28C5BVUhXemglARHEcxLGrAMX09MsWP/z0rof0u3BdjKIWwpBHUvvvyFZ5PMuaDLdudFIdBhkEqBPlG44pp3HW07fKtVHFXJq7qC3j53Mk+GjJC8CUhMqkHseMpyHF86o62Rk3pCxJotOMFYTzDzcVFE9KRi7JMEsy2SUFqnNQKZ7qM5RL+7uPtf/jgw3vA3akT264o8sHy2lI1KaUH7Z30VgTneSgYWM4yle7dunOx3x9f++R7z1/4H//se12AdOpTxdFkIjiMtoZlSw6YbpkyE9XsYVTea1u7+L6SMcBDSv2RqnPPsEeexq0ZeFcVraTFCvPK5vKlUyc+2L6nemteQlnFcJqYdwrtzDBLE6VEQgPgo/owCFqJYrDHy+lza/3nT/a6uM5bYeKSqCBHLKYaUALTRU3hqGrVlDuXQKMdz0XxLDbi0/+kOwcKDolrL1LqJJEcB84S4Gfb/h9ubP96kO9l7VErvW8mQzNst1jii5bLW7ZMnUGg5WwqRSl4ORyfSlvuzv2/eusP/+rNbyUFrAZI3Rj4FGQOqoQ0gMJomgqYDpAEr8DFPwEuLu5Ewjgg3ek8d46j6u25CRhxpnljn9R/cV8IgnsB1Wqq2wDfe+3VajJMFCvKKZFEsxBuRFUQd7wYR+rTi/3tj4TgKl9OO4q/fGGzJ6AFTmJi1VkckVo1xhssbP7292uu/FISaLTjLyWuozx5UUEG0FpHnKNVd3w3iqq4ulf8nz+9cVd37Ylz+6waVznrag18dHC37X1mmXbMM1ZwVnE+Vlx5f7qd9EbT/+aP/uStTX6aARuavZ17K2f6gU0r8u7goEQAZRS3GrUi5Rl3+HrGwMLkr0VvJo4PlLknvqfRa4FzpmLgm6MUze9u2QHnH7ZMZSIBzp/QL12+dG1aoEclLgcQaXyY+ygyQUc4vDEIpsxX28nm6vKLF06jBwpYwWykTB7Ryufd/Lsr/d+5mjdw/Ey7DGf6MUOQoJUchN1oPEZrOrY0xgATKi0BPt4e/9ON7d8MJvlq12cp4yITDn2ky9KMp0wkAY2MY5hGwYPQjrWt37D2v/uDb7+6gUwxr6DVUu32xmj/XrbSsWjhhOdzDPFGb18MklkPDKT4Hr6j8fWMYDFP9znnkhfFWJ8z2zWjwxHM54Hgovo1O+Wh/w/jETpkzz+HZlj1LhTg/HZYb3I+PKw0nbZQwEN2W9TO+uAjl8zv+PC1h9z5/ITP26gMJImAsARsy8K/euOlj/+v/9xq9zwmmMbQfBRLFXVowQTyFMEA83hXsjGLsqsl+Fgd0fiBvCWjyyRlDIjOOdiv+JkbwuC1TAbbNpPz/fbFjdWVFCbjXLeVd9w4q3WKi7qRpqJejV1Lu5qvr0kCzKPrfPN5NhJg4CCUwFjFUgtRKcV3VAUvmQGH3hdGtEfAr07hR7+69bcfXx+cWJ9KJb2XwUtMm4QrQJ75Kjidah+gmhTM+K5qdVW2Zor/+S9eOcmgIzAeEGa+QLMJzADnoV4ejIZsPFA2Y3wb5+iJ2TLmqEnYPMemuBEwMGOgkAePyA/f7Dl8L24g/4GhkRlENoZWLGkIqlG1vmHwDotELg2xiYKgMc7QMxDjZfggBca9N64sy1wpkSiFsTtQbq3geSAPZKJE6XTvaDsWPq88wfcTEDbC3uJp8ws5hDqw3SMtfuJPTD6HGTbC1MNY6YKxuwB/f+3W3//iXaNaTmSBpdYpY3B+onRLpnxqdz2vyJ6QYu8BfpMhHHbRwtiDN/TcG+EC8wIdL/FPeRCeCQ9KSmcccCa0thAKUzEp14XfLPb+9fPPvXH+1AqAdJAE0AKJk9pyJjaae8d9RfCsQcYbP7GBzc6nK4FGO3668vzypZHyFyeuc+0nImLunFU6B/7+yP7dB7d/dX+Y99dKwQIaB4NyoB3ngTsejAjtpdb9vQdCsNPrK2wwNve3L29e+qs/vrThoQ9EDlPVMK4urtsIFji52cVgYhRLDN11EaojOsbT599Ut3kF57hAaw+1Nj1v+yKQLWIxQb5QEXgxYIPHHHRA0GlshWMBrWMxBiJmFYFQOaSnhVAcBxSSE8Z9h8Fw3FvqIA5jrlTvwThvrPVKxwaiqYLzLgQvBBeYmCOqHbFu86rONx5tw/wAbXzaVQ+f9YRfDB2jhdSKpUQLrwO8vL7ir1z64du/7G1shjTZHZnAeNZu+yD2D/bSDo4PlDcKv5HPqAcM2o+3iGuAJLcQUIJkhljHFKnNX2AyGi91OpzxfDIOEHqt1Dlbbd/7g28/f2Wl2yPNHK3JsTz0gcdpFqnGuELAcYBvlpWe0J9HvKuB4yMW8GcXjwCFqChZQDPUOLUkK9Sp40H3C4Brlfvn6zd+fvvOTkiSflubqXbA8WWRhssAwjL0uJ0MbTdZVjbPb2+tePud5059/5XN8wpa84DxlJt+/k7X2utDk32sKxHBi2/inA2Yt2Q2gSbUoGvmhyJMP37JHMeZqQpCXdzD6g8yCEovaNk1P4FIpEVG96MSUC+GsvTG2CzpEMCyyoC1RidSy0TrMJkMhRDRahtzWiD1HpsT67C4/TDIkvK5MBTFRtE5h1L6kjN4Bha8xLyuTM+Q9aVOe/ny8+N7w48e7G1X++naRrrU3cuHY+uTrg6BCYeVjCt7OFrWphaoMWPmEMzlShmdiPwh2pdSO1G0p7r+IXS7/Xw0yrjYaLfddDK6dXet2/3Wcxe/c+nsBgWwphQtOBVjaGrs8R91f+Q3aByIs4fFzm22j1YCDRwfrXw/r3QGMdkcKokOgYMW0IyAqVdBwAOAf/ro1s+u3R4LpbpdEyrtKoaTS+UYs1w6XHqjmELldLWTiOnU7g+unN/497//4lkBrjBJquLrjBCHiBT/EWIeoswcQB+Hm7hnEbmQaFiArcVDcXtOOkcEjN/x1qA05W7GNz8iI25hpRzqylFchNLco+4MyMcQUMaVRaTWLOdep2guC1UJgsk0w8e4mNrJZLi63ps7/ZKyD5WpvA9oNVhrjo/UapGsm1e1rkjdffXw8Hmd+dhxTLOkJS2MYmBN6ZmWLAVoKfhvv/PGX//knR9fu2bGmrcUJAwSplrKDTz3MgoCkbg2M6w1YoHOOmgFznHs9sJzgWYR0nJmOTMcM+85Ct8ndaJkIZ3VZenHo5Zz3z518i/fPLtOGbYYgHMW3YsEzpUUmtbgPWtKqhZ4PQ481qxmx1FJoOGOj0qyX7BcT66pzCPDSDDHgatSwJDBloO3b4z+/r33r4/HfLnv06TIJ11MB8pKkRY8LXlmWRKCUj6saVVt3Vxz4+9fOfvHr5yh1HYe3DQV7Wg85YmN5dG/j24W30D6nsMxh0BWT1+w9vgOkx8tvssROR5BtLi/Lg6PoVOLI26Xc4HKmbPeOa8VGlljGfMCArgKhITpCHZ3hw8ebG8/2N3Z2Ts4OMjzot/vX7x44ZVXXj55EilxY0BKNJwGHoybOuc4F0ppajvzPoaFiEXTd4388XbzH4vNntVjPn7Fg7j7iecvXltve4bMMURmwAXuKK8rQOlhKuF2CX/70c3//N6v7rDQufic6bZ2diYd01G2nijQbeIYEiE4Jp525L7ueHDSybRqsaDRolGwQvJKYKyowJzNR2f63WQ6Gd+8dkbLP/3O733vpZPrArgJuALMwDnHAlLMtIAIgcbCecNwgwQwm1s8oXXNrqcugQaOn7pIv0SBjrGSTk/ASGcpq7oIPJ0IGAL88Gr1d+9ffeBcleqRK0pfZkqkyKXyiUxzkeQidaCFly3re2XZHR+8cXLp335v80ILdKhCsdvKWqQMKY8sauAYFLNGE9KD4nZ8B+M3RS2oZ/ef1pAZTuFxT9HlCLFIpaJrFgkB0nxnJSFgex+X6bhQh8gb/bIDlDlMJ/l0mg+Ho4ODwWRcfPT+dVO6sqysxQjBMw0XpFTXr18bjUZXXnzhz//837z++vkkhUkO7VUwzlprQwhSSqUWJgdPBNLDKcKslgig82Fh1tg5UM0EOD/7MzYcCwZHPq8BJCLqPEYPVAGKDD428NfvffiPt67d5z5vJYVVXbHBXRr1+pl8YqAQxF8OTtA3R8dLr63Iqox7gmPJc8EqCZbjnVw+XJGsU05WXfndzTN/+nvPn5K4bJyyKhFAAyEOjPGp4Iw7mgHg6FUjcd3wyOZ/RhubQ09RAg0cP0VhfumiSsaGZOzQAptCpVGXkhXPRgDvD+E//fz+O7cesF5f9bLBZM+Uw3YrccYbLiZK5lKWXDHgqYWl0nYODv7k8oU/eaF/vgXtACmbMD4xxuhk1WMKepySC1Fne/bBPfyazcEG7Y1nL+Ric+LLOcOmGU6QnhiNKOb4RWGGDk94WJWckxwxfXwAa2A6NUVRbd29N5nkBweD4XA8Go6Hw9FgMJyOy421M94C1Z9JSvJGhtj43I7Hk7293e3t7clkvL6+9t3vfvf1N15++dvnsg5gvGb6mAoc6n0hzebcCKEyojB+6B99HeJyPEQtOuQ35m2fXRSv/8xvx0KBPC8kaGSGdjRgSFemugwCDFLko358d+uH7/3y1mQoumuGrVggOMaIl2TmUt8ZW0FhLg65Y+VYq1LcC8O54bwSDKM+MS+C7QifFOPzbf0Hlzd/7+TyGkDbmzYH4Tyq6GjciA2hpCSeM4xzRGaC2GpaP6jzqH7O0PyZzW8OflkJNHD8ZSX2NM8vGTuo4dilUClchlc5JAOA/+0ftt7bya+PjcuypKMYK4M5QMJBtksucwWVQJZQetep7EpZvdJq/+XLV97YwEyjoaikrEDa0laJ7DqHvcw5J+MwXLeJP5/YEvKFnnlK12dEPJgD7mOcAr7X8WiEsFnBNeLRz9l2OYXJxAwGw4ODwWAw3N3Z397eHQ5HUuiiqMrSQGBKJVonjKEKmMoWmYohjYpAHLAtzvler3/nzp27d7eKogjBG/xYD9W5yydeeOnCG2985/Ll80s9YjDUrD7zdsT4ELXRH9UZsfgR47yFFsVQdghgNTTOSvyc/xGOkX4CQIOS0kBhQWrQyMx4BWOAEcB9gPf3d975+MMP7u+Ok+WSpzH6sGPCI1AiGUzfeDsaLWnRN2Dcp9SilRudVlPNPHjtjTbF6xfOvnnx7HMZWwHog8+gQtvAwHEaFrxUgvJ8eVofxe6JxA6FMiILljjdWRzFPqe5zazZd84AACAASURBVOGvKoEGjr+qBL/K9YaxPQ+SQwJehiphwoC6PrY/vzP8jz/7ZF/3BzKbYm5Lo2TV0ZVUugzdvUlhpWsvaRZye7C9YotLOvmf/vxfrQP0PWZ9BhYsMwVGL3ZpEBKjxeMnokk0+K0tc2Og8YAAjWoReKRzCacgBIzu6SKPgIVKqRha+87UZ7rEucCZROO5OVIRDR4j+JoKTAV57geD4c7O7mB/eOvG7aqy02meTwtjcJVLcMW51DolTMfWUlh2LA4zUwT+sNdffZsQwFr34QcflWWVJGlZVlJK642BMjcTzuH0mY1vf/u1N9587fkXVjq9aCOHyjgwg1ntRfDOWOuASZ2kAMG6ivFARCoiVGxPjHaHiVtRS+TTPM/SdhTjF+l3z0JF9h8CFy498w6tyHDBloMQFUAF3JDv+whgbzK9V5b/+9s/3XOhMDZwyZM205lBvpfnxoFQHLuAVm69x8r7st/iYEvuQAXui4oVVU/q9Sz9iz98/UwLVmmlOAPTBi+hKr2VfHlqvXc2RVNt7HHriqosOq02STZGlovGjtQFtby/SHObc76qBBo4/qoS/CrXe2CTMmQp2kYUecm0qgT/ya3Bf/rFx7dCe193xzozSgAvvR2Fat8Zz+SJwJRMvAgTP33QC/m3T66+dfb0W+unV4Jve4o/xFkBYYqwapdQNYvGA7V/W4RjQYamBGqWeAxJq3zeVhOB8Y0l2WWRzlRrhWRnZR1xuCAwGzFykHG2j0vyDqwFUwVrkRz+5JPrSCbsHgwGo8kkH48mk8k0z8uV3jrZa2HJnGNADsExsXHUi2vUxLR+NQzMsizXbGotbUqeinD84UdlYZIkIzhW1rlxOdWplpI5Xzpftjvq1OnVExu9f/Pn3z+x0d84mTEFwTljc51IENI7FolU60rvDQ43iFAYVYdzTChqjcfRQkY+N3LrXxSiAoPKWxbdUXBSYkPwpOVzgU4Y3nnGuCQ/DCgr2Pfufio+3t3+6NqNm3fvH0xKwxQkLS9Tz5UBgelPUV+mkRWraKQY22LAS9th6kTavbi28dr5iy+ekJiwuoB+C3ORcAgH4wdChFa2et/yj6/dMVXx/IXNE61UIF1jUjR4Q2N2onDIc7Ke7sSseV/lGW+u/RISaOD4SwjrqZ+K8caLqHhh2QOAjwfVDz/45Icf3YCzF3e5PgBmFEjlpTTCT7nj3PZTnjA3CpPtlj14Ya31x1cufHftbA/ytvcqcGDScVUAm1B1+2hkavFFI38B2odoYozh+BGci3jIORe8TVL0qqjRkGwerMUI+GmSMiagJp9nnKuFsoAid0g77O7t7u7t7e2PhpOyNM6FIi/zvPQepNBJkkopOVPTUcEZpZNHn2BCACRFSSmOKHPIe6Aejqo42g9HxvaQ1Q2etOMPrxIcp2VppNDWBa40MqyoOxbGTn0ohHRCWcar51/Y/P0//PZ33nj19LkeQpQNeVEKiYkB47DiMUOrDWCcM1JxgSBFBngeyA9FoIFG7Y3yRZ8F4zBZaODMgbPgXHCA+MgVSMzGbbwGqTi5xni0wLgf7JhD5fykcruj/Pb2/vWt7fv7I5F1K89LB5VHk2QmcZ2SK1va+yu95OKJU8+fOH0m6/YBE7v0BLnn0aBmHRjmgmIO/BDE335w46fvfhiq4gdvvfmdC6clgLCmJxUtEtY2f9HYmQZ2QKJ5RjR90TY35/22Emjsjn9byT2V6+LS1m4Orcz34KCCf/rw1s9vP/D9lZE3JebfYOiF5w2zjjOHNmjVCMoB5PtdP71yovv7z51/eXW1AyZB72MqDv2m8RNTjRL1h07DM+tdJC7wqEQqtuZHo01vkD7wcmI5OsVxjlo5wi8pjFRiADNFL4zpNN/b239w/8H+/mBwMDXGV2VVFGVRlMZYa33w0O32vFdaalKBEX9DCM5CqpcoUTHWy/tgMfGUd85maYvGgKh4xm+iK6KCHpXwuJtsAKKRRVzeqn2IkU8IRW5xKAg2SVW3syqkN3ZSVuMkaf/m3Zs/++mvWm116fLm99564803v3P+wnK9VOXRVM46JqRIEiW5K82UKXQhIfVVUAh+Zq1Tcl63L/IEMEmeFlhPbB4B3Vzxj8OP8+AcIjEmQISNRCzz4Ll0Ckw7e2V9ZXDx0riEvUluPK9cMJ58NoSUSjDhOv1vZTosC7kMmOowMZBZGk8rDyk6eOQ2QEdYgJuD4u1Prv/k7u7N4TQJbuXebnd1/dyS6kpMgEsKMqBXN82Cand6VBUa6+Mv0tFP55xGO346cvztSsEUpBXApKraySCDH920//Gnv7hWlq0zp3erXLQStM8P1hSTajp2VSWN6zKFCUYBQ7W9cfHcG5fPrSH/V7Qk57VWi656EZFjdHNa0UdUQ/ytEQ3r6xxGH/I+CCG1jlN2epNjYyx4hyBVlsFUdnd3f39/8OD+9t7ewXSalyWCb1WiRRnFoEBmWSmtdaIU8g+TyTTCK0OaFjVZXGuzvp21KcoP3oMIbVTh0GH6UAWL3DSeEBeTqDoEaHWQGzxANIv/8IOrZWkT3SpLK4V2LlTGJUmitfLeFuXE2ILzIBWMJwftdpq1lLFFno+l4qurK6vrK3/653+2dmJlc7Pb69dMCaqTtpASvW2cs94HJbFRgMFBZi5yUUSf942sdxxxqW9IohiLox4FMR8Whs/jgQzgMDu4gwwz05rSVB5AJjLFZyT+xWRYUU6x1Hh/DEQE4HOrTNUWnKF/I2LqwWhSJZns8DHA29cHP33/wxvj8X2VsDRNbdV19vfOnPzBK5cvpmjJkaL3ZjT+IEs6uilDZ0LexKz4vH5+ascbOH5qovwtCkJQmeaQtfcF/N2N/G+u3v5wXIzT1GeaC8dszssJ5Lk0ti11N1taStR6m5/sZKc6nRM6PdNun2hjNgdrUYeNlgFRL5aBIhIBOG8D0aC1ZVv0NZnVtXYKoZ9lCWXuE8GnY9hHZ4vBYIDGvwcHg+mkyPOyqkxZmICWD5owF9mGJMlikB5cDUQzViwrrrPFAYAzdFlGXU5Iwfl0PAn1yiGeSWwJKuyPhbLCgqLaS/rZzPIhzpxrOA4Ix4VNklZZWCkTZ32n08aA/cjSInSG4JEodibLEo5R8lxVlUWRY6Q8CEyATPnJ0+uvvHrl5Vcun91c7y+nSz0yfIjjFoOqssEzraO3RNTSD4eOmSCf/L9ehIzYSV4yqNpStB50ikNSWeIIGZVngtvpdKSVkGkrqu2eQW7AWBDknYPTmLjIGPvRQzE27VSlSaSPCLcZ2plA0pkCuxfgk73ivbu7H2ztbk+rsdIHWi6tLMvJaHLj+jnF//L1b33/ysYGgwTzcwEDG5i3PGrqaGuRAC58Prl5zd6nLYGGrHjaEv0y5XkeqjbPGbxb+h9t3fzZcFgsrUG3m+fjbnB8MhSDvZXAzvdPXNw4d3Z9o9eBpS70JKyQdwdGc6CVe7T7J5NWoh9BAgaBAYuBCDBPMCrFqBaHgBqxteh+LKWYewIaY4fD0c7OznB/cvPqgzJ302luKks4G6rKmur/Z++9fyzJsjOx68I8k95Ulnddbaq9d9PDIZdDibukluCuuIKwK1HYHwQI+hsESD8JgiBIECQICwnQrkBgtUtQ5O4O3XDIGQ7JIWd2LDndbFfdXd6kez7MNcJ3bkTky6ysqqyqLJNV8br6ZbyIG9ecG/Hdc8899zum0WgGshlPBFIGHm1J29VpknglV6AUGFs9HEdhTMXBKY2wL+dwouCNOCRnNeAvIXhuDdBNBcW9hVna4x6gy1NQEjJXIw6xSML2SgFAAU3ANOe4TbLeYNBLkjQIgon2ZBhG1tosTRtx1F0fDIejMAxnZg43Gk2t9WDU6wyWP/zg/Afvf9psyf0HZ08/e+Ktd15+9rmTaTaammqEIQuV0houGXDVJfq70tiws5720F0CLqAYsQ85WOkFbCFAUE4kFLQBToYTlrEEbSPFmgOIZYD+JbYKK8By4m9yggetZox6ZMzpxEktGipldhipc9nyIGy9f7Xz7b/59NPVRM0cEEtLHeO6LB9mpmlFODHd6XV+8uGZRalmT81VO09o/gR7V7k1Z2fNrFPthgSu10p2I9fHNw/sT8VUtAzHC0l4bqBiCg4rAjy5oO1hhSfh/IJl3/riyh99cuGDhGVTs7LZFDoJe8vTo95hbp9d2PfysSePL6qGwCsaQTnSIrcNFkb0koPvQbJcYcHOR6BsgGvRwYkZK3t+iy51iSPjQ8K0dmtr6ysrq+fOnb9y+Wq320uSJE1Tk/Pp1r48tVmWCyEjTPuxgueZ1wjkaVcdgqSKIAiUUmmaUGhV6bVvR6ov4bVGxCcoxcBZIqBAdY1OEQsV+wPLMQJ2bbvBYIGaFuonaHQ8HEMp9gqyf7YwGde5/ejDM2SsaJF2HMK24LJmIwrDMM91rzvIsjwIwkbcynPDafGQQnKWthFhrUgdz1TAhTRJ2kvSXhC6icn457/6laeePnn69PHJKZSsDYFnueJY1K/QGn3dfMXQ337lsTgqlsfK6lsDtRedQl0jeGZdBqMx1gnAC0XdVeXlsybjhgMfETNeeYVHCwbYgJkWwTZj2QjVjERXmKtOf+Ovf/rT5bUzvTxrzZvmfE9HwxxsU8GE6nfW52V8dHJarK7aq5feOnnwV985uchY2zllEmwNFSKXakiErE3wshbNrWpVH9wjCdRwvJuCdVxbliBgpQ2ZCcG9ReirBRtaJ7BfF+s1MeOYAGbMjJybCD/ts//1a9/+MM/4EycvZYmKsPNhPh+5c1989aknf/H1Z+ZpnptlTEnWxNqQIc9VwQwYGL3/wTCFpZULFgUAMFhZc5YOHeK09dnqKluhz/LyyurKer8/GI3ArFb825iNikBG5OfgLZxeOOW8vRDV2NR148brxTiWbPwiFK9tXu/CloKUY1cxhlX5jKMeIC1N9McffWYMi6PWcJgEKuYc/m1jOZQ1R5a+sb4qVZ5g5iRhFfzLfgpBJMs6z0cLi9NvvvXKe19+++QToQgx3HkuHyxy+qVSJLVaZwGit8AKQ1ylfsQh4IVFmAr1zPu+gVZjkRSDgjcv0+iMKnprhK/klm9vhy6/0SJwz/sBGPeDVgjDxYCxK4r/j7/1m1ejmB888um1Ts4b+5eOrV3pCu5y3uOMt8RMyFvpULt8cHBWPL8U/eqp/fN6dTEdwVzMGs6Ey81QSOwqCms43tIV9+xnbazYTdHSG+9pMsfgjOBFkqcR8WlywyjmHJNyIryk2R/88ItOEDbmZ1fhP6H1cDDXjFl3/c0nT717+pkFjpUWyZmJ2CjJrAZNGBeKSZgHUHuax7dCHOQZ63fMaJT0+4POenfYz8787aWMjA9pmlpr4WTF4E4byDatlFGVkU2BUNtF07iJiMaXlLYkG0PVsSt0tkLDjQulv91Ghl59xkbErcn9RIM2LEAXxfSavgnL4DO3bdHjaF6Wy8EXR8mJKM17QQB9nJQ8iiZG3fwbv/8Xf/z1by3tn3vlleefe/HpF15b9Oqty1mWM2MzdEUgk2TEBazqUhDdJZVgDXkGenW4GBEcWPIFbVInsRMEwzDgt7/d1KuMOoty9i0kpuKcMdMo6oQEPsTIm6+/952L53949qKanI2j9tVLlxq80QyVCKMs00Izx1UmVN+mw14/NSvPHGq82hBMxGyQsyzjjXZDIjZj/bmfEqjheFel7bDdCm8ZrAR+zYV0HrAWMOxNJRVWO5chXkMwlOwb14a/fekDeXB/MhFfGPTDdmzXB1kymLbm9PFjh9rYZec0E7RSF0chLIXV/Ndg80WasixjH/7tJ4PBqNPp9XuwkPp/WaID3jC585Q6AYKgwv9BSpWmWakwerQrMK9YjNuhVLbFvR3euzlZZevwFfBYTB4XVRljeOp9YjfnsHu/IIp+vx9GMoy4c2LQG72/+uHnn3/+jT/+k0NHDp5+9qk33nzt6PFGhL4JvUehYAIU+egbu95Z11q32+1G1ECHowVkjCU3MrhTYATxtllC2MLtumpB1eTqzPYH5cKe5wnBOEtOzSwU7KWj+7qC//TMWdU0KpbdpNeYmx2lQylcmmqZp3GYR0FkbGCcWx8kP/7oi8NPHjnWaDEJYxZTaFbu6m0g20v+Hp2t4Xg3BQsAtl6kCLSAt4x0IqhHzijy6hwZbUTAQrXu2BeG/d7HP12ejVUr6OTDPjNLcaTiOLt67cj8/P7JZsiYNAiPk4wGLFKBiF3OBmtseaW3vra+vt5dX+usrq51e334nOU6zw2csWCblYyD1D6MGyKoDLVw1dLaZFlO/A/btr3A5W2v3buT3uhcmpjh+0Z+F16C967YzbYRlEPoydn8/OJw1BsNByrg01PzjE8n6WD5aq/b+fwnP/z43/3ON5555tRb77zy/AtPTc3CEyxqyXykM51EcTADpzlA6rDfacRAdFLwsTgH2wQFLaUmeSz2u+DKE7fTVrJOgaS0KIGeM855yFmTsdNLi2+efOLDa+sD3dk3Mxs24sury02utOYBuWaHKuQi0KyprP7p55efnJ49dXRmJopYPmLGKcYDW0YJuZ1a1WnvWAI1HN+x6La7ERvCyKbIRWHKI9OAdBpM6QE2Ius0N81GztgFw75z9vLfLC83nnry/Mpa7vj01GzeHbYz1zb82PTsoRgRmHimRcybjahv07MXLv3gmx+lHdbpdEajxICjQadplqbZ3OyCcDySXGDxTEmBbR6MuW5vVUkhsa8DS2reKQ1v7w1Q915rxx5nr5cd9gSWH3/VQ/NYfe6ddnydNupEp9OTkodhw5h00M+kYmHYbs3Onj97eX5uMRbhj7738R//4bdn5lvvvPf6G2+++MzpE4120Gq3mWAmy50zKgyb7TbTCUwgAjsyaGekKff1VZYHrz5TozdMNddLaJsziLCFRWOQliJoK0JDewI5McnEkYB99bnn+3/23Y/Xe5Mz+671ezKKZRgpYQMtBTM662urjbRahFdH4m8u9Y9NmRenZXuyyVLjMt0O/TLeDZ6VbWpUn7orCdRwfFfi23qzD7bEOCO/fo3H2AVcM3BEaqy0YB0L3DGg0Fwd/OCLCzxoh6yZrF+enpnbF01fObssjdkXtqPUNBn2VeksY1HEuMuy7Btf/+Ozf91jScPBUy1oNltT7VYwE3IuOutdTF2JqcZoBnIERNfQoYqJPZEbkAGBY7PRaCoZDAYDUtn8m1a9bz6k9NZm3Yff3u/Y2yh8cR6cbzRs3MsqQRprq53pmcmJiZaQzSwbZfmo30t0nhxaeiJPdW91JEV739xx45Jvff27f/C1P9q3f+aNt17+O1/9maefOSiDIE2ETkwYChE2sFQIwHfghrYGgAkFufpXCf+228TJDdBZmKItN1iToAFXMT7NImHZ6Tb7/MChfnJutbO+OhjNHj4yHKWwQ3BndGa0hh80OKZi25w/s65/cKEzOzl7WLBmKGU+YGBVDh3Gk/pzPyRQw/HuSnlD07HFvibjyEuUBRIKspVRPNFl7MyI/eTytfPro/l4zpxPjvOFIInl5dESm5jUw8AkTQ5HXGtYEEbwIA5lMsw+P3NufvKUbExYU9Ct9ddH1g6tdc1mi15GcuGiyTHW+YQESQI2TSA9AkBwnmdGqcp5ySuGlVY2pozuRDAeZXaSskxDPBXlj01/wY7vP94xzvslj63qb9KON916tz+uB0R+7NixPM/6/QEiVYei2WwpGaVMp0MnWRRJBS8amyseTMTxRHMuHyb/9re+9Zv/8msHD+9/5903v/Slt089dUg0WNJzUax4SfLpQIsBvmFUuRpqyHOGztxmS8j3j8MIwnM0oqC4D2iDy6yViWBvHjvQM+LbX5wNODhJsKsFXiGGOS2llUIaKa0IRHvxUrf7o0vdxZnZyQOIdRsrS2RzftPfbVasTn5HEqjh+I7EdpObCN+AHITMtHnK+9QzlmQ5C0QbEUA+X+19utYdWDmnG/3V9NSJExevXVldvfL8qROit9I5+/HU3HxPM5Oy2Qbeh/56n2ditjXXuzyIeRiFcRxGXn+kEHNca7iuUmBhKEicSGa44EliwkiEQchDpMlzTRwRqXcHvq4dvNrKcd2l7U4AAjygb3d123M3cB0APYTkiPrsCSSx0YFcHG4z+23LvOnJEgvx1xeGb1AwKylFoBQIQ41mUkZhEORDg0BPmOdQ1G0RqCBQkmUjvjT3pAxcf9D92m//+Z/84fePnTh29NiBf/iPfrnRZq0WWI6Rrwu4f+d8UYUAb2w8umnVcdEPUvBthxJOjHNWWDe8eqk5d6iVspOT7OL+pfcvX0yjxsXVa43mPMRsUiUQSNpypq0dZnmzNdsxo09Wh4eu9Y7OT7RDFkvBsiELmresQp1gtyRQw/FuSbLMh0yC3quClC46hA3B5LlWU9MDxi4n7E+//6NscSmTxmRirrUwWB3Gqrm0dGi11w91Hk1PDgKRKhYpcFq4IWs32jYLRCKaYYPDGw5UPZuKxA/P0U7FwqCYO2cRXZlZYhZGCiLG9AfFKtm4PuyJIGjTB7KS9PFbNrTW3uxbECULhBb11SD/MtBR+o83OPhsq+/qQAhsGIFVhT7+gDEWhiH88OiT4QM6DLJ3V5p72VwYWbhX9ilb315q/5guXaW+6QFNJujW0tXPhwvFwOAzC4MYmxmN0zqHeRZWYDgXwxwvQTJkrMlTEwdzJrVZogWba8fTRuuP3195/6/Pf/Ob3ztwaPH1N15+90tvHT6qGIczYgHNMFdYWH+xext7zLFbEkZ/LL1eX23n4CHj+6VIAFsxue5gERnEmz72KOe8OTfHuj0WTDQD9tQSe+3Jk3/yxZmGzQMHq5d2CfY+K84RD8RxLke506oRzc1/tLy29Hl+8MnZUOtmGDHEj/UyQY2qivkOvb6S9Zm7kUANx3cjve3uJZTz2yNKZCZPWCmDyelUBgljH52/yuJmJ8l43Bj2CdasTWGSsErkuci1NF2ueyxUtBkaJGKWqTyQOYUS9i9doZZ65a58e7e8xlBFN7YfjGuyIC8vFVv/jtE3UJKoHqB5A+DJBl29hFWD/VXOeavV9BwUxhit89LC4MIw9NhagDRwDCjjld/qkj+ggsa3h6DYUvGryrx3B9WqGqmakGjlS0iDHHjNaKhzPIwkNoPQkAVYc8zQD6UU4xLkxdCpWSCdVcRolPc//ODCxx+e+/offPvwsaXTz558652XTz41gRkMFn2Rc65Ta3UQBhLMyFVlUEq1nunlGQSl1YM2OjLjt/JBMqWWTDq7Y3CKDkKsYhjWEuzkwtQXvYnV3iVucioUIwGI7/AUyEAqK1Vrarpn0lG3e2Y1u5BNz4RtxnJsl/SK/L0Tf51zKYEajktJ7MpfvAuEjPRW0QqIYEw6ji0brqESxj7r6R9++JGO2mvrPd6adQvNhIc5s8PcZiZRLA3tMHSDvsx6DHwEhrEQ5OBM5IJlIGvAfyX8VpA6Vv2Na/4thd3Ef8q/ZJwlg0p5hgAXr50H5crht9JYCTGrBEAKvzCoEWADH69K+2P/02u+5NThXTsAx5WW7SF+HOi93l3lQIh/vWpcXd+tAy+CyuhP2FOIZQt/G7bdZNkQPoyMc6lgpCCmDs7FKElpJwfXugh/BbWTudmFfc2spU0yGiY//tH7P/jB9/7Nv/3/5hbbf++Xvnro6L4TTxyZmGwEKtDGZnkqhFQC2+C9WPxI5k1SN2jtRm0JxcGNWqj5OmegdmNmxBoBOzXJrh1YuHxteTkfGR64wDLJcmtSYwQLwkAM0tHkzOzaes/o9Iu10QeXrh09uo87F2M3d/25TxKo4XhXBQ26AjAoWgc1h1gJQE8Afh+LmJEjxj44f+5Kp+uWpkIZBI24m/aERJRhzfJA6VbAm1Y1g4YEk0Gpl5B6nRtmYB30xld6D7ev+8Ylv6RXTcPL7OCoSrE/fMpiKuoVXoMAFRsEFD7SsHcBrqDZq8zwbZZSa8PBjwzatuobm5XB4YvPGOB6jbvSuzdq76M+e12cvGgL1ZiqVI4YG8l37wgCoPyrg0rLxEFR9FgTrJCWKICUAcM94vMZg/n8xOQ0xjf4nOG3QqQRxDm5dOUC47mQzrp0mHTTvJdpnpneP//n//ezLzz17ntvvvDi6fn5GR+VFdKiPZPjI5OfQBANE+E02XkKI0/oY6GipuTmjq4gnw2GkF/w38AmooipNmOn5ieuHlr8i49XMmFz8DLhsdTOhfDNtGm/J2YmHMujiUbP9v7m3MXTSwtHw0jBtWJ8rrB7wq9zuk4CNRxfJ5K7OOG4s5K0RaekA3E8oJlxLVjCVceynmDvX7zg4jDL9UTUgEkZgSq000bnI5lnkcsjPQyS3j5+apK52BiJOEkgJEilyySFz9nA2/G63ujsBqyUqb1ejLp5CPYzYgJ/boyTEmpspSBXkOoT+/NFLFSlmtDgN9kWx6kyxzd3+NvHlxD9GV8NrwNWwFephFWacjpOjdhAz7JNd/iX4o1sutfPPGjqX0p0zCJts3wUhUoGIpIB/F4AxUBRawfGmSxPknSYZmBkC0B+JyzL4ziYnGqBXHn+mQMHF06cPLT/0MLC4nSzHTVapGrTGKANvBMRV4oGMz/4UYAo+CwGQeCF6Z1kKrMPeFRp1CC/OaA5jeKcxxSE1jgZgtAiZmy/4K+fOPzRF6spGPqs4zENGpblVpg84tqM1rkbNSfjUaf30eXlj5eHiwfbk5uEU/+4txKo4Xg35Qs+giJ0OxZpCrZ0ok90gvUM+3h57YvlZRNPra6u6qDthoMwslHAI0TrMW0lp4SYCHkk3QkVLIHaIoddDxxubKhMFgqVcXj+b/14zC3xo7xK0LJhi6TTPg0HFwRpy2SlhVrnb0LAadJz/cKRV3I9SlbIWOGCN0SU+SBnj8Xjyt2WzXXjWVXgW9a3GB7GC6pU1CrNbh94FdiLZQyLySLkyJRkVwAAIABJREFUa1J9c1B6Yr8KMyzNEx/KBJqp5Ktry9g02QhaU2qu2Z6YbE5PT7bbrePHj83Nzxw6dGBp/1R7siAeAmO/wlpBkuSMO5pVSCVhW/CDkx/tqqGrMrj7A79lhtJwJkDcB5sJNtBhnQDLgkRy4ruXYbnRSURNtCej6MS+2eHasJv2cqNdGHEVCA2++9lWlI66gmeO88SadJR/fKX7zP72/PXP2m53QJ1fJYEajitR7MIBLXTTTg8msWZPEEc7MwDSXW2/+/77I+aCOG6DoXKiEUg+uDYn1WJrYl+zfXhi6vDUxELMW8xIM5x0LLMmYG7E+EiwYeTShnB4f8dfka0Q7MFxc2OuS+Nd4bxWhUU26MJELiZhE1WhUsoDcYWMHia81uyPvYGYJtG0zDXmLEGhRoglpzRWVDeOOYSM2zEqQrWi4lW51cEW7XjLmuXm9t7WLw/HXqekb9JVEZ8Eiq+lsccr6/jZaIDp3ViEX07T1DkbRCpS6tkXTkzPtPcfmN9/cGH/gfmlAwv7liYbbew3xvJbSf8GwLQsy42EnJkaW5rTCKWHxDRSYp+7bwb4mrPMK8h+KU+QW4sfFDkHXTQt126s2VoEaCF+N4jJOmNCrgO4ikTPnzy2fOb82UudNM9EGHMZCGGFs3Egkn6/ORVak2J+1Jr47Nr6+5/PnDzRuC1p1onvRgI1HN9SehWW+fe2enurG/1cFooVuRkJWhUq7cbkgAxKmsQlnbVzP/2bxX37ZyeaE9OLzebU4lRzqfnUdIC176ZFrLMJjgjDLJfg1jI2wLaonLhh8EKDyM1PTavCNx1s9rIoLtG8e+PY4w6cq8j+WLj6Ckk+FTBcIsySlDLPOfmxwRWKfKEKP2oCK69NY6WLAMIjF8qoLBUFgI3N8ytgrZRiD6n+J31XdhUgCynsY8v6NwTgUrEttEHqIBjYq/M0P8Av33cVkz3IKZ3nQsNFz6dsiW+TgJgb5wz8z0D1Aap75sxypxc3womJiYNLU4uLC4ePHjp+4sjCvrkDByebLRa2qBDqBzRdsKCF1dgsybXOZSCjOGKShVIiKLjfuF4+X0rA3kuTCYUopxlinQ6Hyfr6eq/Xm5mZaTTjdlvFoBHlwknkz62TYPOntpGXhit20KWaBQqE/EZrLmwgJfmAJKcm4w9ajYY13czahrNSpaGSThnLEu3mookkHQVBszU1eW2l+9MzZ/7DE896f0OivKMHHGL08Uw9O2i1VAzbnF/ZKB63+s9tSqCG45sLDLueK8WpWCShO8qXyD+ZlVcWD1iDNEJhQYBJtG4cdG4tnTzZavx3/+QfWyFlEIWYQhbLLkQQnwWChUwyJ5OMmcy2JgKTp6lNm4iOIxtGTVsluoai4BWrZGNVh37q9VmvOuV5LqUMo0DrbLNfMN5lznkEOrLyU75DjlmphDaJxv5uICQ5seGIcBUxRrIMNPcICy1ElqVKUWz4Mqctf8chtERhr/QRXBJoFq84R2xTckghK6jf0ABwKVG1INooBC+lHCW9KArTRKdpIqWwVguEMPL5kykGOEUc/KQ+Ggo7QtQdRuuRY5kQKgqn4friNy3a3LrcuZwLa2xqTJbrkTZpEEhvcJhbmDnxxJG5+emDBw/u2zfbmihL44BO50ymsWonib6pGJ1ZyLgMVRBaZbAPB4UKCQ427Je0RIhJUtMZXJKTPuv3Risrq5cvX7l6ZXltrTMYDLIMnRhG6sSJY6+//urRY1NgzrYsaIjcIAotQoPbzIf140xqa4Ig4BSaC9FvVUhWGBULGTP2zML8mStTVy9cGEXNcGGml/HlXtZ2QXPiQNI1sYuVFcKkqhFe6qx895MLX3niYGdtdWl6kmcJBVukQNjEWWgFxTEpe10wB8v3xrtRXqj/7kwCNRzfUk7Vw1Xqxf7Exi//2+tWhGLgf/fRNSkqHHxU2Vwr9uoh3G+pTMRQNjYMA1pOMg6xHoTgDdkQ4KpgTEQRSzHZhA7kbGBE6BRe8u2edzIgFh4OzjmKSyeCQMZxwEVhTPDL8R4WKzV2c/u9UmkxjMAkUjXVV7lsc3FP2fDt6rM52/JX5XIHfPRl+e/KSkApkcyXvrnEApHL3Hz1kBOhTaGJV7XxPeIvsUazkabYF6OU0Da1Jg0jNjHRuHj+koTR1uV5ok0qFWu1o0YjmJqemZufOnL0wKFD+xf3zc3NTU9NTzZaLDcmjLG8ig81Is8z60wUE+E0k9Zo4m0rFNZBpx+oKAwjJrkMA99osM8Thg66bGV5dWVlbWVldW1tbTTIlq/0nJbkrYEuEEI11HwrRFd+9NGH3//Lr/3Ob/7+kaMHn33u6bfffuuJ56aUaBibW2uECOF4R59kNBIijeNY0RZH7JqxWggQ6E8zdnqaX9q/eHl1+W9Xrq0PExdPteLphgv4INWjUc6MipmIVMbtQPAvOt0r+cGJ6VnNWRTFGHZGGSYVtFtvvPPK2dPmLvMVqr93JoEajm8hJ7zNeOu2PmREFIB76ZUsHkvOXK4zeIAJBHsA/EluJea6xsLjAqdwB3JTtENOZ0wFHFyGzuocG7yUaAQSSz3Qmum993siQM0oOcXk9Di4qeZ+9UxKRFTy7r0UP0laq7EVltTUUj/ddOMOf3jjAyW+rzRDpYmjwm6qwjYCuFE7CJS5XVu/GkWRMbo36Deaamo6Xu8sf/xD2I4mJqfnF2ZnZo5MTU0s7ps7eHBpbn5qYXE2jmWrzQKKCgp6Hiqh0fa+EPhBW9Idgkxzlo5ydKsTUjZUQGzGlL7V9puj4Tmep6zfS9fXu4PB6LMznydJNhgMh4NRmvq4g9po1oqnsVdGcAr/B8ZMa6SzApgeTETBlNbp52eunP3i8p/96fem5ye++ktfPnRk3+EjB8KQDVI0ttWWk60pUL1axG31UzTBrc5TY1zowv2N6EuHlwKmj6+uf9YdLQ+6LMlbQVs4LmPmlMhC3eHpuhnGLvnJxcv7J2feOrW0YtisVKFUWrJQock+zkJhoMCChqFKF4/3jfqjPn8TCdRwfBPh+EuEtzgkRB4Dgs0XfGIXKK/8grarsKThxWIBhQKmQD7aWzPofRbOYLqKdR0uVCicYnnCkhFWe2bmEKoZ8R0UInhaizhAm0OpbVS+gmMlYUYg0MdyEG3X2DDpVjdUK0XVmR0eeHy83jS8w9vvVzI/fPqZBAwXadaNmxNRyJN81BuMmhOzr7727C/9Rz87Mzc1OT0xNzc7MzPdaseNBmt4+2/V4QZBBxFzmmI5mzyFxRajA5bGOEdcACFYFNJ+Of94kDEpGbIkYXmSd7vdlZXV9fXOoD/s9we9Xn84TCx2XcN12TlGzBiREo0wwiwIwy62SsOD2PsRO8fSxErRmJxYcM5qk/V6nUsXOhcurfz1+x8vLM2dPv3MG2+8+uJLp2bnpNWs07OtNrajM6aMhgVGCBYGAQtctrwWBrNHwiA+efj5k4e/6GUff3F5eW1w5tPPg0ZLNuKBs+s6GcZOzTZnl6ZXP7p0ZqXz4qmlRGM7EqIfCBUEAnFvSR/GCTzohuAYRzQfuV/9/GiVU8PxDvoTcLpVO8ZtnvgFbyBUYZozwxzsjaGI5OyXWBCqtNAhGJPVjBK30UpVNmJJliVpfzgcra8Nrl7uddZ7L71yenJ6kSwGXAnlFCk71ggs0m/z8YYIADENB6AugkHU0eZd1AP1LabzdK083iav7U49KO14u7rs8JzvNbh9M2aOnVj6/ItPwlD+3M9/6b0vv71v31zckM0Wa0xR3451r85cliHgnlTe50/ABlAkgBuvxx84j/k5EynuJoXld9Bn/b7trPdXV9fX1zrDYT9LB/1+r9vtpmkmsEVc+fjcMzNzRlobYL0Pg67vMOvSLMeigsQ+IgyZxbMHSiidi35P53kWBKrVWJidPhA14zPnPht0gn//V2f+4ts/DUL21NMnvvoLX3nr7eOBZDnGfWy5YyCUg090f3V5dmaasSTKhjNcTgcTByfCZ58+MsrY8NmnfvrJZz/89JNBPpxanIzbrYtJ99ML50+LqSuDZAWhvmFNQ7gmIZgGQaEXCT3ZFjvHnafPGFNYdthRdbJSAtu/2+XV+m/1mtK7fd2TRnZKb82gFSSsHeEWuKIijr1/daE9YJMawbdjeG9HI93v95OhWbma9LrdlbWz/cFammaDfrq6mnQ7vWPHj1izyLFDlfAeLq8GLg70ub5jvCGiUF0LvPW/SiAZw9/xLR7XZ7XDMzeqyQ5v32Gycgi5TWOFXxREGeR8KLLv//DP/uNf+5Vf+7VfPXSUnnlvZaX+0SbV2sC0CuTiKuYqCouhsqwlKbPaWhPD0Q3OEnlmkpEe9NNed5Qk5tLF5eEg76wPu53hcJBmmckzY0w+Pd0wOmM2akatAJ+Q7A+utz7AcCyUhKN3gB6BccG2W010GFRvjvmQ9+owttmM46jdbIxSkWLZVptemq910qOHnlntrPf7XanCKFDnvlj7Z//Hb/zv/9vw9TdefPW1599863SgWH+gh6Pe7OzU7OIhlg1gMgtUrI1jScBkW4G2qM/5M2+c/LtvnPzJ2vDrH/z4RxfOtVrB4bn55MzqxUHy088PPntk3o/qMhA6t6rksvCDXkmGV8qr/ntHEqjh+JZi83BWgBqg9jpQhgoD7RjBNHNtMUuEH5l0lmFCmsNt3xiWjLJeb7i+1l1dXbt2bWVleWXQz3UaZllmXEcFrtFoRGFrcW5ufsbozAYSjg7GpRR9D04O5SrgDetc+KLSkECbmMH95iMlV/fcjQW5UrFLlKxyfagOPET4LqNt6zz7z3/9H/3y3/+Fg8dUOmDdXm9haQLeh920PROqQHi3OmOp78gTRedoorUYWYWA9wLAmgXXLnVHw9Haamd1dX1ttbu62llb7Q0HWSOe1DnLsVgolYzDoNWMA3hx2FQRmxJN412aGEP7qqen5gh+aeS0zBqX59aYfNDvYYYjPLdnJAUQXETKb8ZLk2w0ypRSQRBEYRxwfv7stTCO5qb3S8WGo2632xFYjZz+0fc//PNv/2WjqV5+5bmf//mvvPjSUSlYv6s5F60otswVFMwmM8mgEbejSI16qUmS52amnnrn7R5jPxx0PjzzxfCgSlc7F8588MKhdwzCjbiQcUewgaeeZoJknRB+JkfvwkP1MOylytRwvJPeohfbo/D49/itpMIyXtoiLEtGttvFpHVttTsYJGc+/TxJ8kF/lCSZNQxqERZs4lhNNZRjqsEFACBLbJaNjNFSYLVEcJWbEZbHUQX4SxhQWWzz8boqvq0nLAL/jFJ+KQ83b1nNu4FnxTY5+1NjuvB9Xcq7YYW2v3Bd93gWEZ7/F//074N6TbNogi1MTKQDLbhqT0U6NyA0k4E3MxmK18E58NcaxITtdEYry2uXL1+5cuVqr9NLR0mWZkmSGu0ErKiR4GEcNrPUcobltkDFcNVwHDEJk0zB7IDR2tsoOOMh4FUO+gMwqmHChJ7Coi8GWzk5OUPOhV5XhoeFsZo56NDWakTGlTChCAG2kFzbudn5Xr+/trIexdC9281pxzJuXZZkrWiBWf2db//1n33z+4cOH3jzzdeeRSTsQ6llw8wJ4RqhwJKGGNg8FzZvNOKDzchJ1sVszr3Zmnrt+RfWGTvz6adXP/90Vllhh84YFbQstpgEjiFIIAiT8Gx5piFvv9u+b+qzt5RADce3EFGaZVEUOYvJqXNCSa4kgnSQ+yqzGR2QoSLp2W6v//kXFwbDZHUVrkudTm84SDSoCPjExBT8lthEMyqNj2A6UDZX8Bs1mclzLmUoQx6IxCaSBxa2PxfQ3llYGgT2ZdA01oPOpppXTIyV7dhYwzVQ1Js7dqbPuhwKnhPgvLFaa+wHMzwI4ELnc4BzCBdg/KVPlf+m2tzoBypeVb6yP+AM1R9rlRz8D5boOrXnbaDMqsTFr4p8EuwNSjkHvkhrbRiGa+ud2dmZwTANIzlMUuP6/9V//U+4YM1J4XSaJ7lSUdQKKFAW/FtgS4D3Loyi2ZBdu9ZfXemcO3chGWXd7qDb6Q+HaZ5rZ8Fm2Yia3DUbijbaYZAs/kXwV8SoZ01uDVltyQRc2ulpRPR1B+mQVVKQh7S/vRCLkDzLR+SWgfPwECefSeZYFIWO5dZmUnGpGBXBwlAlyUAprsj/A0MsylEmt6GaxGqDM42w4ZxZu+Z+79/91e9+7c8nFyZeeOXZd7785vEnphOBfYBR0GKK6TSXOsPgJYMpJaYE144NOZtj7NjJk/LkoYAlscDWPsmGjCnrhOVgw6ASmePCOYHZhP99owegPn9TCdRwfFPxMFoJYSwHLyyPIzzszGLFRmCqm62srHTW1nvdztra2srKcq83YCIENGCzlxAimmhMKBkKGQwHCS0ByWJOh/U9zPq4k9w6xhD1mTY5SQ7SNg/Z5cNeYBiQlWpwizrfi8t7RTtOsxH8rGmAtNYqJednF584dRxn4POXBzGs+ixn3XUtBHajrXd6V69eW1le6/UG3e6gs94f9Eet1qS18LIFA6VthghVgv+58V4r48MDDTCwYVX/vJW16q7KB6fqGX8LRbYb61IsEIByCrYEdDWWIsgIgMw11iS5IbMYwS6MBYjGRJlShsUqMtYq4PKBCvklQlSMBk6br8nf+1ff/p3/9w9PPn3sK7/wpdffenF6VnR6emGGPEP8fqYcdyrHJiVLTVdFri14TJGfcIGikQvwO6NsX3BJ31eQyFXtrA9uSwI1HN9CXLQNCQ827aZl3XX30d9+cvnCtdWV9TTJ02Gap1iy8fs9jA3CqIlNGFAWsNScpnZkU2uzRtwqXi3yC8LLhj3G2HoqhGNOWicFXKY8xxjM0BXy+if+FhV9EJd3pnHfz5o5Y3Ip/WZCm2WaSzY/P3fsWJs3mNWpY7nk2Gj5wfuffvbp1TzjqyudwTDp9/qjUeIsV+CfiCI5nfQsts9xpQDDEiOmpYcANlcPrxRzC4jpAZSQDLi5cUBLCnJjPlBIoupP7464MeiW4EYLFEUqj7wwH9A/0ru93bd4QAytZnjorwjqYPcgjzM6Q+M43Ngt63x29fjS8eZMY/ny8v/1P//Gv5j4l8+/fvqFV5557Y0Xmo1gqiWbCl4T8KLAmOIWGm3LMqYHNhsJk0EzDxtcRZAFlA48pBUie36A6rm9nx3/aJRVw/HN+9FlecbB66s8PF65cvU7f/Hdi+evTrVnGTjbKEgZDwKpgghbYUdpDrdR2gaCt0oxMIDBY75c66A5Kr3SiMUOUHbQhjz+Ft++UsULWTzeD4k7p4fgMWX55gK8v1c59tRIJo3JjdGOaZuniKNBmp/WeRBym5thf/CTH3/wtz+9YE0Yqog8fFWs4PImZSAFmDFpqgKLrQ+bwR2FToLbd6UdE9h6GMQ3HRWLurTC5UG78FTbuRw4XOi2QPgm1dvn65+KSh/3qnCFhGTr8AN/Nawjnik7feL0qNtdPbduJDs4dUyH+v0ffvad7/zgX/w///rUU8ffeevV1156/tj+ZoR2Y/dTZ7mnQteKQhaFzGlUzHHyxPbL16johsEFm76rOuy8yXXKQgI1HN/sUXCMpVmmVBBHAfQjCu3c7w+VjOKwJXnIrXKGGW2ttrnhJkPIHfBcIBAErBWci0AKJnkOqgf/8fY1PMb0HGMDVqEgURGw3xVA7E8jlb/iDx6ITjqGvxtLefehJmUR47izFaxKwQKSlAJRSJbCG0zKIINBXsLEL5jWOmw1eY5JSb+XWxPFwVQcgr4O3tmMZ1meZXk6yqxNgiCkPTgZ1lPB8gGeCYUAeuRdCxQqFWFffOldg3EXHUtcGTQGew5iSrXRr+N1ro5pxPUueD7/6grtGgeykxULtqxiFoV4BAV2VzhIpcOM66ESDUBGtJh78fK5WGAKoITMU8Otmo3nZ+bn15POmQ+ufPz+b/3r+N8cPbDvtRee/9Kbbxx/ohVEkwgq4gcIl2NnodHaWdWEAzUtRZK1Bet6tCsPmF9/7lACNRzfVHCctVstS497lhkZSdp4yhfm9nVWB0rYUDSUCIULaHVcOG4bzdA44orJ8W5TmGe8CkGxc7Z6ZwoE9n+gchCBzhgQj1esuAuv/PjpB3H8UGvHsJAaqZSGyUJEcejYCEwLtHUMO84JHwUPrVZxON2Kpwe9NSVBt0RhUlkgZNgADU6xtAjvB+yPhueAEIwLU2i742OmB1nCR2+0pvEVPYtJD0Fn0VNb4Lj6WRyQP7hPT3BcKMX0jCAfv/DgEZmGcmAx2lw+CP4A3yW7a3UJSazgrYWWy7XJER475DCd50OdDHUrnrLSaJ66NDt/ZmX1wrf/6k+/Hzejf/CP/5PJqea+2dbcJOMqAAFoyLD27O3bHvJhyLPCaYZpIAXrKytU/70tCdRwfGtxeQzMcx2H4Hbp94eNcKbZnOQ2wKZmq5wVzPLMYK9AkidMWO+9hIjv9J4LIUajUVnSOKJiEY/U5PJFwhs4nqC8qfw7pqWWp+7L37FyN7Tj+1ByiTU71I5ZrlMVgqFNqQD+IY7Bb5c0Nq8CpylYgHTOjZbDQT45MWlNQn4acEOhFuG72Wx6puPSZcVvwIHOvbmD/Ezdd5mnAy1cLCiryphbiWqz2lsMvyVoAnM9h6pXvb2G6+9VZMSgrYCwZlAp2BlYMT25khoU91oyLCARrNvAZ86Z5uxitt6IGq1WQxnpRoalOmAyEGE+skYYkB9zxVym03y109Oi99/8t//LoeOHX3/x6RdPnzxxZGF2OooaqKNfxPMbomGGc7kAE6xjbCO4atXm+mCHEqjh+GaC4o4bZ9M0bTZaSmLC22g0jeYml9wGVnPjjOQsUKESAXPSOJPbPiKsE6R6hy0fu2EsBnD57qFk4bViqDgwUtBSeFEjesNJF/NWOlK1PLOMf/nH89ncig2tis4jk519NhKWKFPc6y9U38VVwi+PPjvL/6YjzQ6zuHky8KkR0YcDnVOeZCPjtC8210bGYZJmirdoI4VD5M5iq+NG6FUQHFs7GAwocih5BZO/AAYkzrUZ9+Uab3spnA2J4QwmNJs6anyC44fejQF4bHlg7BANLjO/eePHrlLXWJRdxHlBJSxn8UQzy3Xa74RWNXgURiEC2ORaBTC7WWOFCCTCwcC/J+NuQorL5zu//ckf/e5v/8GBxckXnn/qjTdfeeLJoxMzwF4usJgHwla/Z6ZYoCZrSdFsqjke7vJDUqGbaZzYNHso0zyuf2s4vnnPgzqmBS/TrNVWJsXjHQdTzLUctokikI1jSc6S3ChuG1j2KVwjfLYAUkmk4huP41iBBLbMcucE3P5pu4Bn5qQZKCbEBfAB4S3n2DJLiDyWCakkFEICflNQ6cBOTtupKfG2JW+6f+MHkAH3+h0KPignKWIgU4ZzCYAJr54HYs/AsHH7rY/GK1MpvDhpyFcXNloh/N5CP4yVewirxFRG4b7lVXZHzEqkszseqEY6MoIHXIjcpCLkLIBWqASL223G7NTcTG/FMZEzpoMwzg1CZwCqQDLiq4c2cvC1Y8mqDMHqbQ+eMKdqp0dJ/9Pfu80+iAKfq5u2HmyRSem4NoZg5PdmKSourZUhPC6N0Si/cjYjEwUyR4YlB+iYMo5t14wNWcAjxHGCZzE3TnP4WApLjhQS7nG4BTYaP1cYJXPtycbcQp6NVi6u/dG5H/7ln37Qnmy89e6rTz517LkXjkzOoAppqsNI8CBYu7o6s7CA6tGoJlRgcpiPfGuKpuJB147CmHEekta/VSiP5+8ajm/R78VYXsz4vF+PZC5g2Chq4AuPB4t8oFxEWkyx4nyLfP1lv8e0UHm9IkVPLEodf9XpNxi0fGzK8UtlRpvKq97wSv/adPnGP0jdK1alPK2oHw+21AdrOPTWX1+TG+eNK7eb/ua5bXMV2Ar8wzSaZh6I4kGS88WjAuSi5dENfHrehXGbvHZyapsGVcLfyf1b0njrhM/Bf1MB5DVNEi/XgX0Tcfe4QWMst2IQ2FQ/moBtpIF26uVBfVleoB4vCnexDEXutMXqXSinnDDMiGwofvtffT2M3f4DM6+8dvqdL7186sklDGqZm5lb0EPW6S5PTbdVI2TG5GmmcxbBV2O8/701phpCysIf7781HO+x/odaOmbipNqPaUB7rDW3ri6p4f6lHWvm3SDercusU1QScCrg1uYmw5YZuAxS0JlklFsTSh511uwf/O5f/v7vfvPgoYXX33j5+RdO79u3MDWt5hbnGWfZMAlCFbeao8GI0baUKl9yEfE+GJsGjLEEj+NhDcePY6/fWZvJNICxwEOktxSMKzx3lm1910MsAeiwzmmaQJBvCdGKWuOmJ0Fa5Ix2mqcZ/+yTzpWLf/knf/SDI0eXXnjpqa/87BtBhJ3T1jipXBRTMIWqnRhNBfZGYpyt4biSyw3Iczeu10cPmQQelHZcaqmFOLb8vHdCKgvyqnGpFZd/7125dc5eAsZo8APR5hdaUUB8KykQ2XHQHeTaNBrTi3MHhWCd7trZz652O+f++Bvf/tY3/+yr/8G7v/B330zSkQw5mOC4ISeQCny9D8nGMmYtcLCN1FKoJbBDCdxAO97h3XWyPSkB4pMCVytx1FlrODaOy5AzNTW5wJgbjgaXLnSs1e126+DSk0yMrL761z/+JNfJM889sbjURuSqZBjFDVKHVWGm9gpyIZJ6dC0EUcPxHntJbqQd3+u9qaWWWr5Ahf36nkuvLLfWju+5qLcrADsbsSkGu0bgjOnDkIMqug/6fClloxEfODBlren3e9eurs8vTL3w3FuD5PKnn3x04fyVffunGHdwgsZiOKfQ2d47mxYmK115u7Ifw3M1HD+GnV43uZbADiXApQjJfR5xWskRG1x5zpmFxdnRKBkOB71+kqQyCFQQiqlgam21b2w8TBOds4n2NJyeHSPmfu8TQhx1VeG1raISBR3UcLxZHg/NLylBPVY6URSBIlNHAAAgAElEQVQLZgZOsH49emtFcYkzAypdPPeeXd6TApMesjX9jX/DJkEe0OAzpleRWGPgbgznaLA0g0i3+FBBO59sjqtDRIRGXq7eT9ZvKPdOx14p9vFYN1W1zCDLwMMvpcxzVIYiaMA5+l7PEjZV5pH/4TjcwZkS4L2HAxz1C1jlev0VxlwY+c3iuWOZgde2bDZbeaYFD6cm59bWOlF8gIGj2eMMJd75w/LIi/e6BtZwfJ1I6hM3lUCJw/VbdVMxPSIXPWnR2Fbvcst14QSNn2PDqgsZK73v4dJMtNMblM1j+Twi8tnlZtRwvMsCfVSz21BXy60cpVX3UW1x3S4vAeKG9Qtw2FpH2zc8ChdA7OG43I3CNaUdcxIHKIOCmqZ4HqAp53KiUwu6kkANx5Uo9sYBQPABbQPxRoxxMdWIPC6NR/R4g4SIsNj/JPAt0NnPk0pwxQZuirzgERywLLANGokrfbkwvpHE6mnWxoNTw/GGLOqjm0ig0o79NhBvsrhJ+t26VCJ+7VmxWxK9rXzA21HcUIBvtUPS7+CQpPlSEtAVIQQW4+ADKZnkPIZvXvAAdJcoj20gJZTfVtUexcQ1HO+xXq214z3WYXu6uoDg0gqBhlSeEBWGelOGp7nghMWGgRtIb+C4l0B1q/8JcwcBPfccI3taTLtW+RqOd02Uj3ZGpZbqSeOgHN+f9pYF1drx/ZH3llIc4qUS2RvpsB58q4gkZIXASp0swpTwjPEBacemJF+mDD0Wb0LkEo6L5b4t5T6mP2s4ftAdXyxVe7arKvoOMcbiHK1cF4/smOkNtR6f4lF6T1y2dfZ3x7jpNSBfk0ob8uLCzzsFZF9t/2puaUIlhOq8b/JYEzYO62X6+/Pojnd91S/VYzDWZegaSkwRIDc/n1uqutGLWy485j9rOH6wDwDZ5vCQO+gX4GehAEJwHDYAYdDfZ/QSKOe4zrEvqiAw38ygaIwmpmBOvMmektgIUdD97LyRXhsFGb4nDSX6cpgECf2xmodyNxyYCJRv9+0q3+pCXcJPrRFMBXzKzhpjtTY6t4g1WMReG187QmusdTl9UDO4QhvmuJTCFrHsdt7iOuVNJMCJSLbqX99xfiD0jy4pud7Zmx5Io4VUTc60sSN4wFehpso+L7UIz1lBC303Kf8xu1TD8YPtcO9FT3UAyzBNA72KQQHaSu2Y3gd8VQ+1r7bXXPzJKlL1ljR30MBxhWij0A3PiuL1vLOCbnLX+CVfB/82e9J3ilk4nqQS1B00sb5lJxLYOtPacs+4N5t/NukhxCyNokb55wRdRoE/cFA6ulWc2luyfLx/1nC8x/of2qs3ExSY+GDqXyrR97wS19mO73mJD0agdam1BGpGt/oZ2KEEKvz1jm4wr9yp8XiHJdbJagk8bhIo5w6PW7vr9t6+BK7H3+vP3H6u9R21BGoJFBKojRV77FEAAj4IY0WFvAVnBTm83QfZleVWjm61seI+SL0u4sFIoNaOH4zc92Kp920n3l4UTl3nWgJ3L4Eaju9eho9vDqXq+vhKoG55LYFdlEBtrNhFYe5mVuARhlsu4i/APYi8gOkkfIlR0uZZO1EhO2NUxXRMi22bE+24gp7a2Bij4QDsUZeHYZjnmTEmDANtcmOMKnhsd5zvjROioaUTm6dpJu5mhrBA+Gw1VnhmZ6+wF26v9dLijcVbX9kTEqi14z3RTQ++kuOWivHjB1+zuga1BB4VCdRw/Kj05H1vRw3K913kdYGPuARqOH7EO3h3m1dD8O7Ks86tlsC4BGrb8bg09sAx7Ljb2Y7vddXHgdgf3591vLKUrbbje93eOv9aAvdfArV2fP9lvodLHAflemPeHu7IuuoPpQRq7fih7JYbV+rh0Y5vXMfdvFJrx7spzTqvh1sCNRw/3P2zC7Ur3cd2mtVOfeMIKMcp5XZSwJ1VZpw5rORfBuknle4cq1zkdlKFOk0tgYdVAjUcP6Q9U9AajwFNyd1zQ0TLsqzZiqWUeZ46ZoNA5rkmv90b3nJd44HFIFRGuc4UH1c6/16XnDFr3FbWz21SVacqYPUHliJa4iqRNTMHluXxgCOWi/HhgZO3NYAYXLpMCK6cwBFZUYpMqsLqg1oCe0sCNRzvrf66g9puIS++ZQ7j8HeLxKUlYedw7zPceRHVCp5vRRXex+vFFRvyLepZX64lsCckUMPxnuimjUo+QNtxqYTuHEw3qn3HR4T4YyUWh2Nn7jjr+sZaAg+ZBGrPioesQx7i6pS68Lgx4SGubl21WgJ7TQI1HO+1Hnug9a0d3R6o+OvCH3EJ1MaKPdbBNzJWjK353ZMWjQOxP66U5XtSXplpbawoJVH/ffQlUGvHj34f724Lx1F4/Hh3S6lzqyXwGEqghuPHsNPvvMk1/t657Oo7awncSgK1seJWEnpA1wF8lfsAHVvrtNbOcu4oTHoRdL3wY7PWWAs/YecceQ3frvNZ0U4PuJU5wlrr/Z09jbIQAiecs9YSQ/EdlnK9UKkgLkTVHKu1ZswR3bH3b6OyylDzWZb5qlLFwArNBTfGgB26/tQS2JsSqB/evdlvD7TWtY78QMVfF/7ISqCG40e2a3e9YeMoPH686wXVGdYSeDwlUBsr9li/AwcfEMHmlm0g9weRqZTKalOFpHL32pNkjz0WdXUfCQnU2vEj0Y33txGV09v9QeT727i6tFoCD0wCtXb8wER/ZwU/QO24Wt+7s5rf2V030o7vLLf6rloCD7MEau34Ye6dh7RuXimudOSHtJZ1tWoJ7DUJ1NrxXuuxh6O+98tMUfi9gdoYLm6g/6R//mCzLKorm0/Xv2oJ7BUJ1HD8kPaUlBLIA251z0AM4h5jDGPbT2jI1xhpLLkfO2aFKH6W+LWTliIDysr6fODJrB0f8+aFi+/YB26/t+18XNFmbuI7JqdprqTkHB7ExhilFGOS6s3LUjzoenTeUrDPdsvJnbS6TlNL4KGQQA3HD0U3PPyVGFeHx4/vcc0rbB0/ICyuXSvusejr7O+/BGo4vv8yv6sSAYXbObp57fiusr7VzR6F7yMWo0LbFzfm+XarWtfXawnsGQlsP/PdM9WvK3p/JVCB4wPxsri/ba1LqyVwvyVQa8f3W+J3WR4AcTvt+HYMxHdShcqPojq4k1zqe2oJ1BK4sQRqOL6xbOor10lgi3Z83fXdP1GVuCnr2lixSRz1j0dEAjUc77GOvLF2fG8bUinF1cENDbv3tiJ17rUEHlkJ1LbjR7Zr64bVEqglsLckUGvHe6u/UFshBCfSY2sxafeOwMYYogzemMZ7NdaBHLnyErtlY73rLvwZtnyklNaCg5hzXKUD7k/eRvZF+dv4HY/r2oXrNJnIb2SsSNOUCJHRfM/I7EVxyxbWCWoJPLQSqLXjh7ZrHmTFPBaP18DD4hZw3PJzPH19XEuglsDtSqCG49uV2ANOvwUot0XJu6nieP7jCnKlvVYn76aU+t5aArUErpdADcfXy2QPnNkCmg+kxrVq/EDEXhf6CEugth3vvc4to+F5Cy/zxtxdbEal/1aq97ZnSn1554bpO6nj9qC/YSG/kzzre2oJPJwSqLXjh7NfblirCiKrFNsDVnX5Ng+25Lbl521mVievJVBL4DYkUGvHtyGshyppqbFCO971z7gxxGdeDQMVOUaZ5h4UP9ae7ccD8igZS1Uf1hJ4FCRQw/HOetEJxmVBucsN4xnjjjFLZyQhomDc/7zXE2kOY8Umms2K6LeinbwriCRjSMks7FAcuZzBn4wx71XG4D6Hjy96x032CTcGEM6qW0Fn7MoMK3bjnfXO3aaqKrHDjO5KvDss454lu63KO8ZNGaBwnNrUd31Vx0qAFs8Lt44bZ91YQEPfubBvVffcjv/l2E2P9GENxzfvXsuEM1pLGerEKcXyXEulHR9wETBHph6n6BnjQGdg9O58QG1sie+YEeWxY2Agth4aeakSFxDmHCOyYJAPA6sLsnYPoLdVpYLamOAe7xP98yQZ5dtYQHCBmATVOy4CCeG3XLoqe2jAWWOcMQ4wD3lbrU2e6xuROyMXuBuDANpay7mQUnqu55tI31gjBYYCcEnTICOEQK/dxscL4TZueMiSchLpjhGZ56R5aHrUJe51khioRZblSgWQJHPGwBtdKalC0V+/0m7FktnPPj27sLivs86mZtkoyeNmQC8ISZseUb4RT+AhE9KDq05tO7657EkFLrQ2D76Mcc3wmOakOODt9g8ojfxA0JvneNdXq3eJDhx31qFMj8IAu0pzqVLebpn+xiorQt5i60Z5qcjyzooYU4qRT4VxZeZFE+4s89tqrO+salvKTg5uK/+HMPHttnHsecYzJnx/zc8vhkGktXbONZuNOI6Go8G5859Pz7W4ymTgDh09kOZJbzBgjDWaIfVz+TYVWkvV7w+hlB5MlWrt+MHI/S5L9QYE0kzvA2ZtX9ntrbrbp73zs9uX4srpwZ1n/Fjeyf1UwCMsPTmFirpFGmMPlQtpckRADNVY+ElhZ70jJA8ClefpeqfPuYui4ND0UnewfPnq2emZ9ltvv3LqyaX2BHLu9Ybtifg6TcWXMgb3W2rx+P2s4Xjv9Xlp20XNvdPb9pi1qy2jAYBMJSD4pIOCG37s1d3VEuvM7o0Exm3BFPdrazHjSitnLiinL3TewzdneZ4ybaXiUaxaQSvPk16/c3V1rTklTz/3xHvvvf3ln3krjNhwxFTgJiabzpmt5dS/r5NADcfXieThPuGRt8RD1NUj8v2v9X0YA+5/ox71EslSUdgKSrV0Q0GuRtbyEpOOBWQv9oJxtDoCm8PEVEtKpk2y3lnu9lajSB06fPCFgyd+5ufeXFiafuLUbBSzXt8ZmwRRCECHYl5l+6iL+U7bV8PxnUruwd1XaccelCvPs3taIyqLlOL7qx1vD/r1e31PO3s8c6xX+xUmv1JtacnEXFu+EsVSKhvG5uj8wtNPn/rSe++88NJScxJro1oz61irzYVoMO7W1lempycJjgnxNwaA8ZLqY1bD8R57CCrtmKaQqLwHyj3WjLq6D0YC3gR887IrHZnWhzm5u0ChNgTE2i9lh7EOIn3o8L633n71vS+/Nr+EPIcDdm05abajVosbOPnY4WDQbMUz01Nuw4PFG0PGSrl5dR6nqzUcP069vatt3V5v3dUi6sx2WQJQS8df+XKWAWwsjzcOGFkYctJlSSmGT5Em17fs3Z958aWXn339jSdakyxL2dpa2mpHzSnWnI6tZbm2o2QwOdmSihuTC1UVWqPwzbq0EtPNEj3O16wxUimTG63hWZkkiYcha63wzmW0qaGay3Mhd0VcRCUMamPGhNVaiCgIVJIkggU+/1IpLp5veODCDddorY3VzmnGwUosUJ+dvwPOWiOE5EJ4r16tdensvH2z4Oq8c29rvPK+MpUVskABUZbIOZyrvdYP5+txdKiq4Fie58YYTh/G4JRdiYVzyA0fcgwn9mQmLPFEM+asG40SbYxPkue5T19l9UhPOARninzJrZeckHDfJiFbDnd27pg1BrKlnrVRM5KKZVnS6a5Ylx0/cei9L3/llVefO/VUu3BQ5CxssrAZku7MHBNcMCXYRNB0zMRxiPlb0Yk7fw6rnn68Dmo4vkV/53keSSWECEM8TBF9yPtdsQKQC3PBo/2sVRDJx8CdTj7U7fYg67cBAr6l4II3m40wCKxNc5P7jQxlsuIvY4D7WzwZe/Iyt5YzJ7mQnDNrdZ7nuc60ziYmmhoonDPmglCGkVIqYMJeWT43THrticab777yi7/486+8usAlg2wK/2Pvhm9oN43fVKloxPWjrAd6L6nSYaM2HN/4yanh+MayoSuK5llccO+oQ/oa3lWbGyiqzgoONQshOeilpwAdt8jzbi771TSPL16P8/vT7ibPHd5bIXKpmO/wvgeTjHrEa8CYYwjBrMHeRSUCQiJENpFMERw/RvZ3Y5zAnkshJVdKMqYaPHRMh6EYjjJj8yAUjUbAuen11jv9lVOnD7/1zi/+7M99ef9+eK2tdvOp6SBoeHVXk0ZsSyz2U58t0Wf8aF2N2f6gmBI9mCfjIS61huNbdI4szV6Y0mF1woVhqHPEJRJMCh5gbkbradZglr1bxoqbV4sAsUhSO7ptKys4nNBb72flPg0m4IJpDctGHMfNaGo0GlWqsd9mTdvNnR+Gt815T5+M48hZbmyeJJkxuWOaCyOkTTPbakeNVrSycvXSleXZ2enXXn/1xZd/5e0vP+sEC0PsPG22WXMiSNLs6qWr+w/sw+IeROyxdXyBrgJfL6ry51a92GvTe1qcu1z5Go5vIVDYjBmXUskAj5+UUik1HKTtRlPyUPAAHpXWelOm1jqKG7fI8a4vX+/o5vXWu874Zhl4jRgFPSyObuVLfoNaVxX2Q5fWqHilC8NKitm6NcZICcoLKSXn6Mrrow7eoIS9eNoNh108zEqowOGRZkwqqBBZnly4dDbXoxMnj/zKP/iHr7/xytLSnAjY5BxsD46xHL5ruZQ8juWBA/tKT4mNbdMFhQtU5DHlFxA83lPVJY/FNSJveopqON4kjm1/WGvBlMKY0TBTJEmyurrmJqWHYyWVV6+UKma+22ayWycri0H1lD8o7Xi3WrS7+fi+qJbjPLwaw5wzUawECG+wwmmN6fUGV3qrU1NTxnACZemNTj44rLdK7W7dHoLcnGMaezK4cExbmzqWOTArmTTvvPXOC196783Tzz45PRMFAZMRGYjJRoyZH9NSMSy4YooI2qbiMgCXXo9CS8b1zS0dh2N/xSeokl2fYHMGj82vGo5v0dVSKZsVqzpas3a7feTIkUY87bQ0OdM53m2oGFKGRHCVgYfsfnxK7Q963n0orxoGqqU8X4F7XfT2ij84K27Wal834sCDtmsMCwLJaXKdZVmjER05erQRjK5cXG21WpoWtLIsc84JUWjK97pdDyZ/bqem21pnaToaJT1jk7ghJ6fbk1MT/9mv/5fTM835hXZjgmBWW2s0vFByHUZhEChB5G2WGfK/kETK5wneSnMFoWvZLzfpnVIvhkfzTZI9GAk92FJrOL61/LXOpdTWyKjBjz8xFURvpok9f/bSoJ+srXTW1tb7/X6ujTVCsoDJAL4+eFrhNARSgOKZw5PnmSVdxWgG+yYSCMu5ZdLP90DqiTmgxXshHcNF0lGccNY6RVhUUfFRlpgRem+icY1jyzzx1i2lFGQjR9XLXVjlZJOUHs937EFyrA47zLvIil7CjXmqr7N/M6vvcVvkTnMv6++96Aw0Ybj/YVqjDGOBTPPEONucYG+++3w2lJcvrnzx+flklHQ63V43SdPMci5lKIKQRlmqA3ViORdBz5YgUomaOrZw4atOFgebfbyqHvHNLG8szK+oPo12FTuwb3iV2JdBP6lWlNhx7LCo5IY0VSWqJ66UjO12r2iTGJdFTXXwyP5XXn3unbdfPXGqzRLScVWxLGeE00pqLl0UgZPN2YDziEnJBGw8RgsBDwqvB/viiv7c6FZf+eu/y9bVWHydbGo4vk4km07gyY6bDcacBDxKJtih41hXPvn0E4yxNGGd9eTKlavnz5+/fOnSemcwSkSeMaddwFUjbAQ8YMaZ3EoZcKGAcJznRPjLFRa3zdCGQkRYFpTSMmd5NzVmlHKmeMAyTAOVZlphNVxzp5mNGFfAbcwaDb2GmDwao7MsTdMG45Occ62tEELJAJohvZ5ebam+bzAZt94JASMJ/H+1ddpabolHhhRHUKlRJgLAJQKihil8fjdJbtsfxY5bjx2EVCXUYMRxlsNHBf/wqlssnRJ12xi8bJvtxkkXBIE2utWK+oOOUiwO1ednzn5xpnPqqSlmWRjEIzNM9HB2f8iY3X9y4cU3FkzOBgO2srJ67drKtasrFy5cunb1Shw389zkmXGOB0GkZAB3bMcjETMrrLXa5NaCFgc8v0oOhwMV4EAITt0Bv13LrAqlJ6qmtOgTwRXngticC4ffks/BMSYkizzIks650XD4v3MhhbAaZlslldHMGh03lLXeNxxDuAPjGlCSS2GMts6SB4VwzIySUZ71IpU2W+7EU8ff/dm3Xnj92dlZWok2jIWWaccS9C4LuQ5lh7M+Y5cMm5Ms4OLy2ctPLu2bC8WFz84dPHKYwSXc0HMiGHQJfDzAVsPFRrdsPSp7HefHj7eme9x+13C8wx4neILCSOS/nOe5kVJFTb7YjBcPHHnupSN57vKcd3rm8sWVzz/9/MLZC/21bpI54YRgymWcCyVUyKV0QuTGZpm2mrXD6cxpMxqaUZfnJgwaKpqcmZ5mXOSGWVDbC87RTYFQAQE6TSb9QwxFw6/sNRqxEAyTSiHgW4qnvFBefAv9Rolq7k8bTLZrO4DYw0TxTcbCDcDFT7DBFEVsl8WNz5WKka9eOctF+qpi1c1eGa9+7vDA5+MAfk5JkaZs+erq97/74+ef/7IP3tKIm47l/XRNm1EctkI1LYVsKRa1pg8dnQ3DU87Cr/aDD8521vtXrly7dnWl1xuORgOtDYMPQiMUcRAGQaAC5TfLJNnISCW0TpJEgw4frghBHMcqiIbJwMMjpkzW5TBba4J4ItYpFNtCLoVqjNAzJVJvKM4bPb4hPce7690glEEQCsa1QTdJpYIQY5KQXFurdZrBE8hFDdWejF99+bk33nj+9Esnwzazod+5rPOkFwkyFfOABYJFbCTYGsO/L4bZD5eXP/7evz8QNxa/PDMdRgcOHGZJxkKJSnJLoQ4EHhpf+40R5OY9VqPwNvKp4XgboWx3qnwZyhlWGBa748jTAKoqVuYFW2rKpX2LL76waDI26LBrl1cunLu4urzWWe8Ph6Nev5OOcsaFVEGgpFNhzpMgilQrVg1tRqmxzLAsNY5JYbBBimHd30moiYYzTTsBaSNVYbotn+o0Tb13h9GGKgM3fs6Z1t5AUrSpQr3qYLvG+nObAHeLpdiv57gyRtONM7mTK+NlUT2ve8VvyHfMYWRAqw3nIlBRoOL17rXv/dUP3njz1cNHW3GLrXV7UumZ2RnHJnKdwV9RMKFYEAkPfY4xbexzzx/ByEvQ3OlgAnTx4sXOSu/apfUsyZOkl46sRC+GZGzmjUaTucAhaIszBk7Ng+HIGK1CbHGU2EmkOFPWMMw2AGLe1OMHP2I74w6QRl+l1MreJeTbGCfJ2EVp2eLi/tFoOBqNGDMqCARGhXTQ7YQRFuuSrD9KemEsn37yifd+5t2XX3pm/yHKmzJOBi6D1SJS7ZleblgouWKasS5jl3L26craxe76p+fOpv3++pWLL779TtSOeqmdDUWem0AoGvFhS/ZcbdDty3rXf+9MAjUc71xupBcjOZ5lv3W4WEN2xXq+EizNsOMAC9OShTGbWZw7dXouTZjO2MpK98KFi1cuX+12Ac2j0WiY5hdXVprN5mRsY46l/0BG3AWkQWH9UEmG/yx87LKhg58odF6U5+vtj51zWZZT7CY4bxGceVzQhJhF/fzOCF/X7XedEQBBMfO2EK8I+9eOsGq86J0LbiPldbi6ccnr+b7q5VlgcYVI5cmb/821CcPAWMOxvBo0Gu0kGy1f6/wP//3/9Ov/9D/9ys+dXJyb6A9dmtgojgMZrq2uRUEUBAHnXAUBYFKyVltU5aqINVrxvqUjz79whFnWXcvXVjoXL166evVat9Pr94eDQS8Z5Z3+NcGDIIjCIFYqDCKlQmWtGY6GNF/BhJ6ASzgrnIOhp5hhoI2kHZcjZLWygJb6jvZy86LA94bufPXaspJCKSWw4ZAZlzGRq1DnJrEunZlrfvmld9790hunnzvYaGF0Z5INei7LssmpqNHk6ShaHVnZEjaQHcaupXZllKwOhhdXVs9evnxtddm6XBn9zLNPv/TaCzFjw1E6ETackvRQQEOgTSAbdYKOfNNevnn3PeZXazi+5QOwBQ+Kd4Lig/lNX2OvD2dx7HKTD0aZMVZwGYZRGKsoYhFj7fnJo09MmvzpNHHrq+tXL1+51hld7ur+aDhYvzhYWx9lRrI4y4Jhlqf5QOuZBmkcCIWXMaO54IHz9pIKtsitiHMeRRHn0NECWoYCeUVu0ywLQzgheR2zAnF6zbe0y8th3I3UDzxAf4ShLEYeMo6QbkxVGMeJW0qyGMm2TVflX129/kx16UYHVBsuZJCnmnGRpYZxMdGe1TZ1Rvyf/+w3/vRbR//eL3/1ldcOcCGTEegVZqZnfW55mqWjNAwDTu5w1mhyyTDWghkjDGERYIxP7wum980ff/L/Z++9niTLzjux75jr0lWW7Wrf02amx2D8YAwcQYCASFErrShuKGIfpI1Q6Ekv+kf0oAe96UkrbTBWQYUUy+UuGVxwl4QhgMEMMTMY02baVZevykpz3XGK3zmZWTU93Y2ZQTcaJCqjO+vmted+597f+c5nft9CXek8r3Z29jbWt3u9YW9nMBwUvd5gNNwzueNMSgnFudlu+OwSQCHiw4gzOCBg5fCIH6YgY8kErde3516QNgHiMX2wa7WaZVXk5YhzQiSfJKNGZT08eebIV7728re/88bsIvSHwaCotYiTeG1ta2FxoSGSsgYNpmyQJL5ONCC6lLt3bl6/vrE+ygtrLNOWZHz66PL61cuzczOV0nkk59pZXleJYCAIGOeBjA0rd32e7tVTh+vvKoFDOL6rWA6sDCaxAyuCdhwSCnziAFmU3cTHOpWkTEouG5F/bxDuUJhRBdWVJI+yKIsz3khZY2b22JlZY6gU1BvS9trKzvpK3huO+vXGer65vSsjULoAfBEri28ekUySqjBTFTUAoo/cQP4C5yzMlJ0jKaOg8cWJGKOp3zvozv5u7vb6OO4IFUuD3dlbjcegHLTy6aUPyGM6aTiw7n6Ld7uu3z/czvR7OoocNDGPT3wvsCKKoihoo5zzqtLGqGa7obXd3UFc13vVlbXVrT/5V+nc/Myzzz314otfEkK3WkmW8dja2uUAACAASURBVCiKg7HCVLauyzT1SvN0Is6c05XvYkw1pIzjVhS3mt3F5tknjpEjq2hvz66vbW+sb+3s9Hq9fn9vWBRlrUfWODj1DDFQZkTeqRvRxL6Px2lyO5j7+NCVifwmG7CL7w1mHZlxqWYUbLZrG6vLy0sLRxa2tzdurV6Z6Ta/+vVX3/jqy6+9cbzSpK2rlYsz1u4K51ReDJaPzlqikYF1uCIaadqo6XZJP7p+43Zd3iz2hijOG2eJbDreAJ2FbjXSo0uLnJzShqRwRCKK4GXFP/Tm1Krln5tJ2w//fn4JHMLxZ5DZxF48efBwiGcCQ6o0sqU5k5H01IWxtbmxtUXAgY+V54iYyDL4SRhxZeuygnlYOBxGPJKcFrq01D3On1hmhnTNd3fUzu6g0UpaDap0QeBXi7hkTpKG1RHRCQc1R+CXdRomYz0YDJVCyGiapj6i1nA+nj0GUo0wivjKzXctluP86RHV4GHCv19jhrXw0o2144nUArbeE2Enu03/3nPPg3cU9v70mulZ7rPgmfCQJNlqtUCPoxRniVZ5K5tttFKl8+tX14ytO53m22++/7/9r//7hQunlo7MnTp18sSJ48eOHz1yZKHT5VmjgUtospYrVTln4EVNUilC8J+zxqq6tNaF8BLMkmKaXeSzC4sXn1m0hvp7bment9cbvPvz962mulZVVVelquuq1oXRlKaNIOrxQzV5xhBbMgFhj3X+XqETBIrLKdElAiCJ1PFTsxub11fWi/MXHvujf/YvXnvj+aVlMo4oJszJEAdjiWpH2jGdZoJIbfV6QxmJVmfD0E8+WH3v2tqOYTeLIs/iqp2JmRkZC9Ja5VVVVWu3Vr58/vRjx44vw9yCKVIzThgebXSlVxXGzeS+2ffs4Pv02eGmiQQO4Xgiibv/vePp2v+ZJEk4wufU4kn0NlnruSygNggfwamh4CKAuKKKk5Q8kekkhcl7cxhCkwDvxpZ4qRuNpTSePzLvT0iMaqWsoKaQcc2o0CWK5Yw/B99alqWNuq4xgx7t5kWeJHGj0dBadbsd5s2oIb17Mn4Ew+XkTNO/4RXDyz990cIt74dEBF3Va9zWG6Z/s/w3nhfUGmPjOOFc1rURPHZWGs33dnIu3MLsCSmZc6quy2YaX/5w4+rljR/+7S9QcKjTPHXqxMlTR2fnOq+88mJnpjk3Fyep72hGpiRtiUsmkBNBsb9v77tD5QsoyD78RCJ1jboLrDM3W5ezL7x0ymnq92lrq7e+trm+vrmz0xsNi9GomESn+GKgHt0wcjI5thePO2X8yPnwdECq49ovC8eM4/Vuf/fLrz/9jd/5xjNfeqzd9iorg+uiLC0TVkaOi3FVJNhJGK+Kotudq4l97+Orf/3u5dsDI5I5ns225heYICNsVau6qmOrm8pmjje5eOLkKakUi2JprCqUaKZVXqWNBBMm37r9YJzpID59og4XPo8EDuH4l0rrINxMEXBfP/X24+l67kFYeB+Yjwfz9jULzTnrq7wVNSrotgguzRV1IkoZjnBMCXhHnCFlXawNpQkxEJDljTRzZLUhGxkbWacs8yGsvt1jz54x1pja67xIGWk2WkRUw35Km5tbnEOLh/EiiqT/cM5bLewT3HrTbyJXlKOqAksyIw4e8RoB/2maIkUCUVMaAV5xpHRlrUWGG6411p+DPnuHVntwZUh7u6vEvYEVbqHpZ7xmbCQdo9JUl0RMtHda+sYDaGBIIYjMEWu12kVRErE0zfJRkcZe2+WINYbJoTI4D0siSlppa2zFcaYcqA/eXXv/nVuO9J/+yV/Ozc+cPHXszJmTp8+cOHHi2PJyK+tgqj42YOC20ZXjgZMRyKYm4AlvqCAmdV6IJBIz8zQz3z33RLcuLlQVOIxu3by9s9NbXV3f2tzO80Jrq0Ey7CRPBI8CgYZz4Gj2LCmRVlrGlDaEHhYD8E6IkydPnj13/I/++NvNlmy1JALVELeONliiJPMCwdwIAXBIciYSjCVpZ0vVO1HyvUvvX3UuO3Pa1o2d7XI+afCi0nV+9ORSr7853Nk5efQobfTPzC8+cfTYMgzxei6RSSRMobMo8caWycABO8rE5OKVjbt28eHKXyqBQzi+v4imKBB2O6gkTg8MRrTw0znn4zH94+mn90GB4DWx7b1iW9i0OZPEfEQ0tAgqmieSUHuNdgUJHuNfLATVxsbCOKcYxbUtnUu1U9opxCJBBzr4uaORB8YP55rNNnKqwIyDEFRrixCAvL29G/TlJEli/4miSAjeyFrG6oDFUVQzJpTSeQ7aMz/wCI+SMHR4pRvMosg+wBXGn2D8DXHNY+pRT0AacNOnPxxs/ANenmTBeT3Nx8ROMdLPRmDsYSQwhQd0cW5laD9zGoEJTMM4S5pbt71er9/+8Cc/fC9OZLfbWVxc6HTbr37llbmF7vLy3NwcRVAQffv9tzNUwRiRE9k0hVqdJALxuWFw9gEUcUZRChvIlxZOqPpEVT1dlvVwkG9sbK2uru3uDEaDssyrPB8opTFJQfUAAOvRo8c+urx66cpHMzOdl195+ZVXXrl48YkjR8lYlWQWWAzbAYZqLpCX4Sx8DMj6JiFBGuQHEeNGIyVbyd9e/XCNXL/dHAkmjG12Zm1lMyNmRcYGVWZYkrYoLxNtzi4uzTGeEglLiJQ2JIxDbDKewclziDfAAaDxfnzuYJgH/AT8Qz7dIRx/ht6bPHX+3bsDkT0WH7D2+eBQOOG86RhH+Gm/2O71Prx0/RdXb8wcOb544rSLsu7C3ICIJdRgRFHbUdORG0LTtFxREwFu8P3goUdkg2EoaHEQ+u9o+RSUDyAEWeSVgash2HwDVGK5KEoGw6coy2pqx2CMGo3MORtFsRAROR7HMRBLREqBzcuDL/yWE3oHGbLL/HofXyvGT9T4Sr6N8HFOAjM8vtzR8gf6c5r74nwvTPASE2pcB2PVONsCCWyCu8QhO90J7yWDystApi4ECaY41XVd5v1quNdfuTHgkv6fP/3LhaW5U6ehLx87fuTUqWOPnT2xdCSREaUNSpPY179ARY3h3lBr3ZmZVT5GQ0ieoKYymgHHKzERs1bKWjPJwlJy5tysMReqgsqR3d7cvX17dWdndzTK+/3h9tbO3l5/da0+dnz+pZf/q+eef/bixTOdmbEVLEkiEhXBLUfWx1z7pCGEwHs/MwtRkcHppizLtdRE33//0nYiq5lOpShWaqHVoGGREouyZDQaNmJK0pR6vcU4ferkqS4M0RQ5xg3s6ePpShiQp4gM2U7fkwfaob9NJzuE41/W23d5xqaIfHAblj3RQyiTgADWEAGEt4KxI93ZxeWTu+9evnH1hlvfy4kvnDjlivpk3FhoRbPLSXchazTSJqUtRo2YckMJsShKfeIsHIKRkBGHwgwFcHzlaUumWOxvZ+IXIsaqqg5pzUG3RZotCj6Nq13A0qqdVqp0INAh5vr9PmMIoI3jFOljSG+RnAtr62DbQGYwA6AHE4e/3hgCPRH+WJ7GZ4hNh4Gw4MnSPq3d368LPI4flHO4wck0+c5Dw3DlMxIOMNR4LIasvJi8mRYOURiJLNZBQiAPAVQiv5jIDXp7SRo1Gt1uOyJm67oqirzW9WOn5o1RK9d2Lr9/0zrVbCXz853ubPPchdPd2dap00fPnDm+sDgbJ6KVzqAuHacEkXORn1X4BGffecIX8aoqhNxwLiIZC+kJhZu8Ozt/9MS8UsZCmS22t3d2d3uMseXlI2fPHkkyIPpoALNOo8EJGOnvGnwmGn0IIIZOHYZbY2BUAfu+z4KmTLyzXm/VrmpnJs6UxmNm6xruOVXHUTpUlYSVRblidPH0udMLbXAdW8KUzYe2OS8yP6p4yU2excmaO7vk8Pdnl8AhHH92WR3c01t8seIgUnhLrt8Lr7330cEfzhCkqRmdOHXswtPPXd7urVe6p11e1asr67eSbiasXKvizLRayWK7e3Jm+VjaOtlMWg2WsJTIcgPPWmSlsPCm49TQ/AIEHwDiT6wJlhKXJGnQjAMgepMFlGXk8npcIsyIvc6In05IprWq4c8xeL81jNFa+VHA35pPAgYUO2eVqrNGZ2qp8IX1YLKYgnUwcfjgE6ADY9zowLPhz/VQvoJwprjs4dbj7ERBxo/QcbD92tp52oag+E8gG9wX1rrBYAQrMCq+MM5BbaYr5ZyU1Ow0G5yD/GnUN8O93auXVrSpkkQsHZk/eerYqVMnTp06uXR0rruUNdpRs5kJASIRazWCNMCOhp5MEg/YxI0xRam1MlJIwUSjhYAcgi2rfepMW9Wng2HEKKoqGChkzJIMeXFOW9AVY9rkB1qoAPhvfZ0aXxoQnQiWbgn38s6Q/v2P3oq7y5Y7oyi2vC0jPRp1kqyvSs3JplZzzfLhUiSfO3saHgaLq8iIe3uHdT77FKt5sE/AbO/nh+FdOPBAPpT+/cd80kM4/jy9G6Z8+0f45y/owH5lCA4N24GXUDfBsmKIekPlWtHi0eMfl7q0eTQ3w2fnGrJdm6YydUXbdb3rNvfS1d6Mvj2n3T//1u/MpbGwUIpdDQhjirnahwWHiT8uPtWO/fJ4aDjYSgfPln/zvZq574GcYPGBm8FpXYT3Hh48C+cPi6I4pPNqDVU5hFcLCWYM+BnzPEJyhK8Kyhh4dqIAuz55xBssAvQjvsSbXO7JlbHfkE8s3Us7/sROd/4IgsDtQPoA5PFIFUTmf4a+s46UN2P40QvnCXKidqehta7r2hjtsRsowxyPROKN7w7s1pJZq4tiVJTV7OxSXgzrvLp9Y3jr2i/+Y/2zKIrSNls8mT75zNnX33j14sUL7U7qnARxhdFK1Zwj2NnX9AIvfpYJQukC3zBvbvYKMnRnEVGtMASPaYgJCrs1la61FBnzFVq98zD0Ney42qhYSsQtIuuEhZo2iujda/23r9zKXn2aqDa5abBoRia27LN2ZCM9otxmVpd5xOrzJ06cmQOCG60k1G3/YcRQ0okMH6dHo/cZCf8PbT9E47GkvsifQzj+nFK744Hbx+IpFo6xAP5tLGIKzIktzER7RItHZ/naRm+3NypGudEs7m5VTIgGT20UNyKqdFmN9hSrRruFKTW1WUKOhDNkSWjG9JSu82Czp1AyQRu8E+PXoq5rHBNUU2+wCMtT225wwIWfMFtzcLEbA6VYykgKmDsDCcO0UkY4mdZ1nud1DVhBCloMWp0QvBE8eKGI3/T8wYX4eeH44H1+pmWvp/nZw76CPD5wPHiF9dAsvY1Yg+IHQ9FBIGFFXnppsiRGXLm1TqlaKZ2mjbHb0liJIuOy3Zybac/n+SiL52Y7KPk5GPR7VY80i1hU5nlZWtT6ZBi3GOdWcYPA8CYGKmfLug4UFsiqFtyaintrg1d3QRcXSpNbZ0EThFNAWdW6tlYRi+C4m94QboH7+nW4HW/SQgJKJHHpslK3euqty1fiuaVBaeNmQ5ZlQi6zTpGtTeEarM9zionX5dFu9swT5zIfr8kYguSDJu4Y8YgbBizWPmoo2OMRE+MROYj/M/XU4U6fksAhHH9KJPdfcfCdhSrj7Y0TrcDXRQgvBzRjaKAekbmF+qAqWs7osSNL61rfdrTVHzTai1E6W9WmthWr6oTxhpVCOBvJ3KqaZRZmRyL/yglJDGSNeB2xMih1Xv/zhFrjdgNjvGaOtC9kqcVBUw2KH4DHx8cG1vwAzTAieD+dR15YGsaJeUhYMUrpqqqiSDoL86THDlhXrWVVZao6jDk1Y0UwUgMxGHj6PUwDsDxKxyFfpq4QfzbRNz01RridACX4DiIOPtGg24Y1/ttfbXyr4z9ha/iB+Ym3wfiAryn+Yj6NCYZ37wX3qpcHOcZRfxOb/Jl9/gus/2kaa417D1SlPuCMMxZby4RIJPRio7Qqq4p5moskiaqqHI72tFFaq7m52Zdffuml155+7ZtH4yZMt4AzB1pKyINJpWtvAOFJnAI6MWLiFkA9MVkAo6d1qlao0JjEzlqlKyIbJwhYBPJa/3h4ewKi7jw7podQFzOJsD+rsV7AO7kyGL27tvNBb2vpyefe2Vxpz8xqY2PDYeSX8dAo1omcHQqlE1Ue7c4+vsDJUCTA1Yn2O6rAuARyDO++2O+qaQf453Lcf5/so8Nfn0kCh3B8fzF5Q+RddjmgTO3Pg+Gq5z7y0zLmuECVPQ43iHCUGerWdi7j3zw7u7azffvWyuJMd6QKTUMpUs4zU2vhXMZYIhUTpRY5izpDZyQTjtks4i5Ve2rDsq6P1fIsuyRIO1sZXZt20kAkrrNWMIqFkVzDumtRWtUDjU9XAQkv0JIxhD75T4ABwJiPHsUb7RjyHDziGus4Y1ma4pU3LhJxJGLtIVhQAjYcTGe5V8T8ywjtCHkHa4Ndn6zIpQwhz6hcxTlrNlMMFt4aGyzLoQFKKeeYlFESJwrlVyyRljKtqwOiRoPH775S3s+In77hHkdxYxgNAx17AGOo+R79MWZ5vjQO6jQcyIkqC1Lf2i8H95cAnDluwFSByD+wBsNuA/5o8GDUcAVEkUwbmTFVVY8c1VFMZb2T13tcmMfOnXj1tZdfe/2Vc+faooETj20JfpTyUoe0olCoLgCYx+pgVCGSY3NJuFPGpVeKcQxnUQxTkt/Bm/vJki1wDRaPSYcxlyLuPN0aOVvVUaO9R8iE3kxm/vTv/2awvLwy3IjTTO3mbZMIK3LLXdzIzagbZUtWldsrT3Znvvv443NEsTa+2xB54oilDTwGUNvHTk+4KoMhyI+iUD6m0ByersPvzyWBQzj+peKavDF32fFTz17AIkCaj5YKpgrmHS2GuimvDMyDTx5bvtbrvd/vNeebhfaBwEYLSwmPMDPmI8dQlg8IyHjl4AgsKjkqtrKmcyJSRmhtDFiNTQQaTSEjQUrFkRQiMoIV5HkXMFu1tSbhrcDhJQdBuo+UqCqERvl328OXX2ZQpO64qU/f/lSBDeAYJsUBi8MpcYYkzbwBxFaVKUowtXvANN1ui7P9GkjefIKv2dlZrTWH/o+Eb+0/jCmv6010wHD68fcd7cTaMJb4lMKwk4cHf+GA297LhewKj7/IePbjbYDmUGpIkPMDDNKj8RGSJahOJHzcthFSJGmiVLW+uc6F6cxgrr/d22i2ope+fPFr33j1pZefXVj2hHCW6trFjXGS+ifaHhp756og6oPivXOPyWg0vXewgfqTccsiGLn9E4gBmHE3GkSt5lCbSsq+oP/3R28WM7ODSJSCYo0CNMJy5oTi3OBvPBqMZD1YJHm+1T2OJG5KYhQFmNgf/JTJtwhN/PRz8enGHq75nBI4hOPPKbBfvnswUGC/oKR5Fi+vVQigrOB04Vjro52lax98yFVlDdPMAKuc4ZjPIoGqtm5Ulp5UglmnMyliwZcXut/55lf/zz/5C0sZCJNlnEjEwlnLtSZox9aVpsyLOjfaRiLutBppkyvDNFxwWkM19kiHAC9PXjGN0Q0Kl2/k/kz04K2OrS5+1QF1lRlvqfThHtg2hRIfQOZ51/2QBPJHkKqTGA5zaKfjpBIAcTCYlCWy/oJlo6oqY5xPJIzByvY5PhNz0fiQsVU1KOz7mhuGnIBolpxwLvUaLA96sVdoESCYpkl7pkNky7LoDwfGKM55sy1qtZ1k8linvbm1urJ687GzJ/7L3/3OH/zn356bj0PdZVODpCKKedyYeMA+xy18rl0nhhfGFcMADjsVh00XFc6TmLjIazWU9Itb2z+7fi0+cRr09BbjDSp5iBCxCP7WNBL13kCq/PiRmfPHjs35+ZEIprjP1aLDnX8FCRzC8a8gvHseOtYeAhiENwT1a7yFIGHUJbp4bHlle+dqr9dIZ2rhwCwAYykYA6y2GY8GlSmJkFHnFR0ianSz/+IPvnXs2NmVtd6ly1euXbve29lVlqVR2oiz21sbWdJoZK1Wt9EUDcWotqYuh2V/5IPtuEB4FT7eUolawsFq4W2mXkuG/mx9clUYR8LtBdgKRpsJEEMzwnrEjLCSWKjW6lVOmG6woBXKzjESKEeEf4IzwZg1BkTp4Xqef24cQtfvD51DeFkgAzHGhTpGHknvKehPbWDkQqqyl/3EcoKWjrMXxgQOfo3ndQY2hSKFAaPHbB5CiKquqrpA9g1ZVAhotZvt7PrNy3HCN3d6w+Hel5596n/+Z//9K6+cjxOKm14kiGkgYjprcmRb4qJjWX2qqQ9qBRx/xpdH0hMNgAlXDgbtdnt7mKtG81qv+tt335NLy314GqQAbx8znDQeLsu8r1haY+tqPo4eP7L82FIX5chQE08hqmN/HHtQbT48z90lcAjHd5fLA1kb5nPQPUDiAxLGKIqaRH1D5+fi0bmzWz/4sU/M0xRnhotK61qB8kY2u3ul2dI0Dz6aqKpLW46StNmcz15/7SnUqnRvFAWtr+9cvnT18kdX1lc3Z+aS0agc9HfLrQ1fBSqyCIaixbklT3Hh9VEmnGNKocwbB/uCZ27z1ongdfTK0Ji0DC/hnRPSqQtuIh4gPfjO8RtamVcwgW6wn4Dd1yEmwSKLD7ZgRjZrxIwAwQhPRrrhGB+bjXYwp/hDkGuCaQJyTz7PJwwGaIn3BOLkARMBqRgGgI/+3xipY6IGihTtI064RxfFsigqxm2zkaZZVJb55tbtazd7jY7TzH39d1/64z/+o/MX26g8UpFMqd8rhXBpJkWgiPLGqqook7R94OSf514+077c8wiiaFiQo79J8Ny7RFbEdaO5Xprv/+LD6/0iOft4vjNoWXAcKc6QEu5HC+GcMFoPB13OLizMXTyyfJSBntvV5Sfo5T5Tew53+pUkcAjHv5L47nawV7IO6JH+DXFMOF1VScRRJ6Ssl5uxXe5cmp/9Ra83gkLGSCaCC41ieqmI2M2d3feurS6cR4lNGadGaRQUYRS1fZdZimPqdOYef3zO/f7LztFHlzZvr6xfuXJ95dZqvzcsizrPi7JURdkzxhmfzQFCdCahk1rHHfL9xv/85N271PBST0B44sac6ML+Zv3dHUhC8Y7McLcThRQnAN56KDxwPhzPqlJNCl3Cwu5pbbAgZTzGaO9TZAweLWPAkHc3Id97HRoUuiD4lTAkYAWsxD4u3A8/wGv/ceNRZPzrAF7bpAHvXW2GO+t7VZV3ZloXTh3/1u+/+uprz584M6Mr2t4atdqNBNZh6syl/lhDrlJ16ciCvi9L9sV57yZ/8S0+qsN3ASY7IdgCKT5EIm6ulKMobb59a+XHlz6Wy6d2CkM85XD1kuKoTQJ/BUY/w42yo71jc92nl4+e7vAmkgjRKbEvBvgwh5Mvfuv/KI88hOOH260T3561zESJgIZo7WIjNkTzlr528fGdv397zdphXRCTPE4ZT0pHfaxhP7tya6kz01kCp0WrifQoV5uqrBARLIRI9h1c1tBTzy8+9fzit90zqqL+Dt26vnHlw8u3b699cPlKXpb5qFTaOIaKmjKOhGVK9QGFIPnCtzdc4ISTcWRqCPbBU2NEniBdwDtAnCQUmfY7j3EwRBJwz7aOKI3grPNXAfdyUYzGdmjYjP2RPlUjH4GlKHQGNHkGgrsQqhxWftbvgLkBbcdhiMH+MFXefYUi6MgO7cc1g0khqJieUJiMJVVWQ20Kzl2rk7z4xLO/93vf/so3TlJMo0FVjOqsHc+j3hFpVckkKkcDz/MhiTkEBRIC4h42kFlvpghdFjuXgBEQZalqYgXRJnObefHjmyt9mTSTdp6bWGbSpwVhbsCcz/E0zBnp6pZw5xfnnlzuLgkUlY4snJbhIZgMz5+1Bw73+8ISOITjLyy6X35gQK/pfoxRXeXOiUYa1Y7ksHzhePun11r5MC8L0MxAdSVZa1NWeq4xe23r9qXN/vJ8Y87ScgTMqKxttaahThMNz5MrO5+x6iyJlOaXaX5p6bkXlgK4rqzpjz66fPnSlZWV1e3t3b3eoKgqRtJDpPTB+8h7ZYiOFcTikN09UR89RI/V4QNwPA6pFmRTAsncGEmx4HFZQAmDq9A5qzVsDiHyFzVKsH7/48PIEI0b4Dhkb3v6G7DQ+VzhzwwIgBkz8fr7lqAxYdyacFCjHYHODaf15u9gnxkDMUzhTFf1UFNx9MTCN37nq1/7+usnTiRcQu20tWt2fRfAO6oQbxhxq+u01SBntc+14zLCkONsVVZJijyah/QBsbwXPWiQQHwEw7mWrOJi1VaUtP7i735yZThqHj25O6w62bwpEUw5qZBqmYMBObIqsdViIz49N3OyDSIrmysRIYLRah1ytR9S+w9Pe4cEPLfUHesOf35RCQT4AQwxruEqGWMaJytJi5BWCmbYCBQUjvqCfl7Tv/yrv+mzbFPJTRN1jp7p5aXTqhuTGO7M1MPzs80XTx976sTsYgSLHiN85/kgcWyu2SJrh4NBa6YTmLagzjiSE2DBfTA4zoBJnrpnb5du3lzd2Nh686dv7+72N9a39vaG1jgpY+T8UtxM53TN6loBClEkGV44ckxrw7kUHI4db86Acss51woURf4KDtFsyISGshlKzHHBPMcyQAChayCDT0LW9WeT8dQoeufuY0OzV3E91o8hGyCpMbAlSca5NIgqAZ2TZ5VDw5zXiz1ph7ZMtbtpUQ3qukKp2YQzbspqWFaDb//eNy4+ef75559ZPh7DQFyjFi0S6/a1aX+ycOto3XTMmC6E3hhTSt15Aw/it2Ks75+HTBHvj3jWoLoe6NIuzFwj+r/f/8XfXLlpW4vN1nK+Z2iE8JuyGDRnW9t60FPDxmzGdEm720vW/revvf5UKz2XUUsT14a4Rp0D3KwcF0h4EA0+PMf9JXAIx/eXz+fbGnQiD4kCUcGeCNy/sE6QmsAxwftvI7K8iOgmo++v7P7p937E50+o7rEP13ZSFJt07YjTcCca7XZddbwRH59pLTQbzcieONY50m0tUoSqplo3kZ1la1WxKPY6Hgdbp/M8XyHeI3SfzAAAIABJREFUQRKIa6yTYpxuW5dUFGZmRuQjWr3dW1lZvXXr9s2bt1Zu3d7ZHq5c7yVRu9lstprtFLHDVFV1XetWs+MLvoEEAzHPKF9vnOWNtB3yHGCRtkjiFhJlkuM4slYbqzxAG+t8BIVlnKUMgb2f8fN54dgxPNGWMclZZAyp2pKTPl4j9cb0gnOWZWkUSSQb6n5ttxeOdLIsWVu/dXv1xuLS7He/+7u/+62vNZrxTLfZmRtb6pWqkJiXRAjSns4E9m9isuogFIeO39/nwS8pxnIi7Wi2RvYHajAZ7RrRVkJ/vr7zV9euv73VY835TjpPAxf1dSbjkmqbUMlqF1kutM33Zp250G79kxdeeCxhJyKKNRHg2MCChdyTQzh+8B13rzMeGivuJZkvuh7zZXzgpQp6hX9VfWLA1Hoxfnulow6jF47Pvr24cCMvUrINwY2qkmbLkhGIxNeD3F7pDVd7e80oakR2fieab0Rf/9LzZ6LIaUSOpoKjdBm0s3HyqoVHfDJHF05KhBsbp4lQ1jPOKM5EVZKI6fS57tkLXeeezHPa2xvmA71xe7Ryc/OD9z+8fPnKzZUbxoATLomzvARDPmBdxkkKXl+BbG7Z2y4RCiIlBxDCWAzGMilquLNQhtkYZZ2GqxLz+sho7/H7otL9ZcfBEMG4jz3B1WF99jo+H41GvtJ2aoyq6kJpimPZaifb/fzj69fjRDz99MV/8T/801e+/Pz8Qgy7Roi2gA8QgeAicpz7It7I6dm32qM9d0DwwSaOLfH32ePg3l9kmfmyLyKWiDouK+qkKqF3V/Mff3Rtpda1bHGW4mZ9ARrSFW+IfjXImlEzifLerizzC0eXnj929HiLzfqUGzy4EsFzxMDw6Z+kL9Kww2O+gAQOteMvILT7HIKATmx2UQi1wrJHSnAjwGzgvUZWQEE23AjaFdQnupLT//HvfnBTyfaZx6/v9pPOTJ4PGxFvSpuYmleFKwumDaeaZO5GvTcuXPzDl549QSQVtaQnxID3CfVSQblFLHKMtI/3kmpqS0XjED0Ga0McjwsnT29G1ZiSq3IcgOAD6XavXvn48uWra2sb21u9utaqhuVDCJBPVojKdUcWzkiRCfAYgG9TaxAseOMw2IjCemOR0AxE5pGzcsJANr3yfRfGobt37nMPY4U1tjIGBaUimZETxiAvIphihsM+6uO10u5s21q1vr66unn1wtNLz75w4atfe+OJJ841moiRkBGKdpNFWRCv73to8hykXrrBtn6gPfcHW4y899/jwKk+56JmbE/ZNOItR7awIHibiS+N6P/64ZtvDvJeqztKW4bJ1PCmdu1Ka62KRjSoR3PttOHU6PaNY434m889/aXji6cjahAh2mY8XMIJbY3loIU7/PyaJHAIxw9S0GAz96Za7iQiiYLHfqwqB4OuZ3pxAY7Bg7xn1EhKzdm/eXfl3771fnT0TI+JnFheFVLyZiwaYDdgpLWplTIlbziXD45a9u2Lz3z37NwMkeq7bptp5gwIavAygT6cGHi3UFGu4hGS4ry+vu+Lq0FMQ9Yi8kGKaD+cbNpmH8iKffx5b94YrKysfvDBRx9fvb69vVOWFTRuxcuhIyc9BxG4KYIqHUXxcDgCIZyUwW5b10g4tsYmcebjzj6j2H85FARcnqAzkhlQ5JtEmjYimRjjQmltrdX8QjfN+Nr6zZu3rmaN6JVXXnzpy1965Y0vZS3RaiVZ088nHClVGltLyYUEs0ZoqC9vZT0XPxh/7mz9fZr5MOHYESsqm6SgARopLRK5aujfvvnBDz6+vR117OwRk7aLumZ12WQus3Vl6mEEws3FSEb9nthcf+XMye+8/OzJFjVDALOx6MtA+glAvnMmcOeNH/5+oBI4hOMHKU7EcMKBx6STSHvyiIYLhPQIrj2NLabCSFD1wKdsWUdyj+Qe0b/60eXvvffR/IWLt/v9uNWsjXJGC84jEQkunHE1mQHlyzNtsbJxxvF//vrrLyyRrChm4JAxZLQvpyk9IsN67S8V7tDbMjB5RgwZPvuY4jOnPaumNXEEAMIEn8vgVUfwlKWqdHE8ps0d9OnqlZsffPDhys21nY3+cFD2enujUWENklY4izz1hWQkhYilSKBNG0L6idZx7KMOQps+0/d+O++6+yfhGLXhFOgsPZUwF552onZORzHb629Vam9xqfP8C09++dXnH3/i7Ox8E1ka4KeDvdRYxbn18YgoBRsyGInIs+/7qigiClx3d23JvVfeB63vfdBn2IJKzt4eslGUrpkOif79x1f/7Y/eMZ2jI9bljQXL4rIqrR7GkRasLF09YLwZp/NKNXt7pxl988knXj2/OCORVI0CuA6hFMhoR5AG6tf6pj+s9n+GW/zt2uXQdvwg+3sSZTx5fCe/gcuwHHAkqQEHYUlG6U9HMXMx6UGpOmn25WfOf7y5Psh3MzIxTwRzCp4j5HBoxCuIiosdxYSi2aixvtX70Zu/6D7z1MVlpOPivIEG0WcBgIsBOBYs2AxMb0iPCzcLr1pdA248PTEKW06CTK02fdRLZRyhGIhg4wy1K3gjRvSu0a6utIjY08+efO6lk+RoZ63c2tq9dXNlbW1ze2tvY3139fbW9tZgceFYkeuyKEur46gRRSlnCXHYNCZxvp9F8p/KA5wcNA1SnqwIf8FUKUSMIcexoiiUqqRkzVa8tnH97Lljr7z6jVdff/bxi8vclzjywXdjRJMRSQZa97IY5flwptvxhh0Qdnray4hz6cHJuXvYTw6OcONWPWyGs8AgZIglcovcm6PNv1m5up6KRrNpdYNqxoyLLbdCOK5yWZekFIs1M1VZHEuT50+cfOLIYgtlwFCRyjjjfEYSiEh8viSicQ4/v0YJHMr7AQvbw+zknFN/2ljDw29Pe4sdxpjtjKnUfNpdU/ZMi3/nxef+9ff+09zCYm/Qs3HM44QxaZ3QPr5fOz43d2I0HMy1FzhL31q9ncasNffksaanuSQTwc2OdDhHXMOlxZWBLdsjLiLWQkOsoWYzClkXQEefrwzSS5TsDFQL8AoG0weylS2ix2IZi0hmyA5AwrfTxlk2dzSdWzp69sJROA8d9XruxvXV2ysbH3348dbm3urtrf5erkk5W/jCdDqBp37s4QJ+TZNH0LTpz9DMsdS8sO70gnrs8xo/7hdUG7g8Q0pcFEVcOm1UXve0qbrtVmch++/+x//p5Kmlx85lLMaNjQZ7UUxxo5kPlIzSKIYwjIbM0qyRZp6zIdBZo3gAUAoDozHczx4mHXzH38kwPF0NmRy4i+n6ey9gdzBkTnwO/q8F8/CknAEGcyd8jiFOXlsVcZLylir+4q2fXxtVybFTezlLuWTKiNpI6VgslETFckbU5Cwuy6gaLc8uPHNq+dQMyREeSkKpXNShCiOINZZAOjJuyL3be7jlQUrg0FjxIKXpyc89wDjQlk0Q118CeALeNo+IAXeQd8ZYTeQqwxRPa0YbRH/17spfvv0OHTlSN1urg5Fi0dLCsWE/L/ZGR46evLXX55FsSpfqkehvLFL+lXNHv/nkmWNMzTPUP7NVVZN0aauipLC6wcFgH8aFsOAzY+H9w5CAhsAa4dOHgW6eEQyKu3fqTKDEq/l+E4ry+HrCxnsmBcHq6K0fAYsOIFKR0+ZGvrq6cevm7atXP75y5crm+pbTzGro/EmSNRrtOBo73IwGnS/nsbMcEXQmqKVwAEKxR31PRD0zxkO8RAiq4wLkS95Nqi3Gh7pQo2BtULrMMvn0M09857u/+/KXj427eYrqB6w1Afr8DpDAeM/xQpDAwe/pDpMdH9xfhyBxEFpKxEhOnh9BtaSBU5xFfmZRx852WMSMo8qMXKSa/N2R/rN33/nh+saoNcNbS0rHdd/MN7tVr29UPrOQ9aud7WJzYXGmLeXg4xsvLRz7r1/88sWEuhW1gjEctNy2hr8DHN0i5JX41Jkpw+aDu9HDM91dAodwfHe5/LrWWocpJUO5X5ZYzkZEb21UP7p24/vXrtczs6o5M9JUV66VdlKKh8PcRnGFADcjhLLlblP1n5xNX1xs/2cXz81VOWKV4oSYrCnqE7jIEoAljBQc81GYjZnd957DeDL+B6cdLMueLz3kNAOvvbU7gBgwHSygmkghgAQxJIKo4ZAwcADHvOzqekyjDMYaTlpTnusyry6/f23t9ualS5dvXF/Z2dmrK2sNJydbrVlruAOjQsR5JFFxA2F5nCOFD/TPyqrauAlVMtaTdq4mphyrrKuUKpUtZOq0KxcW5l5/45Xf+87vnDoNxvTtnWJuHnXo7vIB0j5EhL3LFe+9CuEwgOOAuwfgWCD7riRTk4mJN0igW5UuFNWN6Ofb6m8uffTzra11GVfNTsmSqqKZrLO3sZ0yNtdtWVYNyj0tdCosH+ycTJKvnr7wtTOnzkXUrP2oqgpqRSRcjWtyGKqQf+0FA7a73xT53Fty/0i2HBorHnFHGkvIz2DM+QhZSXRyKamy8x9s3L452I2zLMraq/1dI5Kk1drb3e42WV7nhbU8krLZsaW4NSjcaG8h7T/ZbSXdRsNXYFPOIhKYXIL0E+vr9YG91geZeV0v5NIxP1H1rBFehyata844KsPjLfQ8Dz4wDknU+KBUCEwuqKfhrSKg4Alb/PfkzU2QSBwSo7EQxzCYpLF85dWnjaK6+nqel1ubOzdvrl77+Nbmxs7ly9c8TT/KbBKLajMc5lopzRjPskaWtuIkFhLuJgIk21a7ORoVedF3VMcJiyIL026tX/7ys6+8+sJXvvp0mlJV0/rGsNlK5hcy367QuGAqCbfj2/yb9OUrSJGCgSRY+tFmRi4lwbSJjIliKRmGRB1FKqLLFf3gyq03L98cxVG6MGOMYWqUMhlTaWpETMaJ2O7lcZq1m1lv7XpX2WcvPvbU6VPt2I+iKE0auO5k6Ofg5vhNEslvUVsOteNH29lOWyW9uVYpq4mriA8IJovvX1v9T+9/tGl4Nn8UeJubNGqlkqWiGFXDnEe80WJJZisV5aN2kZ9i5g+ef/q1k2liSOdFI4sEgszqyFQglN9Xjr0lNMRC49aDyTWEgHhTrFHwkiEwbsK843kyUV0iVD4KZhivunmT45hk3qP5BOM87lkYW4F9GBYcoay9Nq2GV6XDjt4TNRpSWVI+qm7euP3++x9duXxte3u3QgER2CuMJp9iJ5FVg/J/KFvMOS/KUafT5MJuba/t9bdOnDzy3e9++6vfePXU+aiqUXc5jimBZox2FcUozcAZOVGEvbo/NltP2vxoHwR/9RC17iMkcfeBTR5xMo5cpYXAvMcYQiZeBMjuE/3LH179cKu3m4+iTsumca8oFLms1SryUgrZarTKshoMBt1uN8uyvZWPXzs99+1nnzwb8aymI5wSRxi1MkncKLiOIWFJPDrUjh/F83AIx49C6pNrOiJldCwj0JAZA75jzqs4GhKtE/3w+spf//z9npGt+RO9oR6O9NHFrituK1vnomGyrpJNY4SodLtW6dbal08sfvXcsScW4rmEmgLaFGgzqhLvta/z5oMlBMyxTNQaLj4Gfkl4qfy3N2RgvhSoNb2BOwSHBGieFPSZGjaRkA2Y9Jkv3igeVOwAweB59FPfye36vyD5sYETQ/AojqV3Ifkps4dOMrS3RzdurH300aWVW2u3bq73doc7O70ir4SIG41WmmRSyt7erlJlo5k8cfHs66+/8vwLTy8u4f6sN8oEA4S1CmXtgbcTXx+aEPA3GGBCQabfFEQOcGxQ1wPR3o6MIJuQA2j2K0pnguWpSGjI6fKQ3lrb/v/+/nKVttIkZsxprWqQa5BIot6wP7+4qJXJR3nMIlvpiMT5hfbvP3vq6ZZoE8nKLQjGK6VNKduZYVZ5nwBKRROPwb/p++vQWPGJx/fh/jg0Vjxc+f6ys/tANO/eY4KnxASzAul0SIV64/Tx7V7v++9corTdTbumNmXeT5mJJEtQatqpGq5+7lCDJ252P7hyIx3uHHvj+aNNTsZURT9DrUmf8IpvbolrzjVsysyB7CIYIzwe+vqqIKzHHBkVMjwo+yCIoFRCzwUXzzSJI8z8saO3WkABBtLtf3NfJ9rXhLKe2g1+QsGslCJuBBI4r2P7TI0oRR6j0zBvzyzQlxaWv/TiMhFVQ9rYqK5fu3nz5srtlfWVFdBrbG1tnTp18qWXX/3Wt37nyafmeOy1fK+rI9gPeerIk+acrDNlXWqtmo3mwbb5fgnKcmjwL+uoX9f2qQI/9rNifEGQAyUJ7olQya/mtO7op9dX/vyd94v54zbt5ErpPJeOsrRluR2VRdpsFarOR8NWnM4l2fb2SjdpfvPJxy62aIZQsLGR4IFwzKA0OeLlXSDn96mcvynj069L6r8p1zmE40fcE5FE7WlnwX1DgiLmpK+aoUgsknj9iXPFqLq2UxpRzjaSvBrZRLKIMxFzy6Uh6WzmKHVqudvqJAtH57NG7DPJjBI+Mgu6DkNYlBK8QsgyVQc00cABDEMAD1WBAdZg8fL/BBmJuj8+D8S/oYwMR6bFWMUMc34PcxOueogTQK00Sv9wWMVJSoYgu7DJIa7CGQ30dqj5h9RpKSyY4VC/ySvrsBFrra1hjXZyspWcPHue3Hmnqdej1dvrOzs7j50902xm7Tbx2MdmG0KUBVFV5SCn49wiaVsxRilIOtJJdN3UKxn6PQSbhOVH/z0Nxgn94itNuSgMLiIibTXnA0mXBvTjGxs/uX57lwnRSCvmqDTOkBCJY6kTZLxDdKRylETkjuX9c93GC6cee26WFoliBeYpvPlGsYjFWVqokkBBFQZoD/qTScSjF8pvUwsOjRWPsrehFjNodlZpyQxJH67gYLKoKd1GBEPy3qj+s799c22os/mjQ6P79cBK6XiqrXQ2ihzLtGnV+bPH5r/6xNFnZxF3xpVuIfcN+YGW4toXtazgmgcWV774cOnft5AtCPB1hAA4IuljkyURqpCEf05JB5YN72CHLQDjhg/EQkQzeOuCsWIC0l6iUyU6yDeg4fhuD4ocVa5h2/Ca+mQDzByefhnEw4jfCFT1XvMF2oMVI3gQgxoHBdc6qNbWh8oiyQX3IpHNaCzKtoKjw18p6JgH0OY3SBO0vnS2t/Q7TlqiDpSFoYUE8WioWJmILaLvfbT15z99e5eJxYtPXNresjzKrExcJA28rC6OXMJ3qz3G6tmMs92tdGvj95997g+fe2zGUoeIlUWcpmRMMexlnRYJNkKBqdj4yRLHAMdR2iv0KvJp9idCkx46/PtQJHAIxw9FrJ/5pIE72GukoOSqfRlQQ3CdRzvWFbxdEr29Vfzl3719qzdKjhzd5bJ0PI2SlMliZ8f0dp8+uvCVp849ezyeZ3jZErh5kOHqiIa1LaJo5CE4t9TTtLo3uLGxubnXr40F4U+lbKWkdZmMMhnHUbS4vNzttJfnW3MtanDEyaHAOzmqi06cCrJGK8EEtFq813mSJhOKoulN3+ft9aEd0+1jPSwcGAwd05NMF7xBA6PWJIRjugULE+Z42LsxnvhokKAC++k+Dpz8HCvuB44fQ/G0QQc2PYpFw1jpkK+cENlRgXlTArZl61yPsUpGVx39xdsfvHVttYibvNktyPbqfqvVSamhC9KVcDzRMi6ZGZlhp0Fxsdsebf3OyeX/5qWnzhCJYeGHpXHKDDqOOSPw5BlvwvJOBtiOUZwpwPHYq/AoxPHbd81DY8Wj7/OQuhVQB28IwAGEbx0epUQjosfmspcunBFXrl/d3mycvLC3OzCDfrvVWGwk3Wz2pTMLXzsRp0Qt0ikZTlTApcNk0jSxGBBdL+nqrc2PV9fWB4NeVQ61LY1td2dRFsLC1YUKS45HxnGjf/h3b7eybH6mtTTTOjbXOXVk9sxStoAi8Y1dp6kq5tIGI6uqkVUqRckoX+VjX4pT2/H+qmC+8L8DMk6A1XO/HdgvIPId4OiVNqw7gKr7xwQ4PmgFDqXtJyh8x8n2D/RLv1l2YzRJMsqL2tSmkWUIeylqw51qJSXRz4bD7398/f2d3UGrYaOmcVRrnQomTYU6S8bPWoQ0TFjnOo1OvnMrpeKFc2dfP3dsnigzBUkNMzQcCV4uENKBpUBd5wUNwfwGTRvu6LZ/tD8PteNH27XjiF+vpyC9wvuzffkO7Ug2akpyQmDTBtGPL93+3nuX19N50ZwVwyHv7zy5MPOt5x5/ZkFkKJGUZz6tuVcWFM8Inu5oevfG7o+v39ysVG84GiplZMQbGU8yK2ReVSC58EFkHDx0BnQPliRF4JVUFaky5XahlR6bbS0241efPj8n4QVKEE1RRU4zVVvjorSNMj5+DIEovRvtgEynrqmAi57Kzruk9vfZf+3DPgcRdBz69SnbQjhmisLhZGGWD0s4fk9PM13Yv+Qd57vrHgf3/jUtG8YK9IVrC19LxlA5qutmXGb0s1z9+/ff+9GNG2XSTGeWlJGmooSjdJ8kMiY2NiHRZnGrcrxWFbNFVO4+vdT8g+fOvt6gBdJpvktCIlIDkd1jN67lpH0p2eBO9in+SBdCzLmXSnAf/pru/7f+Mofa8aN/BGA9ho0w2FBRAwhQgrgExnVNhrI0XiJ6/rFjNWN/9vdXJWNtq+fbyYsnlp5fQNBSMdyRDa5AhyxcOjOidG3k3rl0++fXVm7WVSklRRlvduM0M1zUztXGmqhBnDkhfHlPz9NuDLOuKTM43FWi67hWVVGZnc291rZbG+QvP3H2qcUWbBdgzY+imKphLr3B0YPf9PUNfAoBEae4eQ8572Nx0H8/ra/eoRR/Wvs+uMNk+f4A+4mL3qNhj2I1Wm9dHCFSHPkunGgh3rWIafuzn/39B/29PGpEnTkt4rKsuRVpmrGyAseUNfBkIpeucsYIlave5qtPnv36k4vnUeHaCecjsa33uIKFAwMSok/GTx0UZt8BiIIM4rHjGIv7i/JRiOkf7zUPteNH2bd47gEvY5eND2gKXMgI08K8UtmKmM5iRRTSQ/78rY/e/eBKl4l/8vWvv3QsFYZYWc40Y031thrpqK0pfmtz+Bfff3utp2aOny4zUVhTaQN6S7jfmfaFkuIsRZoFMi0CRRk0TUnMDPOYCRnHQvh6ps5FzsZWZ7ae4ebp44uvXjx9EnQzOrZVhyecBJid9wEuvL1eb93XlKc6cojznRgr9mV/r3d+ep6w66d38xf+hLodEHls+8FhBw+atnMs+k+j/36bfv1LGMe833WYG8WFTGlI9INbg++98+7lwUC326w9Y2Vc1UZVWpJsRYmsa1QhZA7BMYyR0UJVcV2cmWn93ovPvTjHEiI+HC1mUnJLlSKe+Wx5YL2PHw/ADA6TaS40hO75VYJdI5gzfv3S+C284qF2/Gg7PeAUYNFTdo3DBXycE4JmScjE15eujZIRWyb53WfPnpAqUe6pxbSFUCWqKm2baU2pi9JrxejNK9d+fn1no450ez6v2agaWmR+cBBlSl/pAqxdgR7MorCnLy0M7k8B4rKsGQtHlrPa01JgDutAwtaOov5gd3TlVlnVr1w4da6dRFwWvn4EnqEp5B20OI6x7pOQB4fbdO+wOMXIu/aF1+LCljEwhMOnQBzwd3psoFrw2HRgx+lmP3KEuAG/GYX7Pj087O/+61wKY4Q2JBuiIrpK9P2Pbv/s+s3VWtHMQtLsGCbqUc2sa8UZwtuKqiVbyM5htXWlqYdCjzrCLjf4P33liZMpjEsNR7LZFJ6cyEgZg40aYz2KE/gxC+x/zpfam3YLtPPwL6jR9++gX6eE/pFf6xCOH3kHIwjfhwUw77RijBCj66nqPUwgrMymeIdMzdVZIc996XFwGpcl10mWMClaG0OtWvJWaX/w4a3/9M6lPmstnn7KucbK6u24ySNBSZREImaWGWVUWWtjsmYDEWScGWZAlC+gJnOyuhgguZnHLkqtzBwHw6d2bifPZzuL/Xz3p5dvFMOhffaJM90GL6rjSD4+8Blj7+QF/gQiY+wJnsr9A7DjZGesPbjsw2CnnBiTmcQEzQ/A9P7pgmvKI74LxJgHt/lTIGIg/PP0DBiDDuzzSBcZka6USBAMc53oP3z08d9eutJzsn3kuEK4uHS1FZWLJY8dN8xaEWmbenLqgrmau7Ibq4uLzWcX516cyVKdp7kFZ55EvPkQ2eaR88iLPOyAxV7iEHpQDILBIpTXwqo7uuORSue34OKHxopH2cn+jTDkuQI0tFGoxcJnHkvlG1Ybp2uKOcuimqivB1wiCS+jSNScTGQEH8W0R/RB4b73zi/eW9lgrcWat1e3R5pnC8sLo3IrVM1DSJgBlXwEtnmRl4UD/QPM1oYjGc/gr0pUDe1YxIbHhie1ZZWyVplusyHrsmGrDumGzhey6LkLZ187PXckMGz6l9wrr95w7N/2EPTgJ7zO61shaTrYKw+K/eA7f3D5U3A8PuiuSu94m2fX8TgLC8YdWR6BJ9Qz5gSyDuyA2iUHW3P/5QNBuGN7iG8xmjRuOhanAM880cd4iz9guilcB7FmYSlQVBiiXaKfrvX/w+WP3u3vjRotnbaUEdVe1aC4JeLYU/gbZhzi0RqDIZdcxrKSupdUWyeb9LULJ7564kxH57Myhg6sqDZMx4mCWoxqeMJNrca4Nrx2GPInrcZkA+R6k7BjXwn2/kI53PqAJHAIxw9IkF/0NJ5dB3U9Qyxo0E6mfm3/XnuDAQN/Tk0uJ7szWD/BGlnSocqNrNvsxLeI/pd/91dD2TDUIJtyGztC/T0DoFcuGHfH7/3YmuBRAZUuvPkY72KISxAWLhyPpGCvD+AKZ6M2zJpEsJiRKkYxp8dOnXzlsYWvdygp6qMZIu3K7c00TShNnNEqjhUyS5C6ETuKjC9/RIS8w4Poh3aM8ehuIgybwvcdQHavA4MxZHrgwZNPNcCpsxGM6/dtwCca5dmSICj/GUvSXyDkyIQpvge2sBfjTkSakDdCq51vAAAgAElEQVSIjBv4y2CxN3C+eTpTGWtDStskRbRDT9GqobdW7A8+/vCj4c5uJnWrqYW02tU7gxPdhRkRVYNhVRdRGrNE5M4Mre20GqLfc5trzy3N/+ErL3ypk0ZKz0dCIPN5/ECBEciPBmBY9TcwtbeHAeGAgfjgUwFj9kEJfkIchz8etAQOjRUPWqKf83weJBHudgCj8LqM35b9V8FDoyeXWWwvgy9yUJHlcia7Xem/vPbxXpzkIuUmkS6KEDPhedgYAGSMPWNlbgIm++0Moad463zQsxgnyo3f2zGEpUmslDJEFeelSHfKcri6m+f50edOPd+IkQOnVJqlyOpzhoHyHvpnsOOO7wcRr14xmyLBfhvuv/TpNof977r+DlPyHfsEgY5lcf+r3mWrD0Px6/c7Jkzp/Y2FLR6UJ/HjZV07Jj23KYEUiJwDf74z2iTNliHKtY0zmRPtllSn9G9+uvLxqL4+KEY8ZlEmeGqMM1W9tLg82OuX2sw0G1nazouhLqqoEc215HD71qw2Lz/5+FdOnz7TTDJHM8g69yONF0YQgfB/fLuxdAB/0ew7+sRzsd5FAIerHqoEDuH4oYr3AZ+cI2vZIq6Bsdo52cy2DP391RtvfnDJziwwF3EnOQqR4G2Dc9yD8QNphLUWXLqMJUniK+xJrfXmTv72B/XZF8+nRHmllhtNsprKghooF83H3EJe+wyWg3tptA+kiQ//JB6k9qH8AIRhAoLBZlwDBljoBx+Q50sORn1MP+CutUjkZlJk6dr2XtydcTG/HULLVfU3b773znqvT7J2LI3SphNOi8pQ5WdGTKQUMRXHpa5z46TgXZHore2Fon5iYfG1x84/M8NRELoiEXnLgx9gp22CePYR+eEL6/AKn18Ch3D8+WX26I7g5BpQo21e6nSmhdIhVzd+fOnjkmeWErIRtwJudh84AVcP3F0PxiFjjLEgyOeMMRSj41wpJQx779rNU93WcyeWl9KG5cSRng3mBA72iAMaWPDfj2tTPToJ/mpXxv1MDR4gigfoYkX4xoqxVjwx/jApQdcPawXInX1SnC9+tLHV7yzN7BKt1qRj+tmNtb/+6U8GjNnujHE80hAgrzRVSrAo4kle2Kw1Y5jeyYeSmXZ3NnKm2tluDvZePXf2pQsXTjZ4VCOvvSnI1Y6BVhoWk+CyC/e9r9L/anI4PPohSeAQjh+SYB/KablPilNktYDz/eOa/u76rSu9PD35mHERc7FA0WCUl0MFPO7LHgXS+F+5OUII5z+l/1hrGWOasz1D33/vo2aSLh3vFkSyNkncIKWFlIiiCADgAAqwIodp86/cmEd5gikc+0bg/vw9ToEagTJwj+FWRajxah3q2oVoBhKw5whqLnVWCvhk+zH96//4k8vbW3J2YaPoR03YjpKSy5JkZUlpzoUTrtOdKawdlMOyrrvNJEtTGg3VXv9rZ8998/zjZ+fAdyIKaiFr3aO/t0dYb4ga01cHu9ijlN3htX+JBA7h+JcI6DdqM3dkdB1HqYnkx7n+249vXx4WVaOrbEwsEQ6qMQdZJ8wUqGPK4EH67K6q+98s59wYo5RyvmJdHMcI1OjM3dhavbq99/TxrgCRrkg407mRiK+Dn8zP4hG/gXDnB6Op37+ZD3lrwN3AruGBOIw4wUh7YLgJMwPvKERkNzGgMPiANKOCEAwzyuh771z/ydWPR1k2iBr9fnn0/LlbOzcTISKZyjRNWMKE1DZyTBSV0ty0s6zbjOv+9tb22vFO+7Wnn/zDp08cdZTWYAMEaZ1Ps/M88si39KEkGC9CBAVaHZr7kIV0ePovJoFDOP5icntER3kaTEeoPn15p/fW7bUNHrG57lCLTMbQi33wvk/oc56E4gGZKsCKgHwRaHz+IyWi5SzZOm7oxszlzd7bKwsvLTezjKMmtEBQlSdwRqYYcMFnHsJi8Ygk98Aue1DHH0MbTPSIWPCDny/2jNAUXweWSZhuDBE3PPKUfbSpaLPUPcv++q2fv7+20WdiqMp0YfFIq722vsVl6izVTlQ8YlEiRGwMzl0WwygTLR5JOPaKhrAvn1z6vSePHifKPHFqHLg6oIbXDhYr4ROLcN9jLPYDCcKsDxH5gT0ND/hEh3D8gAX60E8XJUWl1hjbUmZN2x5LeNZxhXMkPVmn8UnPPq5i7Dx/MC8fwNd/EAyM0FeX53lZlXEStduzN3e33r788ePLzywQFZZaia9ePaGhwcDg9TYQInzKp//QJfbgLhCAbBL5Fe5p+k3cb/bUzGPDjGdOY8qyylNDFUQbhq7u7NzoDX7wzvs6aarObJI0pUz7RT3Kh932nOIjjRRoVE2SrooA8ShC224lTOXlrdui6j++3H3j2ZeeWm4uEdkKHJyokeUrfWEMTATj3DMljwdjyDyMEg9OFIdnehgSOITjhyHVh3dOKDqKqBT8h+99MIzbLu3u5SqRTVeDR8Y47UgrFNuw1iKc+UE1xRikBaAKqdeUAyinjWbUaOxsb5xbOHJrd2N1Tx+bk6AW8mRjAAifieHN1yAmCr79B9amB3Vvn/k8Dt5RZwjlUQQDGSZQ0GjytUtk1sDt1lppI6Mk9vU1CkU1l6XgQ6LbRr+7cvvvLl15/9bazNGTiiWGYjKcaZe5tOm4G7g0a/XyYc1Z2p7RQvTzgum6K6OZSI421rrV8OXzJ7/x3MWzHZBRMKIs8bo3fIgObHs+tiNUBPAc/mPVeGy2CP3xD7cDPnNP/QPd8RCO/yF1nAMc8lqKG9uDIYm+ojJG9QYfgAV+Lsu1Zdpw1CKFXuXLlD7MO4Tqx+IGNDpjbm5vPTG3jBoiMjiUvEos4NgKOQj/0HHAIUy4IA6LcNCUfbYhoqtlIyWthqOKmGx1ZkPM9WYvZ40GFyCtfmtt83vvvvOL9XXV7sxcvNgrtKWYW5TwiK2IDI9AVc3yvFyaP1KlYrMaDlWZtdKmYDIfDTZunesmLx498dzxxdMJ61gbcyOg9TJFjKOIIarQhnBv704Mo+FkOjI1eT/Mp+Hw3L+iBA7h+FcU4K/18FBtvRT0wa3VnMlCA4ATEUmLAmmMlBHKMqP5/9/elzbLcVxX3txq6eXteAABAiBBkJAo0ZLGDsueGMeEwxPhbxMx3+bH+uNMjCdsj8IeaSxbJilSJEAAb+3X3bXkNnFuVjceSVGm9PqRgJQdQC/VlVlZp/qdvHXz3nM5tjVo+Aag3Mlm6jWMNJJw1hdlvWhPffC/+PSTHzy4VSkaKcR0wXjkW3kWbfx98FgiVESjKDfLDuHcgghSQdWuadq6no62JzaKp7PGC1WPinJndEz0T788+rt/+ecPz04Xo6q8fb9T+pN5K8uxiNqQlgHxgCqSDtBxEqIWnXABom2qDEb2wnXu4tm9if6T+7f+8q07dw3qs1DfCulJqyUZFMnjRO8UQZGIN7mMk3PoGq587vJaEMh0fC2wXlOngWgWaCbow2dHwYwoaEW6JEG209GS6J3qHQIqoPKugmZvJothXM+ABCTlwmhc+WWMWn969OxoMb+xNbFEWmKtf3iEyBK7mBVecQNZGCq4eh3WTD0Ce4UUEu7dur4gYSOSitVWDT22M3pyNvs/H3zwrGmeNd2Fqns99moci6IqZWsjorTxDykkATW8kUFdFvWia0QMB3Vx4c66J0+2SvH2/uQvH7717vbWbeZi1H1WMNBt21JlkhLSin8BeVov5UmYffVJwxhvk7todV3y60uGQKbjl+yC/MbheKJ5pKdtPG66uLWD+j1SG+uE67XsvGqdslaJEKX0wgStgggKmbnX9MCfuQ86CitEUZWL8+dH8zO7NWmJjCTD8bcwkIUQPkqVYr+uaSzfRLdsbMKlEAiKS3AHoZCrDqQ6Eg1Rx2Vc50QfH4V//rdfvv/4s1/Nzsvd3ergTiVV03XzRYiOIDbtLBIXubyfl7HV0SK8WIS+N0bvVDqGxlycFb754/v3/uJ7j97RkgshUtc2lZQwiFkLiDWnYK0rIr1O+UDF70EkCQSMI61+Ba/4fPhNXOZv7xiZjr897H/7IweiVtKn5zOUp3RhNB45J6ltSuEldLt6p5xVMkajg5BBqSCj7K/RTRCpkDpYp6RUWpFRz89P3O3Xe+RK8xIT/NdwWbB3m2PBVrTw25/9t99CJCufKESppMHNAZfltlzS8Jzo2ZI+Ojr7l189/fjZycLFUFb1g5uny+WT04UpqvHW7g1TLtpudnRR1TWHYcM4tipYJM0EBaBQTnpxdlG08+/uTf78u+9+/+7+gaApantHRSEaaaHmpkhKM5jGCKwY4toSvAJULZKoMadoklyFGGY6/vZ/R185gkzHXwnNS/hFICQRPDk7l1V9cdHsbBWxc7ZZlmPtUdbeeWmd1BSiEkJEBV/kNZIxPNPjsurbuaYYgjeFPj47xSBZTd/DQObl/QDjDXJGbKi9hMB+zSEJjijzAWHFiYs90UnnTtpObI3//l8+/rt//eBpY8No24235pbm3msbqZqYalvYuJhZGV1lytvjG0279DI4CaPY6uCkd5g8Y6lJdc2etu/c2v2rdx7+2Z3pmMjO56MaxcGD0EFpr1TnQMFQiWMjGVZ2CjNe0TFcFhzxnTazfFzKSdlctM3XRC3v9rURyHT8taF6OXZURIvF3JhiuTzZjtEFZ12j9DQg4FioYLgwtIZ6Agp6CI44va6hC4plSYv5UujQBThQZxeOS5koFg51TkYOrEB8Hk8PSR5+bSGzqZYU5VYLjuvvkjMUN9mXN/177mfWwPyyh3ro4gumYVL9T+isA6Iv7ZMM+2EE3IXyQfSeLKGgRi/oqKUPn7cfn5794/s/OfOxkVWYHjhTNIGCUeOJuegWhSatjZDSR+9av2j6prGm0MhjxyJeiBAXgXehCLY4P7tb13/+3Qd/8fD2G0RjT6bri6qCGnYInW91McYIFSEyg8H9IkSDj5hvSnh1b40f+42+hOd1/Tpyv781ApmOf2vIvsUGYDWiInTzk9ntm7ca1/XCVnt1E1sphApl0RdCGqj3hBDVeUCo2zUWH4rCLbtjWbkuxkJPyJVd13jC0n9BiEFoxKJzdmR2FQnfUOz8uEIMAYvsIzAP6XqczeYC5CfBfJLVLZjOpUOZ1Bd0nJgy0c2QDcxXY82gyEUePNSpM648BfepHDIz1tTEbEXascwz1tTSQtdaLRk6TD74HkF6imMphPCknKyjQpbzR6f0009O/vnJ8cez9iwIGt11hWKNiCht0OSLGKJbVJV1vrHdzMLHXsnxSCh4/OfLJjqvfBgLPdZKhr67ONfnz//bew+/s7d19/Bwh3WicQHLFDYIbaYKKhgYKoJmOD8w5T3jvWBTeZ2GzpjwtiS9DH8R5rJLAHyLv+R86F+LQKbjXwvLS7qRiSiIgJLP8DUSeRG9ij4G4YUISlMVg/ZwFFqSHac116uV9us4KVBOxNqhsqhRTS44Ys15Vp5n6QyjGg7SVZrGpeo6q10K9oAFL5VG+RPkXoMpfKpsHHGjjcDpdfzy5bEnQvm1v1xBzjm+S+cepFApEfDXmMtJQCMGL7ylgJIs0PYp9DBTNF2UWotKr90APYWFjx88OXq+dJ+cXHx8Mn/S+Jko+3rqyhHMYVT/hCamjsFEx+oU1naNF0GpspqOVbVlg76Yd8vz2cgU25OqjtrOjpefHW+X8j+8efcH7z360ZjujsyoYFDApoOtmzLUk1T8pQlqwAUeqfWcdBkr5t+v+Obz++VPLwECv/ZH/RKMKw/hKxBgbXgVokBZ6BBh1aWaHbjlH/7u0t/mN2AHiSijl1KYAD1I0Udro032ZQAxt6qQiuSZ7+YLGptRNFTWJsDtibFGCp3rqe8ExaospYA0MCKWfQgeUQJBKVvUfiWQBgYdTL3PobM2+JCU4SxMXSE8GD2y2igiOwLXtFcSYWlIphn4K2A4RLa3OKDSnTA2Uh9IVRAGWRDNiE4bOpr1R2dnJ6398HR+3NrzxbJDFlwpK+NEb6kjLOzB78ArZz6Qt8hUF00ndDExRdVZ0S/Pg6dCma1JIW1Ps1PXzsfRvXY4eevOzXfuv/5wi+7wvUU6Pe89G/WUpE0/d875w+8jApmOX7Grir9x3K1KFBjFAg1upCEXBPMuMTALea0J53rPT0SH6ntekidryXqJeFoiKiRFFwyZBcX3P336wePTsjy4dXBwZ78aFzTSssBpSKGroJzwru0bQ7FUUiNiCwQMk5mrn1hYumkBCmeV5pzLFt/aNJSCTLXyVvAeqbJJQDVsgJNMXazFDfobVomWoiNldDF2BJWflin4pKPjlp6c94/PF08v5kfz5WzZnrnYjCad0HJaV5Wpa03k7HLWNBe1KZLo8SVxCKymCrXto0YetbXknIlURTch2c9OVLfYNeLR3Vs/+s7DB3uobiUjszrSS4K1qJZYQKWNkml8vVcy9/4SIJDp+CW4CL/dEISShoQOEFDgWtACxnIyjcHIl4lq7Un87Q7xdfcWUYqgRNSRvKfeS08mCWrixp+8dKRbZ//1k8/+9ucfWf10Ot0+3K63arO7vbW/vbU7HW/XZmr0WGtJFZLNEJLhUE9VONA5RRtwci/sX2bjNf+u5p9hwCKSXe2KnPGVPDxixxzoH9WlWXlZQO4TPliH6hlN63zXL7sgz1r/bNYdLd2Hz8/OenHU+jMbG9LOFKHa7U3Zj8Y9BeG7LrZNuzDUGdVPJzL6hgRK4gVIqen0LGJRi6lvPTk7UsVWXRe+t+cn3fnx4bh46+7e9954/a3XbuwbqE0URMh2X3FvUs5LIiHJRv66VyXv98oikOn4Fbt0qPSjDGQbIVGABTxe0wFBMSMnpsJtPa+Rrcjpus5SSsje6+DbKJEPYUwKwGJhHetFiXDYmRMzVXZVfRLkk/POzHrzfFmbo6262JuMDrZG25U53BpPjdwqTQXheq9QPBB+5VquPRtg4rUsDt5w2MBw2nyiXiDgIU0IaQkweU4gdiYphUKnwK/07IiOF92sWZycXZzM5mfz9nTRnTVu1kdfjjthGjJOl6Gooykj/C46BKeVVEpIF4XtKXRSOaPTqqTkadJEUXgyXqBW1nLRbZmqrpRoF83zZ8K3h7W5dffgjx68/sbBzpvTmpWAvGsXxuhalcEHkjrxb+Jigv/GGQMc8uP3G4FMx6/S9UXcq4DzsVCaw5vAx3CMDnezzMVDec3hnh7242V7eaOnK6LQooTQfWgCOa2pMvBCiNiTtdHDtd1H0ahSHdwsdm6d9tTJ0iNgofddK5u+ODmdmNlIC2oXO3W5PxntjuqtUbUzGe9uT7crGkUyEbEWUFDjZ8jlcBABPMA8BQ1BEUzWPUtZ+pSgEQgCd6kWiaI20EVDZ7P+9PzsbHYxXy7nzj/r2iaSdajtjIRnPRKVoYkhpRHGJ6RBDWbngu07K12YSFOaojDs/JDKexU6H9qo9SgIFUUh0z8yUWgdonHzkejqGKRdmtjf2al/9OD1d+/evF+pElHMQZNTMcqiQCBH32IawgomjGTnXNIy5bLTG71yubOXEoFMxy/lZfmKQQm+pS2lRBgZuxrhVGWfJd/lplJ0YF/OgmMRhGvjYh4j6r6FKMgHSd5IX+kIp3BEaQoRpCe66MNJ686j7CI9brqqKpUqzXikxtE723rrgl9Er4riwoXHJ314cuHaRsVQl8XYiMOxLIQvjCm0qVA2tSiUVkJORiNwcQpQS/cFTLtt8H0I1vnW2vSvA9XSs5PTIKQXqJfC4Wjw6nSyOBPbvqhUhRAMwgQC3y8g9S5EH0KHeGklSyVLHYWMBpZ2H7rg4ZaGFIdUY0hPeC2EUqT4WRuoH8ciuFvTuj167Jbn929s//gHP/jBva1DziWpKejYae+NEEqmeA7pYyAEg+CaJYHpZCanylhf8aPIm39/EMh0/CpdS0FUEb19/97f/L9Ptg8O5ta3i7kqXF2Y2Lc4E1Azm4xYUEuFK66Xj7u2Ozg8OD79dP9Gac8+feutRxrWsSPSkWRLdN6Hp/Ol3rv5q/mi3j0INvjoAvLReIhSedz3ayWLLkYEihVRTGDtzxHY0D91p0JYYS1WMIdzw5vgWI9ytSU5kZFVgbNmohYQnwxCJBZW9RY7dkVi5NTOynKhplYYpCZTkIgW9DI6Sa4skGJuUFLKKRHIdcFbsm53sh1i7KKwUjtRRFl5WSBGTuronLB9IWIhvYx9tJ3o5vH44nu397/34x+/dXt0IGlC+FfCKO61iFIBLbb1NVY2+YqtF+6QWfnCbf4q/VDzWH83BDId/264fTutEsXuj+hwa+vnJ8c7N19fRjc//2y6O3b4w02eYvBvkgq7Rj/FAEB03l7MTvemI3fx2eGouru3o8iPVEWWrNCW6djpsguiqEcSImadggXK9jtnDbJ1LzxL9wpQczLtsUsU0qlJhKDzpVPiczOaMw8T9fIz0oLRIHA2NjznrKgDWxiMzPkmiZEhbQQLVHgyTmhwOBgcD57OAHPvHDy40qC36KSEOocpxNnFhZI6yCrq0ouqj6brpfMh2MX2qNob1bKfh8VJRd3BtD48nPzw4ff2R8XemMZcdtZEWwhf4XiIhgEVY3lRpagPHsD1+Za+nR9tPurXRyDT8dfH6tvfEzzhwr6Rb79+6yf/6x8PXr8rpTl/1kgasT7BeoRpQQ+2Ft/Hr7dv/E2UKrTt7MZ++ez49I1Hh/fKXUGdItNb26pRS/TRyUkbabZY6PF2aC4mYWmixahSNh7esFHLKRRs0QsIqbOFG5CbUQcUvmDiSls5/wWqEcl3zNZ/ciJjN4Qup3kp0TH8GRGRFQg8xj8EaKc4OryUoeEPqC4KuIYqRlHwwl0UovfWOREcJN61EuXWQRdi50XvhSMhtdGjaiyVCY6Wp8vnzyZhfm8qH93Ze3T/8M7uzoEwqYgdKJ+sJlcwAfMQOWYRkRhg5rRKufaDb/xS5Q5ffgQyHb/81+jFCEWMJfkuykf3D6b/ILuLs1iX48oI76CViyyJwcDjKqaJlF803/w7EcvayOBjNy9s+/DGjW2SY1LeeV2NgqQjoo+OTqwQwfuJ1sv5opK9Bh0ngk3RZqzcAA2ykBwYyS0BsgV9Ir8i7T24xnmGcc4lg3b4ljfCHDZqLTPJJjDrS0b4KJjSgcl6ipIUymCR1cgBgqnhqrkMUVi4hw2KQAvvvO+d66I1RVFNJrWqvBNtY+38eNm1+5XeM/7u/b13b7/56ObkVilKWlJ/auRYR3i7jRQcIyJREADLhkP8eDp0ss3T8+YvU+7xFUEg0/ErcqF4mBKJEsLNl3e3R2+9/to/HT8nN9nbmnjXoZgo8xNzTTIAeSnvOu99IwWpw0ir2dHjm5PRg/39gvoxmX65EFuVI/poRp9dzIUpxkLvV5VeXCiorCPzN40zkWPK8uCUO0wqvCYH3pRByj7CmuRHYt7VexSrXj/SV1bEZQhIy8MDIbwr9oVyB+zxgaEHUHTwRWhBx5jNBocJ5IyFQOFszngsi7IsRyIKZ53tm9KE6Pt+duJ7p4LYNsXuuNrZrW5v1Q8Od757y9wgqnF258IuSyFqhN4JGZHJgkHhSNKhmJ5hBFK902E81z9/rgHLb15GBDIdv4xX5SvHFANFVwQ7Inr34Rv/evaP83ZZ7ewuOqx0gX0uMXKyMb+yq418IaKLrXM2dstHD+/fMuM6NPAWKNM6OlP08199eto2dqSM1qbryiCsKB07H/j4awM3+VoSqa43gg7F57JAXgx6HZObNq2ZeciCXvUOVwgoP8YQeCUQRnKaChC9ED30mAUDh2cu9gpSFArVskOM3ve+d52IwkPmvzPea98rH0qK+9PRG4fbD2+/dndP3hJI5YDGhre+XxQijKtpSYr5VyBLxnO8HnwgUhcGsYlDrmHkUGmcdTr/F68vTje/+4NAINPxq3WZI9l2f2ty7OmNO9WbT+/84ulnzWImBZgjBbzx+TC14M969Qd+XWcZhIzz+dnrh/vvvfP2iGhLFtR7XdbzJjZj8fR8RmVpvVfRticn5GVXb3cITX4x2iFObzX+4SM7XgTy3KDIfnn4iXlTXeq0fc3F8DVjXWwwiuFqh5+Y0/o81IR5CQ++atA/jHAESHhhooDaEdMxSzOJoCRrRnvv+851nSIxLsvtkZZnx28c7D66f/fBrcPDEqrwZYild1Otg7UxhLIsQ72DcLhAZ/Nmp5JcxQkcj4hA5IXDeudTQqrKunAHn7jgiBTWD7p8zvn9HwYCmY5fsescXS+q0MyXB9ujd27vHZ09PTk/mezs9Gxcpaw0YqOPF6yQC7ym5PXbRAN865wCqZjAVkgk3+rg7+A2yV5N3zOPImgXB4xhrPz5xfO33v7u23WpKBakTo+e7R6+VhmxL2mP/FvT+unFwvdWNb0pxtbXSdaHjVR0CTLlu/SVlCYfjcOAMfjBhbzak/dPYwCn8pheUDuJEPzaxYx9Od5EwCfNBCjAuvAeDxTOJyIQIwzowMke/BiD65ajsqihVNp4347L8vbB3r393fdufn9Py2khECkRfenthFMjaTGnskINbRdt52yUplZb05ocVxblaBEIG/noLBYVlcJcOXgnBsN4eEk45+c/QARETvh5la66QDGgk75ZmLEXxfuB/sf//befffTpIsqLPpbbB6GYzDvvPFVlZZQItuNVPmZO/tvnQpmpViYn08EqhDuAbUNYb4GVKVMBOOOj4UpwHPog+r73QpiqIqN70B6NY9e8/5O/+uF3/tOP3rtf6C2irRgnkZAJp6WViB0+Jno894+PT549P362bD9u+jPnF0vIIitTamhMKkfSRtRk9kIFqaJUEckaWN0zDiWLIF33gogJMsmKbUxm5DUdCxK295IdEjCNoamBKDZ4JAL8EiJGrtjHdjBmAayyxeC9s9FZ4a0KroheB1/JuF0Vt7a3XzvYu7m7u7c1HRvYwjc4Xg2dc7QwEtVZ1V/5RfsAAA82SURBVIml5hK74nk9JIjMDdwP9k0z4jAXwDS+fFrpQ46teJX+Ijc71mwdbxbP6+0tkrAUq6LWZBqiW5K+c3Nvdnb+88fP9/duNiJ27SIGMroUMvSBvHcVRDBBCavVs1WQ12CXghkCIssCXKVpL171x/eI2IWlTYHquuy9FRQLhC7Etmt8CGXh33njztv72zcKXTM9MStJxBD3vZF6R8uRpN2Juje6cfHajYtAT5fLk2VzOpudzxcXTTdr2rPZ8qK1RT12QnlpPNIvNJOykCQNUuHAZ0LCamY3BKaTtumw6sc+5xTGjAFHOdIVKw7xzBJ4lsFiWjQKIQ2owcypdxGzCQTml7PzUslRUUzrans83hmV20VRS/qjRw9GkiYK8cIV59FJfq7gTVjR6XC1eelwfQ+CjdghbWDGvfzdi69WvxWm79WH/PqHjEC2jl+lqy8o2r7RZdWTWhItiU6I/v7jo//505/PCMU/GlmEog6q7FiuQRFVKMbGfMvWMVuEiT5wG89KcDESkjAS6YmoUqAuc19iQNiSbbPc25oWUjQXF6Hr6qKQFPTs+L//xx++sz+9PS6xkOXDmGJNhJUrqMdj2cpL6gjVjOyqnFsgVNNYOmp6mjX+bLG4aPsPfvVpH0UX4tL6xrrWWuu9jXG8NYXcDy+rRULasueAiaKqkgWaGDkRpIyiW/QKcscw8pO6Bafb0WI+04KMVkapwqjCaK11QeL+jRsjpcYVuHh7XGxXNFYIjRjxuhxKgnIxOpRC8p5iqKtyZe2+Sr+cPNZXAoFsHb8Sl2k1yCiMKMnLguKyt3VdHBB9//WDGB/9zT/8REVZlGOhq0Y42zuvdDUa+aaDVcg2GW6hwVErEuaQg2RipgNg4Qt6aMJKYZXs8QxPaqTYKroI/ZZUZUGx74t2uTce3X7t4N3bBzc1TMhU1tMILrkUPGmTTG0kS/C3iRxlwMcptM8oagoj1e9vtUTzewedp2VPiy7Mm2bRtl1v2+A/Pn5mBUv8ONc7a51zAXI/or8Y6Hh9AgKDn6KUklRKaq2NlEazwoWIBw/vayXqoqirsq6ruiqLwlRS3qgHcUvDxi+LLYOCySPLW4eoYtCcssLsjhqtq2C51UXJrxmBDSGQ6XhDQH4z3YBVNXVReDdR0qNaKFwW5v6Nzz678f7J+afLWUte1FulMb0UPjoOfYPXgdU4EWYwROMyF6cYAw4FwwmoAF1IrpkEZu6l9EL0cI767ddunn/2iff2zZ1p6YU/OX/7te2//tMfHkqasGi6DAQ1HE58g3fD2ySNL0nVgsoUHhEQCoZFNQTscVQBFsSojnRY8eYxeZIOFTvHPpIV1NOdHqWpqY9kPUqFWAcdZKyWpdjilU85JUnXstQCwjtGk1GQXU5JcYG9vesEOc6R4+RotoJhAvOcAZ0LD3XQUclxzdGn7oEOXA4pd+Oy8+GbufD5KH8QCGQ6frUuMy9d2UhSGQMlYG9dIeINbf7LH783/cUH3S8+fLI4V9oUk2oZqGkWBgtY7HtFmAG8rqwXhk2wk9lDzPELwAH1MLEJ/uVh2X/wfYpuudydjsvF+ezxxzeV/+GD2z9+9OBNRcoSlvskKYnSStylh2wEyvilwAhED2PtK2kPg9BWvfP2lHW3XFi4h6U0UqBQHJfm9CsXBzu4obuDfzBbSUJ3E+Pn8Q7PiSZTrdbBJGcWZu93OsEXlztG+JQroV6k68FDHaHjYxCYhyg7uHD4X+paSELVjvzICFwLApmOrwXWa+yUV7XYUsPSVR1djMGSeEPr8OCulupnj59/1vqmWZAohMedNQd28XoRFMLgUk1bQZOIAEu5aiBtOCo4EsBxzJeIqPMhHIxrtzjf3xlNi0Ib+e7B9n/+/jsPR1uhX0xErUHCiNKFLg4y3CJpAU3IwGnOwQ+a8JgKQttfQFge3gRoUULPl9V8qjEOlVbB1jyr2YHAi5BAdM28kd3Qlz8mwBG1yxbsQJ7cJPFyiEgHTFkh6yS/SLGnjhf1kCeSrF8ISFPEtIAJCzpr684H7841Xt3c9R80Ankp71W6/DA6Hd+6e76VN5EKRTJaEsd9J4vpMdH//vDx3/78wycXbaymYjydOeukhIYZ652BIcEvQzQVByYgzi05YFWMxiONzQvWveSiqIKijvZwUpz/6oPXKvHXf/ren94+qMkaN9/XIx0KiFOmyF4R3KD2noQuWZPNJ0mgoTSyFz3BHh0eYTA+IzsVkrULizRleUDOHVFqiV15qmDzG3zNWW0Dfa++R6oFEp5Fqk4KNWIMjW8I+BwHSl8HnwmyImKFjkXmOHwDSvfsUEE/q4kBDRASGmikyyGveXUK+TUjsCkEMh1vCslvph8QD/4nyzBxM/ydYm6dN6OO1DnRR+f0s19++tP3P/rg+XFx6zVfltIUQSoXqfOh50AKXZbI00VwG+gvFQdVFINtSqW0NMJR6Lx2cSLVVInm+eM/evPOn7x9780b5Z6iCcTJmmhtrbYpQmTYpyCyFb3C45Gcx0iTG9JTSFKvvOPRr23eFZdiA78fzg2+bBKovccJHAO+q72/4qMIOCzY+tKO6HBF46nd2slBqOd0qa90J8EjGLzgsIhXkKu03PfFQLehfX7JCFwRgeysuCKA32jzwMYxmA4pEpxpljybMU608SSKxBdTKu/cPjDlO683f/fLj9oQYt9HhdAurXSppBOy952QAonD4KrBCvSoqdxHJQWh5rF2rujcNIhtEv/1z/7s7m51ewdBEQWFKinjmJKdG4hcThWUofiOyQJkmEgNAAl4lvECUoTzIHFlciMMEwzvx9Y6f8uN0Qi8yh8S0pfeMu1+EX9EdvABLu3IR8PnoSv+nIaATJOUkszfD46dS6SMY6eu2GHNJ/bFY+bPGYHNIJDpeDM4fjO9QAmBAxM4Hiso9u0OhIH0M4dKdZL2JdW74tbo4CzQ1nT0ZLH87Oj4+GK29B76vEUhtVZKogZ0SlxLZjIsZae0913TztvY+R0zfnT42nt37j3YG93boYlEWVLCvT2y56IkF6NeZaAxbQ0ct0aDeY3NTzAyNutUCQ4Oa3xklzbvnkxObOQv1tYtukx8yLt98Qi88cUTxNh+7UiYR9fUOrAq5CxS6ESaK9i38UXG/fwRMa7Pb3lx8PwuI3A1BLKz4mr4fbOtvRDtQMdRUVAhKKQ6c/16Dj5AJp5QQamocBu+FEhT/nRJnzw9fXJycrpsLvp+1tulc413XFkZ0QPJXoWbVQYbuu1JfXt77972/v3p3r3J+O6YdolEi/hcCC2gllAg6RFy5gPS8aJcW8crcRzgkogreanZXZ0omIk2sS1olrkNPHmJhdf0m+oWJeb+OlAjngPm+W98rHtHiIZwL/Qr/n2i5fFgrTI/MgLXgECm42sA9dq6TM6KdNec1uP4dp7Nx3SLH6DjiNtvyDRQj3Jz1K6S4hqik4V7cnJ6dD6LUlmU+ERSBQISpDKo9ybrrdG4rg4n0xuF2iHkd6BIvaUaSRZYlaMCkRRJZg3BzAOLglWT8XmZq5IduXpG8AaPK80fKyJOfl14sNOWtDuDyAJnUMa89PjNZDhojF7af9URXj/XEafbCc+riYPFe8n0/cKuqcNMx18ENn/eJAKZjjeJ5nX3NaQ1gwwRnZaSxXDQpElB5DnbgSV0EGYcKNqYKoUg9TkFZfRM0CoFaCBgAFEXRlIhhniLoVCQJ+PtSNJYS2REwAbnvYWKUnsWhU/5I2v6TEQJHlszLSOy3kLwOCPneQhqxrcrCk7BHaDmS42RiI1AudV+6wbc76WnNAZOO0wR0/juEqOuvr/UhN9ikZFX+VZHwNHXA0itLnXEX2br+Iso5s8bQiDT8YaA/Ea6AXF4x/TAUmJYiALpgJkj7GLUpZcsvwMr1IvgDDy2sen7LsSgtDK1pHKdkJGcAUmWAStakY7OOlOUoxEyO1gW3Ubqne2MKYmE80LIwgWNys6CqhLJHXwEPv/Ef+l5IEDenuLpQMM+kOVad/g6kXJ6Hlb6OKwNW7gTzubGaSV0V+z4wpS9jHri0bSSOFDqimP547r1i60o+EysyDkMEz2zPyYND1vTltUbeMovd3R5APl9RuCKCGQ6viKA32hzsK7tWa03JbfBiQsuJiyQhUAOQmWeU8vY7otOul4ZDTUfDj22FK2LnF2NKAvDWc3M6IQEZB/JGPLkvEOKsgpKR5RaJur6LpA0EDsrIinnEB9XGNAx6CkR5uXnNYGt2A8RawiGG+iYSS1RKBiQZeYHRmWCTsCyMNuX6HjV5efAT/nLsKQxjC9wZupyvXF442XsKKwD71ZDHgg37XT5OYXuJRv8c8fOHzICm0Ag0/EmUPwG+wD3JtZju23NPMM2jGQdZsbuDCyRDb6MlKGX4toGfuJmn/fGrjlrHRaBDlc7MmOuitet+CsNad3wS3CsBs0zB5zEK7683OQF713eumL6L/X5pQ3pLND2EhYv9sIXn+84iWewHOeL3b600+U2OPnkS7ncIL/PCGwIgUzHGwIyd5MRyAhkBK6GwIt01av1k1tnBDICGYGMwJUQyHR8Jfhy44xARiAjsCkEMh1vCsncT0YgI5ARuBICmY6vBF9unBHICGQENoVApuNNIZn7yQhkBDICV0Ig0/GV4MuNMwIZgYzAphDIdLwpJHM/GYGMQEbgSghkOr4SfLlxRiAjkBHYFAKZjjeFZO4nI5ARyAhcCYFMx1eCLzfOCGQEMgKbQiDT8aaQzP1kBDICGYErIZDp+Erw5cYZgYxARmBTCGQ63hSSuZ+MQEYgI3AlBDIdXwm+3DgjkBHICGwKgUzHm0Iy95MRyAhkBK6EQKbjK8GXG2cEMgIZgU0hkOl4U0jmfjICGYGMwJUQyHR8Jfhy44xARiAjsCkEMh1vCsncT0YgI5ARuBICmY6vBF9unBHICGQENoVApuNNIZn7yQhkBDICV0Ig0/GV4MuNMwIZgYzAphDIdLwpJHM/GYGMQEbgSghkOr4SfLlxRiAjkBHYFAKZjjeFZO4nI5ARyAhcCYFMx1eCLzfOCGQEMgKbQiDT8aaQzP1kBDICGYErIZDp+Erw5cYZgYxARmBTCGQ63hSSuZ+MQEYgI3AlBDIdXwm+3DgjkBHICGwKARFj3FRfuZ+MQEYgI5AR+J0RyNbx7wxdbpgRyAhkBDaJQKbjTaKZ+8oIZAQyAr8zAv8fNr9fyBfXQ9QAAAAASUVORK5CYII=;" parent="1" vertex="1">
                    <mxGeometry x="770" y="99.65999999999997" width="124" height="88.68" as="geometry"/>
                </mxCell>
                <mxCell id="5" value="" style="aspect=fixed;html=1;points=[];align=center;image;fontSize=12;image=img/lib/azure2/networking/Virtual_Networks.svg;" parent="1" vertex="1">
                    <mxGeometry x="270" y="124" width="67" height="40" as="geometry"/>
                </mxCell>
                <mxCell id="7" value="" style="aspect=fixed;html=1;points=[];align=center;image;fontSize=12;image=img/lib/azure2/networking/DNS_Zones.svg;" parent="1" vertex="1">
                    <mxGeometry x="346.63" y="188.34" width="44" height="44" as="geometry"/>
                </mxCell>
                <mxCell id="8" value="" style="aspect=fixed;html=1;points=[];align=center;image;fontSize=12;image=img/lib/azure2/networking/Private_Endpoint.svg;" parent="1" vertex="1">
                    <mxGeometry x="460" y="111" width="72" height="66" as="geometry"/>
                </mxCell>
                <mxCell id="10" value="" style="edgeStyle=none;html=1;startArrow=none;startFill=0;strokeWidth=3;fillColor=#f5f5f5;strokeColor=#666666;endArrow=none;endFill=0;" parent="1" source="9" target="19" edge="1">
                    <mxGeometry relative="1" as="geometry"/>
                </mxCell>
                <mxCell id="9" value="" style="aspect=fixed;html=1;points=[];align=center;image;fontSize=12;image=img/lib/azure2/networking/Private_Link_Service.svg;" parent="1" vertex="1">
                    <mxGeometry x="570" y="124.5" width="69" height="40" as="geometry"/>
                </mxCell>
                <mxCell id="11" value="" style="edgeStyle=none;html=1;startArrow=none;startFill=0;strokeWidth=3;fillColor=#f5f5f5;strokeColor=#666666;endArrow=none;endFill=0;entryX=0.014;entryY=0.5;entryDx=0;entryDy=0;entryPerimeter=0;" parent="1" source="8" target="9" edge="1">
                    <mxGeometry relative="1" as="geometry">
                        <mxPoint x="668" y="154" as="sourcePoint"/>
                        <mxPoint x="750" y="154" as="targetPoint"/>
                    </mxGeometry>
                </mxCell>
                <mxCell id="14" value="" style="edgeStyle=none;html=1;startArrow=none;startFill=0;strokeWidth=3;fillColor=#1ba1e2;strokeColor=#006EAF;endArrow=none;endFill=0;" parent="1" source="5" target="8" edge="1">
                    <mxGeometry relative="1" as="geometry">
                        <mxPoint x="464" y="289.99" as="sourcePoint"/>
                        <mxPoint x="519.9680000000001" y="242" as="targetPoint"/>
                    </mxGeometry>
                </mxCell>
                <mxCell id="15" value="" style="edgeStyle=none;html=1;startArrow=none;startFill=0;strokeWidth=3;fillColor=#1ba1e2;strokeColor=#006EAF;endArrow=none;endFill=0;dashed=1;" parent="1" source="5" target="7" edge="1">
                    <mxGeometry relative="1" as="geometry">
                        <mxPoint x="369.78205128205127" y="212" as="sourcePoint"/>
                        <mxPoint x="410" y="181.3951219512196" as="targetPoint"/>
                    </mxGeometry>
                </mxCell>
                <mxCell id="16" value="" style="aspect=fixed;html=1;points=[];align=center;image;fontSize=12;image=img/lib/azure2/networking/Virtual_Networks.svg;" parent="1" vertex="1">
                    <mxGeometry x="673" y="204" width="67" height="40" as="geometry"/>
                </mxCell>
                <mxCell id="19" value="" style="aspect=fixed;html=1;points=[];align=center;image;fontSize=12;image=img/lib/azure2/networking/Load_Balancers.svg;" parent="1" vertex="1">
                    <mxGeometry x="740" y="123.5" width="41" height="41" as="geometry"/>
                </mxCell>
                <mxCell id="27" value="Hub virtual network" style="text;align=center;html=1;verticalAlign=middle;whiteSpace=wrap;rounded=0;fontColor=#333333;" parent="1" vertex="1">
                    <mxGeometry x="190" y="252" width="150" height="60" as="geometry"/>
                </mxCell>
                <mxCell id="28" value="Spoke virtual network" style="text;align=center;html=1;verticalAlign=middle;whiteSpace=wrap;rounded=0;fontColor=#333333;" parent="1" vertex="1">
                    <mxGeometry x="767.25" y="252" width="150" height="60" as="geometry"/>
                </mxCell>
                <mxCell id="29" value="" style="rounded=1;whiteSpace=wrap;html=1;fillColor=none;strokeColor=#000000;arcSize=6;" parent="1" vertex="1">
                    <mxGeometry x="10" y="12" width="167.25" height="296" as="geometry"/>
                </mxCell>
                <mxCell id="30" value="Corporate networks" style="text;align=center;html=1;verticalAlign=middle;whiteSpace=wrap;rounded=0;fontColor=#333333;" parent="1" vertex="1">
                    <mxGeometry x="27.25" y="252" width="150" height="60" as="geometry"/>
                </mxCell>
                <mxCell id="33" value="" style="edgeStyle=none;html=1;startArrow=none;startFill=0;strokeWidth=3;fillColor=#1ba1e2;strokeColor=#006EAF;endArrow=none;endFill=0;entryX=0.366;entryY=0.988;entryDx=0;entryDy=0;entryPerimeter=0;" parent="1" source="16" target="19" edge="1">
                    <mxGeometry relative="1" as="geometry">
                        <mxPoint x="720.2794444444444" y="262" as="sourcePoint"/>
                        <mxPoint x="617.009" y="174" as="targetPoint"/>
                    </mxGeometry>
                </mxCell>
                <mxCell id="34" value="" style="edgeStyle=none;html=1;startArrow=none;startFill=0;strokeWidth=3;fillColor=#1ba1e2;strokeColor=#006EAF;endArrow=none;endFill=0;" parent="1" source="16" target="9" edge="1">
                    <mxGeometry relative="1" as="geometry">
                        <mxPoint x="747.6865878953995" y="262" as="sourcePoint"/>
                        <mxPoint x="765.0059999999999" y="174.00800000000004" as="targetPoint"/>
                    </mxGeometry>
                </mxCell>
                <mxCell id="35" value="" style="aspect=fixed;html=1;points=[];align=center;image;fontSize=12;image=img/lib/azure2/networking/Virtual_WANs.svg;strokeColor=#000000;fontColor=#333333;fillColor=none;" parent="1" vertex="1">
                    <mxGeometry x="150" y="112" width="65" height="64" as="geometry"/>
                </mxCell>
                <mxCell id="37" value="" style="sketch=0;aspect=fixed;html=1;points=[];align=center;image;fontSize=12;image=img/lib/mscae/Virtual_Network_Classic.svg;strokeColor=#000000;fontColor=#333333;fillColor=none;" parent="1" vertex="1">
                    <mxGeometry x="50" y="130" width="50" height="28.000000000000004" as="geometry"/>
                </mxCell>
                <mxCell id="38" value="" style="edgeStyle=none;html=1;startArrow=none;startFill=0;strokeWidth=3;fillColor=#f5f5f5;strokeColor=#666666;endArrow=none;endFill=0;" parent="1" source="5" target="35" edge="1">
                    <mxGeometry relative="1" as="geometry">
                        <mxPoint x="482" y="154" as="sourcePoint"/>
                        <mxPoint x="599.9659999999999" y="154" as="targetPoint"/>
                    </mxGeometry>
                </mxCell>
                <mxCell id="39" value="" style="edgeStyle=none;html=1;startArrow=none;startFill=0;strokeWidth=3;fillColor=#f5f5f5;strokeColor=#666666;endArrow=none;endFill=0;" parent="1" source="37" target="35" edge="1">
                    <mxGeometry relative="1" as="geometry">
                        <mxPoint x="329" y="263.0823529411764" as="sourcePoint"/>
                        <mxPoint x="225" y="204.3529411764705" as="targetPoint"/>
                    </mxGeometry>
                </mxCell>
            </root>
        </mxGraphModel>
    </diagram>
</mxfile>